<svg id="Layer_1" data-name="Layer 1" xmlns="http://www.w3.org/2000/svg" viewBox="0 0 100 100"><defs><style>.cls-1{fill:#f0f2ff;}.cls-2,.cls-5{fill:#d6daff;}.cls-3{fill:none;}.cls-3,.cls-5,.cls-6{stroke:#4550e5;stroke-linecap:round;stroke-linejoin:round;}.cls-4,.cls-6{fill:#fff;}</style></defs><title>amusement-park</title><path class="cls-1" d="M78.5,84.5c0-22.09-17.91-39.53-40-40C15,44-3,62.41-3,84.5A40.18,40.18,0,0,0,1,101H74.94A39.85,39.85,0,0,0,78.5,84.5Z"/><path class="cls-2" d="M20.85,65.05h5.24a1,1,0,0,1,1,1v14.2a0,0,0,0,1,0,0H19.85a0,0,0,0,1,0,0V66.05A1,1,0,0,1,20.85,65.05Z"/><path class="cls-3" d="M21,65.05h5a1.12,1.12,0,0,1,1.12,1.12V80.25a0,0,0,0,1,0,0H19.85a0,0,0,0,1,0,0V66.17A1.12,1.12,0,0,1,21,65.05Z"/><path class="cls-2" d="M41.29,65.05H59.21a1,1,0,0,1,1,1v14.2a0,0,0,0,1,0,0H40.29a0,0,0,0,1,0,0V66.05A1,1,0,0,1,41.29,65.05Z"/><path class="cls-3" d="M41.32,65.05H59.18a1,1,0,0,1,1,1V80.25a0,0,0,0,1,0,0H40.29a0,0,0,0,1,0,0V66.08A1,1,0,0,1,41.32,65.05Z"/><rect class="cls-4" x="21.3" y="46.23" width="4.34" height="18.82"/><rect class="cls-3" x="21.3" y="46.23" width="4.34" height="18.82"/><rect class="cls-4" x="41.57" y="46.23" width="17.37" height="18.82"/><rect class="cls-3" x="41.57" y="46.23" width="17.37" height="18.82"/><path class="cls-2" d="M46.63,31.76h-13A18.37,18.37,0,0,1,23.25,44.08L18.4,46.23H61.83L57,44.08A18.37,18.37,0,0,1,46.63,31.76Z"/><path class="cls-3" d="M46.63,31.76h-13A18.37,18.37,0,0,1,23.25,44.08L18.4,46.23H61.83L57,44.08A18.37,18.37,0,0,1,46.63,31.76Z"/><path class="cls-5" d="M45.91,49.13h8.69a0,0,0,0,1,0,0V61.66a.5.5,0,0,1-.5.5H46.41a.5.5,0,0,1-.5-.5V49.13A0,0,0,0,1,45.91,49.13Z"/><path class="cls-2" d="M45.91,49.13V59.26h2.17a2.17,2.17,0,0,1,4.34,0h2.17V49.13Z"/><path class="cls-4" d="M49.45,57.25l4.87-8.12H45.91V59.26h2.17A2.15,2.15,0,0,1,49.45,57.25Z"/><path class="cls-3" d="M45.91,49.13V59.26h2.17a2.17,2.17,0,0,1,4.34,0h2.17V49.13Z"/><path class="cls-6" d="M20.85,70.84h.9a1,1,0,0,1,1,1v8.41a0,0,0,0,1,0,0h-2.9a0,0,0,0,1,0,0V71.84A1,1,0,0,1,20.85,70.84Z"/><path class="cls-6" d="M22.75,69.39A1.45,1.45,0,1,1,21.3,68,1.45,1.45,0,0,1,22.75,69.39Z"/><path class="cls-6" d="M33.16,70.84h.9a1,1,0,0,1,1,1v8.41a0,0,0,0,1,0,0h-2.9a0,0,0,0,1,0,0V71.84A1,1,0,0,1,33.16,70.84Z"/><path class="cls-6" d="M35.05,69.39a1.45,1.45,0,1,1-2.89,0,1.45,1.45,0,0,1,2.89,0Z"/><path class="cls-6" d="M57.76,70.84h.9a1,1,0,0,1,1,1v8.41a0,0,0,0,1,0,0h-2.9a0,0,0,0,1,0,0V71.84A1,1,0,0,1,57.76,70.84Z"/><path class="cls-6" d="M59.66,69.39A1.45,1.45,0,1,1,58.21,68,1.45,1.45,0,0,1,59.66,69.39Z"/><path class="cls-6" d="M70.07,70.84H71a1,1,0,0,1,1,1v8.41a0,0,0,0,1,0,0h-2.9a0,0,0,0,1,0,0V71.84A1,1,0,0,1,70.07,70.84Z"/><path class="cls-6" d="M72,69.39A1.45,1.45,0,1,1,70.52,68,1.44,1.44,0,0,1,72,69.39Z"/><rect class="cls-6" x="74.86" y="54.19" width="2.9" height="26.06"/><path class="cls-6" d="M45.46,70.84h.9a1,1,0,0,1,1,1v8.41a0,0,0,0,1,0,0h-2.9a0,0,0,0,1,0,0V71.84a1,1,0,0,1,1-1Z"/><path class="cls-6" d="M47.36,69.39A1.45,1.45,0,1,1,45.91,68,1.45,1.45,0,0,1,47.36,69.39Z"/><path class="cls-3" d="M22.75,72.29l1.61,1.61a4.37,4.37,0,0,0,3.09,1.28h0a4.37,4.37,0,0,0,3.09-1.28l1.62-1.61"/><path class="cls-3" d="M35.05,72.29l1.62,1.61a4.37,4.37,0,0,0,3.09,1.28h0a4.34,4.34,0,0,0,3.08-1.28l1.62-1.61"/><path class="cls-3" d="M47.36,72.29,49,73.9a4.37,4.37,0,0,0,3.09,1.28h0a4.37,4.37,0,0,0,3.09-1.28l1.61-1.61"/><path class="cls-3" d="M59.66,72.29l1.62,1.61a4.36,4.36,0,0,0,3.08,1.28h0a4.37,4.37,0,0,0,3.09-1.28l1.62-1.61"/><path class="cls-5" d="M81,49.85H72V47.68l-4.55,3.9a.58.58,0,0,0,0,.88L72,56.36V54.19H81a.58.58,0,0,0,.48-.9L80.65,52l.85-1.27A.58.58,0,0,0,81,49.85Z"/><path class="cls-6" d="M74.86,54.19h5.07a0,0,0,0,1,0,0V73.46a1,1,0,0,1-1,1H74.86a0,0,0,0,1,0,0V54.19A0,0,0,0,1,74.86,54.19Z"/><rect class="cls-5" x="33.6" y="28.86" width="13.03" height="2.9"/><line class="cls-3" x1="33.6" y1="31.76" x2="33.6" y2="23.79"/><line class="cls-3" x1="46.63" y1="31.76" x2="46.63" y2="23.79"/><path class="cls-6" d="M33.6,20.33v3.46l3.83-1.63a.58.58,0,0,0,0-1.07l-3-1.29A.58.58,0,0,0,33.6,20.33Z"/><path class="cls-6" d="M46.63,20.33v3.46l3.83-1.63a.59.59,0,0,0,0-1.07l-3-1.29A.58.58,0,0,0,46.63,20.33Z"/><path class="cls-5" d="M58.21,46.23H18.4v3.26a1.81,1.81,0,1,0,3.62,0,1.81,1.81,0,1,0,3.62,0,1.81,1.81,0,1,0,3.62,0,1.81,1.81,0,1,0,3.62,0,1.81,1.81,0,0,0,3.62,0,1.81,1.81,0,1,0,3.62,0,1.81,1.81,0,1,0,3.62,0,1.81,1.81,0,0,0,3.62,0,1.81,1.81,0,1,0,3.61,0,1.81,1.81,0,1,0,3.62,0,1.81,1.81,0,0,0,3.62,0,1.81,1.81,0,1,0,3.62,0V46.23Z"/><path class="cls-6" d="M31.43,41.17l.73-.49a14.38,14.38,0,0,1,8-2.41h0a14.32,14.32,0,0,1,8,2.41l.73.49v5.06l-.73-.48a14.24,14.24,0,0,0-8-2.41h0a14.3,14.3,0,0,0-8,2.41l-.73.48Z"/><polygon class="cls-6" points="48.8 42.61 53.15 42.61 51.7 44.78 53.15 47.68 48.8 47.68 48.8 42.61"/><polygon class="cls-6" points="31.43 42.61 27.09 42.61 28.54 44.78 27.09 47.68 31.43 47.68 31.43 42.61"/><line class="cls-3" x1="77.75" y1="57.09" x2="79.93" y2="57.09"/><line class="cls-3" x1="77.75" y1="59.98" x2="79.93" y2="59.98"/><line class="cls-3" x1="77.75" y1="62.88" x2="79.93" y2="62.88"/><line class="cls-3" x1="77.75" y1="65.77" x2="79.93" y2="65.77"/><line class="cls-3" x1="77.75" y1="68.67" x2="79.93" y2="68.67"/><line class="cls-3" x1="77.75" y1="71.56" x2="79.93" y2="71.56"/></svg>