<svg id="Layer_1" data-name="Layer 1" xmlns="http://www.w3.org/2000/svg" viewBox="0 0 100 100"><defs><style>.cls-1{fill:#f0f2ff;}.cls-2{fill:none;}.cls-2,.cls-5,.cls-6{stroke:#4550e5;stroke-linecap:round;stroke-linejoin:round;}.cls-3,.cls-6{fill:#d6daff;}.cls-4,.cls-5{fill:#fff;}</style></defs><title>arab-male-travel</title><path class="cls-1" d="M90,53.5A40,40,0,1,0,13.56,70H86.44A39.85,39.85,0,0,0,90,53.5Z"/><line class="cls-2" x1="11" y1="70" x2="89" y2="70"/><line class="cls-2" x1="6.5" y1="70" x2="9" y2="70"/><line class="cls-2" x1="91" y1="70" x2="93.5" y2="70"/><path class="cls-3" d="M76,67.5V63.44a.94.94,0,0,0-.94-.94H44.3l-1.11,5Z"/><polygon class="cls-4" points="63.23 62.5 44.3 62.5 43.19 67.5 58.23 67.5 63.23 62.5"/><path class="cls-4" d="M43.1,67.5,42.5,70h36V62.1a1.6,1.6,0,0,0-1.6-1.6H45.84a1.21,1.21,0,0,0-1.17.91L44.3,62.5H75.06a.94.94,0,0,1,.94.94V67.5Z"/><path class="cls-2" d="M43.1,67.5,42.5,70h36V62.1a1.6,1.6,0,0,0-1.6-1.6H45.84a1.21,1.21,0,0,0-1.17.91L44.3,62.5H75.06a.94.94,0,0,1,.94.94V67.5Z"/><path class="cls-2" d="M76,67.5V63.44a.94.94,0,0,0-.94-.94H44.3l-1.11,5Z"/><path class="cls-4" d="M51,58.8v1.7H76.9a1.6,1.6,0,0,1,1.6,1.6V70h6V58.8A1.79,1.79,0,0,0,82.7,57H52.8A1.79,1.79,0,0,0,51,58.8Z"/><path class="cls-2" d="M51,58.8v1.7H76.9a1.6,1.6,0,0,1,1.6,1.6V70h6V58.8A1.79,1.79,0,0,0,82.7,57H52.8A1.79,1.79,0,0,0,51,58.8Z"/><path class="cls-5" d="M63.7,54.5a1.2,1.2,0,0,0-1.2,1.2V57h19V55.7a1.2,1.2,0,0,0-1.2-1.2Z"/><path class="cls-4" d="M62.9,32.5a.54.54,0,0,0-.53.6l.34,2.9H81.09l.34-2.9a.54.54,0,0,0-.53-.6Z"/><path class="cls-2" d="M62.9,32.5a.54.54,0,0,0-.53.6l.34,2.9H81.09l.34-2.9a.54.54,0,0,0-.53-.6Z"/><rect class="cls-4" x="66" y="48" width="12" height="6.5"/><rect class="cls-5" x="66" y="43" width="12" height="2.5"/><path class="cls-4" d="M65.9,32.5h12c0-1-.83-2.5-1.85-2.5h-8.3C66.73,30,65.9,31.48,65.9,32.5Z"/><path class="cls-2" d="M65.9,32.5h12c0-1-.83-2.5-1.85-2.5h-8.3C66.73,30,65.9,31.48,65.9,32.5Z"/><rect class="cls-2" x="66" y="48" width="12" height="6.5"/><path class="cls-5" d="M65.3,45.5a1.29,1.29,0,0,0-1.2,1.3A1.2,1.2,0,0,0,65.3,48H78.5a1.2,1.2,0,0,0,1.2-1.2,1.29,1.29,0,0,0-1.2-1.3Z"/><path class="cls-3" d="M81.09,36l-.69,6.11a1,1,0,0,1-1,.89h-15a1,1,0,0,1-1-.89L62.71,36Z"/><path class="cls-4" d="M62.71,36l.69,6.11a1,1,0,0,0,1,.89h4.16l7-7Z"/><path class="cls-2" d="M81.09,36l-.69,6.11a1,1,0,0,1-1,.89h-15a1,1,0,0,1-1-.89L62.71,36Z"/><line class="cls-2" x1="72" y1="30" x2="72" y2="25.5"/><line class="cls-2" x1="69" y1="30" x2="69" y2="28.5"/><line class="cls-2" x1="75" y1="30" x2="75" y2="28.5"/><line class="cls-2" x1="78.5" y1="36" x2="78.5" y2="43"/><line class="cls-2" x1="74.5" y1="36" x2="74.5" y2="43"/><line class="cls-2" x1="69.5" y1="36" x2="69.5" y2="43"/><line class="cls-2" x1="65.5" y1="36" x2="65.5" y2="43"/><line class="cls-2" x1="72" y1="62.5" x2="72" y2="67.5"/><line class="cls-2" x1="67" y1="62.5" x2="67" y2="67.5"/><line class="cls-2" x1="62" y1="62.5" x2="62" y2="67.5"/><line class="cls-2" x1="57" y1="62.5" x2="57" y2="67.5"/><line class="cls-2" x1="52" y1="62.5" x2="52" y2="67.5"/><line class="cls-2" x1="47.4" y1="62.8" x2="47.4" y2="67.6"/><path class="cls-5" d="M24.5,65.51a2,2,0,1,0,4,0v-2h-4Z"/><path class="cls-4" d="M43.48,63.5h4a.58.58,0,0,0,.58-.57V53.15a12.08,12.08,0,1,0-24.15,0v9.78a.57.57,0,0,0,.57.57h4L27.38,80.75H44.63Z"/><path class="cls-2" d="M43.48,63.5h4a.58.58,0,0,0,.58-.57V53.15a12.08,12.08,0,1,0-24.15,0v9.78a.57.57,0,0,0,.57.57h4L27.38,80.75H44.63Z"/><line class="cls-5" x1="28.53" y1="63.5" x2="28.53" y2="50.27"/><line class="cls-5" x1="43.47" y1="63.5" x2="43.47" y2="50.27"/><path class="cls-5" d="M43.48,65.51a2,2,0,1,0,4,0v-2h-4Z"/><ellipse class="cls-1" cx="36" cy="84.77" rx="14.95" ry="1.73"/><path class="cls-5" d="M43.74,83.62a1.15,1.15,0,0,0,1-.57,1.18,1.18,0,0,0,0-1.15,3.45,3.45,0,0,0-3-1.72h-.58a3.43,3.43,0,0,0-3,1.72,1.15,1.15,0,0,0,1,1.72Z"/><path class="cls-5" d="M32.82,83.62a1.15,1.15,0,0,0,1-1.72,3.44,3.44,0,0,0-3-1.72h-.57a3.45,3.45,0,0,0-3,1.72,1.18,1.18,0,0,0,0,1.15,1.15,1.15,0,0,0,1,.57Z"/><path class="cls-2" d="M28.79,80.47a5.47,5.47,0,0,1,1.46,3.15c0-1.72,2.3-2.87,2.3-2.87"/><path class="cls-2" d="M43.21,80.47a5.47,5.47,0,0,0-1.46,3.15c0-1.72-2.3-2.87-2.3-2.87"/><rect class="cls-3" x="43.47" y="69.25" width="4.6" height="10.93" rx="1" ry="1"/><rect class="cls-2" x="43.47" y="69.25" width="4.6" height="10.93" rx="1" ry="1"/><line class="cls-2" x1="45.49" y1="67.52" x2="45.49" y2="69.25"/><path class="cls-6" d="M36,44.52a4,4,0,0,1-1.15-.17V54.3a.58.58,0,0,0,.58.58h1.15a.58.58,0,0,0,.57-.58V44.35A4,4,0,0,1,36,44.52Z"/><path class="cls-5" d="M39.82,41.7a11.9,11.9,0,0,0-7.64,0,4,4,0,0,0,7.64,0Z"/><path class="cls-5" d="M44.05,31.88A1.41,1.41,0,0,0,42.9,30.5v-.93a6.9,6.9,0,0,0-13.8,0v.93a1.4,1.4,0,0,0,.14,2.78,6.9,6.9,0,0,0,13.51,0A1.41,1.41,0,0,0,44.05,31.88Z"/><path class="cls-2" d="M44.05,31.88A1.41,1.41,0,0,0,42.9,30.5v-.93a6.9,6.9,0,0,0-13.8,0v.93a1.4,1.4,0,0,0,.14,2.78,6.9,6.9,0,0,0,13.51,0A1.41,1.41,0,0,0,44.05,31.88Z"/><circle class="cls-3" cx="32.26" cy="32.74" r="0.86"/><circle class="cls-3" cx="39.74" cy="32.74" r="0.86"/><path class="cls-5" d="M40,34.63a1.16,1.16,0,0,1-.94-.18,6,6,0,0,0-6.14,0,1.16,1.16,0,0,1-.94.18,5.37,5.37,0,0,1-2.75-1.35c.69,6,4.3,7.79,6.76,7.79s6.07-1.76,6.76-7.79A5.37,5.37,0,0,1,40,34.63Z"/><path class="cls-2" d="M34.27,35.93a3.13,3.13,0,0,0,3.45,0"/><path class="cls-3" d="M41.18,22.68a3.23,3.23,0,0,0-3.45-3.45H34.28a3.22,3.22,0,0,0-3.45,3.45c-3.73.93-7.11,8.36-4.59,20.68A1.16,1.16,0,0,0,28.1,44C29.55,42.76,32.76,41.65,35,41c-2.33-.44-5.12-2.47-5.72-7.69a1.4,1.4,0,0,1-.14-2.78V29a2,2,0,0,1,2.3-1.73c.89.18,3.38.45,4.27.55a3.64,3.64,0,0,0,.66,0c.89-.1,3.38-.37,4.27-.55A2,2,0,0,1,42.9,29v1.5a1.4,1.4,0,0,1-.14,2.78C42.16,38.5,39.37,40.53,37,41c2.2.68,5.41,1.79,6.86,3.05a1.16,1.16,0,0,0,1.86-.66C48.28,31,44.9,23.61,41.18,22.68Z"/><path class="cls-2" d="M41.18,22.68a3.23,3.23,0,0,0-3.45-3.45H34.28a3.22,3.22,0,0,0-3.45,3.45c-3.73.93-7.11,8.36-4.59,20.68A1.16,1.16,0,0,0,28.1,44C29.55,42.76,32.76,41.65,35,41c-2.33-.44-5.12-2.47-5.72-7.69a1.4,1.4,0,0,1-.14-2.78V29a2,2,0,0,1,2.3-1.73c.89.18,3.38.45,4.27.55a3.64,3.64,0,0,0,.66,0c.89-.1,3.38-.37,4.27-.55A2,2,0,0,1,42.9,29v1.5a1.4,1.4,0,0,1-.14,2.78C42.16,38.5,39.37,40.53,37,41c2.2.68,5.41,1.79,6.86,3.05a1.16,1.16,0,0,0,1.86-.66C48.28,31,44.9,23.61,41.18,22.68Z"/><line class="cls-2" x1="29.1" y1="22.68" x2="42.9" y2="22.68"/><path class="cls-2" d="M39.11,30.73a1,1,0,0,0-1.38,0"/><path class="cls-2" d="M34.28,30.73a1,1,0,0,0-1.39,0"/></svg>