<svg id="Layer_1" data-name="Layer 1" xmlns="http://www.w3.org/2000/svg" viewBox="0 0 100 100"><defs><style>.cls-1{fill:#f0f2ff;}.cls-2,.cls-8{fill:none;}.cls-2,.cls-4,.cls-6,.cls-8{stroke:#4550e5;stroke-linejoin:round;}.cls-2,.cls-4,.cls-6{stroke-linecap:round;}.cls-3,.cls-6{fill:#fff;}.cls-4,.cls-5{fill:#d6daff;}.cls-7{fill:#4550e5;}</style></defs><title>delivery-truck</title><path class="cls-1" d="M90,52.93a40,40,0,1,0-76.44,16.5H86.44A39.85,39.85,0,0,0,90,52.93Z"/><line class="cls-2" x1="11" y1="69.43" x2="89" y2="69.43"/><line class="cls-2" x1="6.5" y1="69.43" x2="9" y2="69.43"/><line class="cls-2" x1="91" y1="69.43" x2="93.5" y2="69.43"/><ellipse class="cls-1" cx="30.79" cy="85.31" rx="11.5" ry="1.76"/><rect class="cls-3" x="32.84" y="74.4" width="4.15" height="8.77" transform="translate(69.83 157.56) rotate(180)"/><rect class="cls-2" x="32.84" y="74.4" width="4.15" height="8.77" transform="translate(69.83 157.56) rotate(180)"/><path class="cls-4" d="M39.24,82.91a1.17,1.17,0,0,1,0,1.2,1.14,1.14,0,0,1-1,.61H33.55a1.16,1.16,0,0,1-1-.56,1.2,1.2,0,0,1,0-1.15C33.78,80.54,37.81,80.68,39.24,82.91Z"/><rect class="cls-3" x="24.53" y="74.4" width="4.15" height="8.77"/><rect class="cls-2" x="24.53" y="74.4" width="4.15" height="8.77"/><path class="cls-3" d="M42.52,53A11.76,11.76,0,1,0,19,53v.71h4.15v9.16H38.37V53.71h4.15Z"/><path class="cls-5" d="M28,75.56a1.15,1.15,0,0,0,1.14-1.13l.18-5.22a1.45,1.45,0,0,1,2.89,0l.17,5.22a1.16,1.16,0,0,0,1.15,1.13h4.33A1.16,1.16,0,0,0,39,74.33l-.63-12.87H23.15l-.63,12.87a1.17,1.17,0,0,0,.31.86,1.13,1.13,0,0,0,.84.37Z"/><path class="cls-2" d="M28,75.56a1.15,1.15,0,0,0,1.14-1.13l.18-5.22a1.45,1.45,0,0,1,2.89,0l.17,5.22a1.16,1.16,0,0,0,1.15,1.13h4.33A1.16,1.16,0,0,0,39,74.33l-.63-12.87H23.15l-.63,12.87a1.17,1.17,0,0,0,.31.86,1.13,1.13,0,0,0,.84.37Z"/><path class="cls-2" d="M42.52,53A11.76,11.76,0,1,0,19,53v.71h4.15v9.16H38.37V53.71h4.15Z"/><line class="cls-2" x1="38.37" y1="53.71" x2="38.37" y2="49.48"/><line class="cls-2" x1="23.15" y1="53.71" x2="23.15" y2="49.48"/><path class="cls-3" d="M23.15,66.4a2.08,2.08,0,1,1-4.15,0V53.71h4.15Z"/><rect class="cls-4" x="23.15" y="60.76" width="15.22" height="2.82"/><rect class="cls-6" x="28.69" y="60.76" width="4.15" height="2.82"/><path class="cls-4" d="M22.28,82.91a1.2,1.2,0,0,0-.05,1.2,1.14,1.14,0,0,0,1,.61H28a1.14,1.14,0,0,0,1-.56A1.2,1.2,0,0,0,29,83C27.74,80.54,23.71,80.68,22.28,82.91Z"/><path class="cls-2" d="M23.15,66.4a2.08,2.08,0,1,1-4.15,0V53.71h4.15Z"/><path class="cls-3" d="M42.52,66.4a2.08,2.08,0,1,1-4.15,0V53.71h4.15Z"/><path class="cls-2" d="M42.52,66.4a2.08,2.08,0,1,1-4.15,0V53.71h4.15Z"/><path class="cls-6" d="M30.76,41a11.56,11.56,0,0,0-3.74.63l3.74,6.42,3.74-6.42A11.52,11.52,0,0,0,30.76,41Z"/><path class="cls-4" d="M24.53,45.25a11.54,11.54,0,0,1,6.23,2.82L27,41.65a12,12,0,0,0-1.52.65Z"/><path class="cls-4" d="M37,45.25a11.54,11.54,0,0,0-6.23,2.82l3.74-6.42A12,12,0,0,1,36,42.3Z"/><line class="cls-2" x1="30.76" y1="48.07" x2="30.76" y2="51.59"/><path class="cls-6" d="M30.77,38.68a6.93,6.93,0,0,0,6.57-4.94h0c2.19,0,2.32-3.52.35-3.52V28.81a6.92,6.92,0,1,0-13.84,0v1.41c-2,0-1.84,3.52.35,3.52h0A6.93,6.93,0,0,0,30.77,38.68Z"/><path class="cls-7" d="M28.52,29.51a.88.88,0,0,0,0,1.76.88.88,0,0,0,0-1.76Z"/><path class="cls-7" d="M33,29.51a.88.88,0,1,0,.86.88.88.88,0,0,0-.86-.88Z"/><path class="cls-5" d="M27.31,32.33a.7.7,0,1,1-.69-.7A.69.69,0,0,1,27.31,32.33Z"/><path class="cls-5" d="M35.61,32.33a.69.69,0,1,1-1.38,0,.69.69,0,1,1,1.38,0Z"/><path class="cls-2" d="M29,34.51a3.08,3.08,0,0,0,3.46,0"/><path class="cls-4" d="M26.18,20.35h9.17a3,3,0,0,1,3,3v3.32a0,0,0,0,1,0,0H23.15a0,0,0,0,1,0,0V23.38A3,3,0,0,1,26.18,20.35Z"/><path class="cls-8" d="M30.76,20.35S26.61,22.46,26.61,26"/><path class="cls-8" d="M30.76,20.35s4.15,2.11,4.15,5.64"/><path class="cls-4" d="M38.7,27.66a1.16,1.16,0,0,1-.32,1.06,1.14,1.14,0,0,1-1,.31,37.77,37.77,0,0,0-13.16,0,1.14,1.14,0,0,1-1-.31,1.22,1.22,0,0,1-.32-1.06L23.15,26c6.1-1.88,9.14-1.88,15.22,0Z"/><polygon class="cls-4" points="36.3 52.3 34.57 53.71 32.84 52.3 32.84 49.48 36.3 49.48 36.3 52.3"/><path class="cls-5" d="M48.79,63.92h6.62a0,0,0,0,1,0,0v4.51a1,1,0,0,1-1,1H49.8a1,1,0,0,1-1-1V63.92A0,0,0,0,1,48.79,63.92Z"/><path class="cls-6" d="M47.6,18.56H80.06A2.42,2.42,0,0,1,82.48,21V60.85a0,0,0,0,1,0,0H45.18a0,0,0,0,1,0,0V21A2.42,2.42,0,0,1,47.6,18.56Z"/><rect class="cls-6" x="45.18" y="24.07" width="37.3" height="30.65"/><path class="cls-3" d="M82.48,21a2.42,2.42,0,0,0-2.4-2.44H47.58A2.42,2.42,0,0,0,45.18,21v3.07h37.3Z"/><path class="cls-6" d="M45.18,60.85h37.3a0,0,0,0,1,0,0v1a2,2,0,0,1-2,2H47.2a2,2,0,0,1-2-2v-1a0,0,0,0,1,0,0Z"/><path class="cls-2" d="M48.79,63.92h6.62a0,0,0,0,1,0,0v4.51a1,1,0,0,1-1,1H49.8a1,1,0,0,1-1-1V63.92A0,0,0,0,1,48.79,63.92Z"/><path class="cls-5" d="M72.26,63.92h6.62a0,0,0,0,1,0,0v4.51a1,1,0,0,1-1,1h-4.6a1,1,0,0,1-1-1V63.92A0,0,0,0,1,72.26,63.92Z"/><path class="cls-2" d="M72.26,63.92h6.62a0,0,0,0,1,0,0v4.51a1,1,0,0,1-1,1h-4.6a1,1,0,0,1-1-1V63.92A0,0,0,0,1,72.26,63.92Z"/><path class="cls-4" d="M79.48,57.79a1.21,1.21,0,1,1-1.21-1.23A1.22,1.22,0,0,1,79.48,57.79Z"/><path class="cls-4" d="M74.66,57.79a1.2,1.2,0,1,1-1.2-1.23A1.21,1.21,0,0,1,74.66,57.79Z"/><path class="cls-4" d="M48.19,57.79a1.21,1.21,0,1,0,1.2-1.23A1.21,1.21,0,0,0,48.19,57.79Z"/><path class="cls-4" d="M53,57.79a1.21,1.21,0,1,0,1.21-1.23A1.22,1.22,0,0,0,53,57.79Z"/><path class="cls-6" d="M74.06,24.07H86.29a1,1,0,0,1,1,1V53.71a1,1,0,0,1-1,1H74.06a0,0,0,0,1,0,0V24.07A0,0,0,0,1,74.06,24.07Z"/><rect class="cls-6" x="76.47" y="40.62" width="8.42" height="11.65" rx="1.01" ry="1.01"/><rect class="cls-6" x="76.47" y="26.53" width="8.42" height="11.65" rx="1.01" ry="1.01"/><rect class="cls-5" x="60.22" y="24.07" width="13.84" height="30.65"/><rect class="cls-2" x="60.22" y="24.07" width="13.84" height="30.65"/><path class="cls-6" d="M65.44,46.75h8.62a0,0,0,0,1,0,0v8a0,0,0,0,1,0,0H64.43a0,0,0,0,1,0,0v-7A1,1,0,0,1,65.44,46.75Z"/><path class="cls-6" d="M69.05,40.62h5a0,0,0,0,1,0,0v6.13a0,0,0,0,1,0,0H68a0,0,0,0,1,0,0V41.63A1,1,0,0,1,69.05,40.62Z"/><path class="cls-6" d="M81.28,40.62h2.6a1,1,0,0,1,1,1v1.83a0,0,0,0,1,0,0h-2.6a1,1,0,0,1-1-1V40.62A0,0,0,0,1,81.28,40.62Z"/><path class="cls-4" d="M57.21,33.27a16.84,16.84,0,0,0-9,0v3.24a33.15,33.15,0,0,1,9-1.94Z"/><path class="cls-4" d="M48.19,38.75a2.44,2.44,0,0,0,1,2l3.2,2.34,3.68-2.35a2.44,2.44,0,0,0,1.13-2.08V34.57a33.15,33.15,0,0,0-9,1.94Z"/><path class="cls-4" d="M68,46.75h3a0,0,0,0,1,0,0v4.4a.5.5,0,0,1-.5.5h-2a.5.5,0,0,1-.5-.5v-4.4A0,0,0,0,1,68,46.75Z"/><path class="cls-4" d="M52.4,21.32a.91.91,0,0,1-.9.92H49.09a.92.92,0,0,1,0-1.84H51.5A.91.91,0,0,1,52.4,21.32Z"/><path class="cls-4" d="M80.08,21.32a.92.92,0,0,1-.9.92H76.77a.92.92,0,0,1,0-1.84h2.41A.91.91,0,0,1,80.08,21.32Z"/><path class="cls-2" d="M82.48,21a2.42,2.42,0,0,0-2.4-2.44H47.58A2.42,2.42,0,0,0,45.18,21v3.07h37.3Z"/></svg>