<svg id="Layer_1" data-name="Layer 1" xmlns="http://www.w3.org/2000/svg" viewBox="0 0 100 100"><defs><style>.cls-1{fill:#f0f2ff;}.cls-2{fill:none;}.cls-2,.cls-3,.cls-6{stroke:#4550e5;stroke-linecap:round;stroke-linejoin:round;}.cls-3,.cls-7{fill:#fff;}.cls-4,.cls-6{fill:#d6daff;}.cls-5{fill:#4550e5;}</style></defs><title>dj-booth</title><path class="cls-1" d="M90,52.75a40,40,0,1,0-76.43,16.5H86.44A39.85,39.85,0,0,0,90,52.75Z"/><line class="cls-2" x1="11" y1="69.25" x2="89" y2="69.25"/><line class="cls-2" x1="6.5" y1="69.25" x2="9" y2="69.25"/><line class="cls-2" x1="91" y1="69.25" x2="93.5" y2="69.25"/><path class="cls-3" d="M42.57,49.55S44.29,47,48.91,47s6.32,2.55,6.32,2.55l-.49,4.92H43.06Z"/><path class="cls-4" d="M59.25,59.65a10.35,10.35,0,0,0-20.7,0v1.44a7.78,7.78,0,0,0,4,6.8v.38l-1,9.08a1.12,1.12,0,0,0,.28.89,1.13,1.13,0,0,0,.86.38H55.09a1.13,1.13,0,0,0,.86-.38,1.12,1.12,0,0,0,.28-.89l-1-9.08h4Z"/><path class="cls-2" d="M59.25,59.65a10.35,10.35,0,0,0-20.7,0v1.44a7.78,7.78,0,0,0,4,6.8v.38l-1,9.08a1.12,1.12,0,0,0,.28.89,1.13,1.13,0,0,0,.86.38H55.09a1.13,1.13,0,0,0,.86-.38,1.12,1.12,0,0,0,.28-.89l-1-9.08h4Z"/><path class="cls-3" d="M45,50.08a7.94,7.94,0,0,1,3.78,4l.17.4.17-.4a7.94,7.94,0,0,1,3.78-4,10.39,10.39,0,0,0-7.9,0Z"/><path class="cls-2" d="M56.38,40.67h-15V37a7.47,7.47,0,0,1,7.48-7.47h0A7.47,7.47,0,0,1,56.38,37Z"/><path class="cls-3" d="M55.23,70.29a2,2,0,1,0,4,0v-2h-4Z"/><path class="cls-3" d="M48.91,47a5.74,5.74,0,0,0,5.46-4h0c1.82,0,1.93-2.87.29-2.87V39a5.75,5.75,0,0,0-11.5,0V40.1c-1.64,0-1.53,2.87.29,2.87h0A5.74,5.74,0,0,0,48.91,47Z"/><path class="cls-5" d="M47,39.52a.72.72,0,1,0,.72.72.72.72,0,0,0-.72-.72Z"/><path class="cls-5" d="M50.77,39.52a.72.72,0,1,0,.72.72.72.72,0,0,0-.72-.72Z"/><circle class="cls-4" cx="45.46" cy="41.82" r="0.58"/><path class="cls-4" d="M52.93,41.82a.58.58,0,1,1-.57-.57A.58.58,0,0,1,52.93,41.82Z"/><path class="cls-2" d="M47.47,43.6a2.6,2.6,0,0,0,2.88,0"/><path class="cls-2" d="M45.74,36.94c2.52,2.44,6.87,2,9.49,1.15a6.33,6.33,0,0,0-12.66,0v2s3.17-.79,3.17-3.16"/><path class="cls-3" d="M45.74,36.94c2.52,2.44,6.87,2,9.49,1.15a6.33,6.33,0,0,0-12.66,0v2s3.17-.79,3.17-3.16"/><path class="cls-2" d="M45.74,36.94c-.29-.29-.34-.24-.57-.6"/><polygon class="cls-4" points="47.17 84.38 47.42 78.63 42.58 78.63 42.58 84.38 47.17 84.38"/><polygon class="cls-4" points="47.42 78.63 42.58 78.63 42.58 80.35 47.35 80.35 47.42 78.63"/><polygon class="cls-2" points="47.17 84.38 47.42 78.63 42.58 78.63 42.58 84.38 47.17 84.38"/><path class="cls-3" d="M42.39,85h4.42a.81.81,0,0,0,.76-1.09c-.9-2.47-4.93-2.28-5.92,0A.8.8,0,0,0,42.39,85Z"/><polygon class="cls-4" points="50.63 84.38 50.38 78.63 55.23 78.63 55.23 84.38 50.63 84.38"/><polygon class="cls-4" points="50.38 78.63 55.23 78.63 55.23 80.35 50.45 80.35 50.38 78.63"/><polygon class="cls-2" points="50.63 84.38 50.38 78.63 55.23 78.63 55.23 84.38 50.63 84.38"/><path class="cls-3" d="M55.41,85H51a.81.81,0,0,1-.76-1.09c.9-2.47,4.93-2.28,5.92,0A.8.8,0,0,1,55.41,85Z"/><line class="cls-2" x1="55.23" y1="68.27" x2="55.23" y2="59.65"/><path class="cls-3" d="M50.34,68.85a2,2,0,0,0,0-4h-2v4Z"/><path class="cls-4" d="M54.65,37.8h1.88a1,1,0,0,1,1,1v3.75a1,1,0,0,1-1,1H54.65a0,0,0,0,1,0,0V37.8A0,0,0,0,1,54.65,37.8Z"/><path class="cls-2" d="M54.65,37.8h1.88a1,1,0,0,1,1,1v3.75a1,1,0,0,1-1,1H54.65a0,0,0,0,1,0,0V37.8A0,0,0,0,1,54.65,37.8Z"/><path class="cls-4" d="M40.27,37.8h1.88a1,1,0,0,1,1,1v3.75a1,1,0,0,1-1,1H40.27a0,0,0,0,1,0,0V37.8A0,0,0,0,1,40.27,37.8Z" transform="translate(83.42 81.35) rotate(180)"/><path class="cls-2" d="M40.27,37.8h1.88a1,1,0,0,1,1,1v3.75a1,1,0,0,1-1,1H40.27a0,0,0,0,1,0,0V37.8A0,0,0,0,1,40.27,37.8Z" transform="translate(83.42 81.35) rotate(180)"/><path class="cls-6" d="M48.9,54.47l-1.47-.84a8.29,8.29,0,0,0-5.45-1,.51.51,0,0,1-.45-.17.49.49,0,0,1-.06-.48l.8-2a.94.94,0,0,1,1.08-.55,8,8,0,0,1,5.38,4.58Z"/><path class="cls-6" d="M48.9,54.47l1.47-.84a8.29,8.29,0,0,1,5.45-1,.51.51,0,0,0,.45-.17.49.49,0,0,0,.06-.48l-.8-2a.94.94,0,0,0-1.08-.55,8,8,0,0,0-5.38,4.58Z"/><path class="cls-2" d="M42.57,67.89a7.76,7.76,0,0,0,3.74,1h4a2,2,0,0,0,0-4h-4a3.74,3.74,0,0,1-3.74-3.73V59.65"/><rect class="cls-2" x="11.81" y="46.14" width="40.83" height="4.6" transform="translate(80.66 16.21) rotate(90)"/><polyline class="cls-2" points="34.53 68.85 29.93 64.25 34.53 59.65 29.93 55.05 34.53 50.45 29.93 45.85 34.53 41.25 29.93 36.65 34.53 32.05 30.5 28.02"/><ellipse class="cls-4" cx="48.33" cy="85.52" rx="23" ry="1.73"/><rect class="cls-2" x="35.68" y="21.7" width="27.6" height="4.6"/><polyline class="cls-2" points="35.68 21.7 40.28 26.3 44.88 21.7 49.48 26.3 54.08 21.7 58.68 26.3 63.28 21.7"/><rect class="cls-3" x="28.1" y="19.97" width="8.24" height="8.05" rx="1.08" ry="1.08"/><rect class="cls-7" x="73.63" y="44.12" width="10.35" height="14.95" rx="1" ry="1"/><rect class="cls-2" x="73.63" y="44.12" width="10.35" height="14.95" rx="1" ry="1"/><rect class="cls-7" x="77.65" y="59.07" width="2.3" height="7.48"/><rect class="cls-2" x="77.65" y="59.07" width="2.3" height="7.48"/><path class="cls-3" d="M76.35,66.55h4.9a1,1,0,0,1,1,1v1.3a0,0,0,0,1,0,0h-6.9a0,0,0,0,1,0,0v-1.3A1,1,0,0,1,76.35,66.55Z"/><path class="cls-4" d="M81.68,49.3a2.88,2.88,0,1,1-2.88-2.88A2.87,2.87,0,0,1,81.68,49.3Z"/><path class="cls-2" d="M81.68,49.3a2.88,2.88,0,1,1-2.88-2.88A2.87,2.87,0,0,1,81.68,49.3Z"/><circle class="cls-6" cx="78.8" cy="55.62" r="1.15"/><rect class="cls-7" x="15.55" y="44.12" width="10.35" height="14.95" rx="1" ry="1"/><rect class="cls-2" x="15.55" y="44.12" width="10.35" height="14.95" rx="1" ry="1"/><rect class="cls-7" x="19.58" y="59.07" width="2.3" height="7.48"/><rect class="cls-2" x="19.58" y="59.07" width="2.3" height="7.48"/><path class="cls-3" d="M18.28,66.55h4.9a1,1,0,0,1,1,1v1.3a0,0,0,0,1,0,0h-6.9a0,0,0,0,1,0,0v-1.3A1,1,0,0,1,18.28,66.55Z"/><path class="cls-4" d="M23.6,49.3a2.88,2.88,0,1,1-2.87-2.88A2.87,2.87,0,0,1,23.6,49.3Z"/><path class="cls-2" d="M23.6,49.3a2.88,2.88,0,1,1-2.87-2.88A2.87,2.87,0,0,1,23.6,49.3Z"/><path class="cls-6" d="M21.88,55.62a1.15,1.15,0,1,1-1.15-1.15A1.15,1.15,0,0,1,21.88,55.62Z"/><circle class="cls-3" cx="32.23" cy="24" r="1.72"/><rect class="cls-3" x="62.6" y="19.97" width="8.24" height="8.05" rx="1.08" ry="1.08"/><path class="cls-3" d="M68.45,24a1.73,1.73,0,1,0-1.72,1.72A1.73,1.73,0,0,0,68.45,24Z"/><rect class="cls-2" x="46.31" y="46.14" width="40.83" height="4.6" transform="translate(115.16 -18.29) rotate(90)"/><polyline class="cls-2" points="69.03 68.85 64.43 64.25 69.03 59.65 64.43 55.05 69.03 50.45 64.43 45.85 69.03 41.25 64.43 36.65 69.03 32.05 65 28.02"/><path class="cls-7" d="M38.88,65.4H58.93a.9.9,0,0,1,.9.9V85a0,0,0,0,1,0,0H38a0,0,0,0,1,0,0V66.3A.9.9,0,0,1,38.88,65.4Z"/><path class="cls-2" d="M38.88,65.4H58.93a.9.9,0,0,1,.9.9V85a0,0,0,0,1,0,0H38a0,0,0,0,1,0,0V66.3A.9.9,0,0,1,38.88,65.4Z"/><path class="cls-3" d="M38,85h-6.9a1.14,1.14,0,0,1-1.15-1.15V71.25a1.9,1.9,0,0,1,1.52-1.71L38,67.7Z"/><path class="cls-3" d="M67.88,83.8A1.15,1.15,0,0,1,66.73,85h-6.9V67.7l6.52,1.84a1.9,1.9,0,0,1,1.53,1.71Z"/><path class="cls-6" d="M41.28,63.1H58.1a0,0,0,0,1,0,0v2.3a0,0,0,0,1,0,0H40.28a0,0,0,0,1,0,0V64.1A1,1,0,0,1,41.28,63.1Z"/><path class="cls-3" d="M49.33,60.8H57.1a1,1,0,0,1,1,1v1.3a0,0,0,0,1,0,0H48.33a0,0,0,0,1,0,0V61.8a1,1,0,0,1,1-1Z"/><path class="cls-6" d="M35.68,80.35A1.73,1.73,0,1,1,34,78.62,1.74,1.74,0,0,1,35.68,80.35Z"/><path class="cls-6" d="M35.68,73.45A1.73,1.73,0,1,1,34,71.72,1.73,1.73,0,0,1,35.68,73.45Z"/><path class="cls-6" d="M65.58,80.35a1.73,1.73,0,1,1-1.73-1.73A1.74,1.74,0,0,1,65.58,80.35Z"/><path class="cls-6" d="M65.58,73.45a1.73,1.73,0,1,1-1.73-1.73A1.73,1.73,0,0,1,65.58,73.45Z"/><line class="cls-2" x1="40.28" y1="82.65" x2="44.3" y2="82.65"/><line class="cls-2" x1="40.28" y1="80.35" x2="44.3" y2="80.35"/><line class="cls-2" x1="40.28" y1="78.05" x2="44.3" y2="78.05"/><line class="cls-2" x1="40.28" y1="75.75" x2="44.3" y2="75.75"/><line class="cls-2" x1="46.6" y1="82.65" x2="51.2" y2="82.65"/><line class="cls-2" x1="46.6" y1="80.35" x2="51.2" y2="80.35"/><line class="cls-2" x1="46.6" y1="78.05" x2="51.2" y2="78.05"/><line class="cls-2" x1="46.6" y1="75.75" x2="51.2" y2="75.75"/><line class="cls-2" x1="46.6" y1="73.45" x2="51.2" y2="73.45"/><line class="cls-2" x1="46.6" y1="71.15" x2="51.2" y2="71.15"/><line class="cls-2" x1="53.5" y1="82.65" x2="57.53" y2="82.65"/><line class="cls-2" x1="53.5" y1="80.35" x2="57.53" y2="80.35"/></svg>