<svg id="Layer_1" data-name="Layer 1" xmlns="http://www.w3.org/2000/svg" viewBox="0 0 100 100"><defs><style>.cls-1{fill:#f0f2ff;}.cls-2{fill:none;}.cls-2,.cls-4,.cls-5,.cls-6{stroke:#4550e5;stroke-linejoin:round;}.cls-2,.cls-4,.cls-5{stroke-linecap:round;}.cls-3,.cls-5{fill:#fff;}.cls-4,.cls-6{fill:#d6daff;}</style></defs><title>farm-barn</title><path class="cls-1" d="M90,61.75a40,40,0,1,0-76.44,16.5H86.44A39.85,39.85,0,0,0,90,61.75Z"/><line class="cls-2" x1="11" y1="78.25" x2="89" y2="78.25"/><line class="cls-2" x1="6.5" y1="78.25" x2="9" y2="78.25"/><line class="cls-2" x1="91" y1="78.25" x2="93.5" y2="78.25"/><path class="cls-3" d="M80.84,49.41h-17V31.24a8.49,8.49,0,0,1,8.49-8.49h0a8.49,8.49,0,0,1,8.49,8.49Z"/><rect class="cls-3" x="63.86" y="32.54" width="16.98" height="45.71"/><rect class="cls-2" x="63.86" y="32.54" width="16.98" height="45.71"/><path class="cls-2" d="M80.84,32.54h-17v-1.3a8.49,8.49,0,0,1,8.49-8.49h0a8.49,8.49,0,0,1,8.49,8.49Z"/><line class="cls-2" x1="77.58" y1="72.37" x2="77.58" y2="31.24"/><line class="cls-2" x1="74.31" y1="72.37" x2="74.31" y2="31.24"/><line class="cls-2" x1="70.39" y1="54.09" x2="70.39" y2="31.24"/><line class="cls-2" x1="67.13" y1="50.83" x2="67.13" y2="31.24"/><path class="cls-4" d="M44.78,37.77h5.53a.5.5,0,0,1,.5.5v4.07a0,0,0,0,1,0,0H44.28a0,0,0,0,1,0,0V38.27A.5.5,0,0,1,44.78,37.77Z"/><rect class="cls-5" x="45.58" y="33.85" width="3.92" height="3.92"/><path class="cls-5" d="M44.28,33.85h6.53L48,30.43a.55.55,0,0,0-.42-.19.57.57,0,0,0-.42.19Z"/><path class="cls-4" d="M61,48.21a3.08,3.08,0,0,0-1.1-1L50.55,42l-2-1.14a2,2,0,0,0-1.91,0L44.53,42l-9.37,5.15a3.16,3.16,0,0,0-1.1,1L27.3,58.66V78.25H67.78V58.66Z"/><path class="cls-3" d="M30.91,61.27H64.17a1,1,0,0,1,1,1v16a0,0,0,0,1,0,0H29.91a0,0,0,0,1,0,0v-16A1,1,0,0,1,30.91,61.27Z"/><path class="cls-3" d="M31.64,57a1.09,1.09,0,0,0,.92,1.67h30A1.09,1.09,0,0,0,63.44,57l-4.5-7a2.05,2.05,0,0,0-.79-.73L48.2,44a1.4,1.4,0,0,0-1.32,0l-10,5.27a2.13,2.13,0,0,0-.79.73Z"/><path class="cls-2" d="M31.64,57a1.09,1.09,0,0,0,.92,1.67h30A1.09,1.09,0,0,0,63.44,57l-4.5-7a2.05,2.05,0,0,0-.79-.73L48.2,44a1.4,1.4,0,0,0-1.32,0l-10,5.27a2.13,2.13,0,0,0-.79.73Z"/><rect class="cls-4" x="42.97" y="66.5" width="9.14" height="11.75"/><rect class="cls-3" x="35.14" y="66.5" width="7.84" height="11.75"/><rect class="cls-2" x="35.14" y="66.5" width="7.84" height="11.75"/><path class="cls-4" d="M45.93,50.39h3.22a1,1,0,0,1,1,1v7.27a0,0,0,0,1,0,0H44.93a0,0,0,0,1,0,0V51.39A1,1,0,0,1,45.93,50.39Z"/><path class="cls-5" d="M43.32,51.48h1.61a0,0,0,0,1,0,0v7.18a0,0,0,0,1,0,0H42.32a0,0,0,0,1,0,0V52.48A1,1,0,0,1,43.32,51.48Z"/><path class="cls-5" d="M50.15,51.48h1.61a1,1,0,0,1,1,1v6.18a0,0,0,0,1,0,0H50.15a0,0,0,0,1,0,0V51.48A0,0,0,0,1,50.15,51.48Z"/><rect class="cls-4" x="34.05" y="63.89" width="26.99" height="2.61" rx="1" ry="1"/><line class="cls-5" x1="27.3" y1="58.66" x2="24.34" y2="63.23"/><line class="cls-5" x1="67.78" y1="58.66" x2="70.74" y2="63.23"/><line class="cls-2" x1="35.14" y1="66.5" x2="42.97" y2="78.25"/><line class="cls-2" x1="42.97" y1="66.5" x2="35.14" y2="78.25"/><rect class="cls-3" x="52.11" y="66.5" width="7.84" height="11.75"/><rect class="cls-2" x="52.11" y="66.5" width="7.84" height="11.75"/><line class="cls-2" x1="52.11" y1="66.5" x2="59.95" y2="78.25"/><line class="cls-2" x1="59.95" y1="66.5" x2="52.11" y2="78.25"/><line class="cls-2" x1="44.93" y1="53.44" x2="42.32" y2="56.7"/><line class="cls-2" x1="50.15" y1="53.44" x2="52.76" y2="56.7"/><line class="cls-2" x1="83.45" y1="31.24" x2="83.45" y2="76.29"/><rect class="cls-2" x="80.84" y="32.54" width="2.61" height="7.84"/><rect class="cls-2" x="80.84" y="48.21" width="2.61" height="7.84"/><rect class="cls-2" x="80.84" y="63.89" width="2.61" height="7.84"/><path class="cls-6" d="M20.77,65.84c0,3.46-1.24,6.44-2.61,6.44s-2.61-3-2.61-6.44,2.61-12.5,2.61-12.5S20.77,62.39,20.77,65.84Z"/><line class="cls-2" x1="18.16" y1="72.28" x2="18.16" y2="78.25"/><path class="cls-2" d="M30.91,61.27H64.17a1,1,0,0,1,1,1v16a0,0,0,0,1,0,0H29.91a0,0,0,0,1,0,0v-16A1,1,0,0,1,30.91,61.27Z"/></svg>