<svg id="Layer_1" data-name="Layer 1" xmlns="http://www.w3.org/2000/svg" viewBox="0 0 100 100"><defs><style>.cls-1{fill:#f0f2ff;}.cls-2{fill:none;}.cls-2,.cls-3,.cls-4{stroke:#4550e5;stroke-linecap:round;stroke-linejoin:round;}.cls-3,.cls-5{fill:#fff;}.cls-4,.cls-7{fill:#d6daff;}.cls-6{fill:#4550e5;}</style></defs><title>golfer-male</title><path class="cls-1" d="M90,52.5A40,40,0,1,0,13.56,69H86.44A39.85,39.85,0,0,0,90,52.5Z"/><line class="cls-2" x1="11" y1="69" x2="89" y2="69"/><line class="cls-2" x1="6.5" y1="69" x2="9" y2="69"/><line class="cls-2" x1="91" y1="69" x2="93.5" y2="69"/><ellipse class="cls-1" cx="63.59" cy="84.82" rx="5.75" ry="1.73"/><path class="cls-3" d="M18.5,69s16.25-9.75,45.75-9.75C82.75,59.25,85,69,85,69Z"/><line class="cls-2" x1="64" y1="59.25" x2="64" y2="44.5"/><path class="cls-4" d="M64,40V44.5l4.85-2.08a1,1,0,0,0,0-1.84L65.39,39.1A1,1,0,0,0,64,40Z"/><path class="cls-3" d="M66.1,77.67a2.55,2.55,0,1,1-2.55-2.55A2.55,2.55,0,0,1,66.1,77.67Z"/><path class="cls-4" d="M61.5,80.22h4.1a.3.3,0,0,1,.27.44l-1.24,1.47-.82,2.34a.29.29,0,0,1-.52,0l-.81-2.34-1.24-1.47A.3.3,0,0,1,61.5,80.22Z"/><ellipse class="cls-1" cx="33.4" cy="85.78" rx="11.5" ry="1.72"/><path class="cls-3" d="M21.9,66.72a1.86,1.86,0,0,0,2,1.81,2,2,0,0,0,2-2V55.88h-4Z"/><path class="cls-5" d="M35.6,82.15a3.45,3.45,0,0,1,2.41-1h.57a3.47,3.47,0,0,1,2.3.87V65.65h-15v16.4a3.45,3.45,0,0,1,2.3-.87h.57a3.47,3.47,0,0,1,2.41,1l.41-11.33a1.79,1.79,0,0,1,3.57,0Z"/><path class="cls-4" d="M40.57,84.63a1.14,1.14,0,0,0,1-1.67,3.43,3.43,0,0,0-3-1.78H38A3.45,3.45,0,0,0,35,83a1.15,1.15,0,0,0,1,1.67Z"/><path class="cls-4" d="M35.62,82.14a3.46,3.46,0,0,1,2.39-1h.57a3.41,3.41,0,0,1,2.3.88V65.65h-15V82.06a3.41,3.41,0,0,1,2.3-.88h.57a3.46,3.46,0,0,1,2.39,1l.43-11.31a1.79,1.79,0,0,1,3.57,0Z"/><path class="cls-4" d="M30.79,84.63a1.14,1.14,0,0,0,1-1.67,3.42,3.42,0,0,0-3-1.78h-.57a3.43,3.43,0,0,0-3,1.78,1.14,1.14,0,0,0,1,1.67Z"/><path class="cls-5" d="M25.93,65.65h15V55.88h4v-2.3a11.5,11.5,0,0,0-23,0v2.3h4Z"/><path class="cls-2" d="M25.93,65.65h15V55.88h4v-2.3a11.5,11.5,0,0,0-23,0v2.3h4Z"/><line class="cls-2" x1="25.93" y1="55.88" x2="25.93" y2="51.85"/><line class="cls-2" x1="40.88" y1="55.88" x2="40.88" y2="51.85"/><line class="cls-2" x1="48.55" y1="80.45" x2="48.55" y2="62.62"/><path class="cls-4" d="M48.55,55.72h0a1.16,1.16,0,0,0-1.15,1.15v5.18a.58.58,0,0,0,.58.57h1.15a.58.58,0,0,0,.57-.57V56.87A1.15,1.15,0,0,0,48.55,55.72Z"/><path class="cls-3" d="M40.88,55.88h4V59a2.59,2.59,0,0,0,2.59,2.59h0a2,2,0,0,1,2,2h0a2,2,0,0,1-2,2h0A6.61,6.61,0,0,1,40.88,59Z"/><path class="cls-4" d="M47.49,61.63a2.58,2.58,0,0,1-1.29-.36L45,65.16a6.66,6.66,0,0,0,2.49.49,2,2,0,0,0,0-4Z"/><path class="cls-3" d="M49.19,84.53h0a2.14,2.14,0,0,0,1.23.62l2,.29a1.28,1.28,0,0,0,1.45-1.09l.18-1.29a1.28,1.28,0,0,0-1.27-1.46H50.64A2.28,2.28,0,0,1,49,80.93l-.48-.48V83A2.15,2.15,0,0,0,49.19,84.53Z"/><path class="cls-3" d="M29.38,47a.56.56,0,0,0,.26.48.55.55,0,0,0,.54,0L33.4,46.1l-3.48-3.49-.54.19Z"/><path class="cls-3" d="M37.43,47a.56.56,0,0,1-.26.48.55.55,0,0,1-.54,0L33.4,46.1l3.49-3.49.54.19Z"/><line class="cls-2" x1="33.4" y1="49.55" x2="33.4" y2="46.1"/><path class="cls-3" d="M33.4,42.08a11.46,11.46,0,0,0-3.48.53L33.4,46.1l3.49-3.49A11.48,11.48,0,0,0,33.4,42.08Z"/><path class="cls-3" d="M41.45,32.88A1.4,1.4,0,0,0,40.3,31.5v-.92a6.9,6.9,0,1,0-13.8,0v.92a1.41,1.41,0,0,0-1.15,1.38,1.42,1.42,0,0,0,1.3,1.4,6.9,6.9,0,0,0,13.51,0A1.41,1.41,0,0,0,41.45,32.88Z"/><path class="cls-6" d="M30.82,30.58a.86.86,0,1,0,.86.86.86.86,0,0,0-.86-.86Z"/><path class="cls-6" d="M36,30.58a.86.86,0,1,0,.86.86.86.86,0,0,0-.86-.86Z"/><circle class="cls-7" cx="29.67" cy="33.74" r="0.86"/><circle class="cls-7" cx="37.14" cy="33.74" r="0.86"/><path class="cls-2" d="M31.68,35.8a3.1,3.1,0,0,0,3.45,0"/><path class="cls-5" d="M33.41,21.38a7.47,7.47,0,0,0-7.48,7.47V30.5a1.16,1.16,0,0,0,.87,1.12c.12,0,.75.19.86.19a.58.58,0,0,0,.57-.57V28.92c0-1.08.66-2.71,1.74-2.71a1.3,1.3,0,0,1,.66.19,5.64,5.64,0,0,0,5.55,0,1.32,1.32,0,0,1,.66-.19c1.08,0,1.74,1.63,1.74,2.71v2.32a.58.58,0,0,0,.58.57c.11,0,.73-.17.85-.19a1.16,1.16,0,0,0,.87-1.12V28.85A7.47,7.47,0,0,0,33.41,21.38Z"/><path class="cls-2" d="M33.41,21.38a7.47,7.47,0,0,0-7.48,7.47V30.5a1.16,1.16,0,0,0,.87,1.12c.12,0,.75.19.86.19a.58.58,0,0,0,.57-.57V28.92c0-1.08.66-2.71,1.74-2.71a1.3,1.3,0,0,1,.66.19,5.64,5.64,0,0,0,5.55,0,1.32,1.32,0,0,1,.66-.19c1.08,0,1.74,1.63,1.74,2.71v2.32a.58.58,0,0,0,.58.57c.11,0,.73-.17.85-.19a1.16,1.16,0,0,0,.87-1.12V28.85A7.47,7.47,0,0,0,33.41,21.38Z"/><path class="cls-4" d="M40.79,27.7H26a7.44,7.44,0,0,1,1.09-2.89H39.7A7.44,7.44,0,0,1,40.79,27.7Z"/><path class="cls-4" d="M26,27.7s1,2.88,7.36,2.88,7.41-2.88,7.41-2.88Z"/></svg>