<svg id="Layer_1" data-name="Layer 1" xmlns="http://www.w3.org/2000/svg" viewBox="0 0 100 100"><defs><style>.cls-1{fill:#f0f2ff;}.cls-2{fill:none;}.cls-2,.cls-4,.cls-6{stroke:#4550e5;stroke-linecap:round;stroke-linejoin:round;}.cls-3{fill:#4550e5;}.cls-4,.cls-5{fill:#d6daff;}.cls-6,.cls-7{fill:#fff;}</style></defs><title>graduate-female</title><path class="cls-1" d="M90.5,54.35a40,40,0,1,0-76.44,16.5H86.94A39.85,39.85,0,0,0,90.5,54.35Z"/><line class="cls-2" x1="11" y1="70.85" x2="89" y2="70.85"/><line class="cls-2" x1="6.5" y1="70.85" x2="9" y2="70.85"/><line class="cls-2" x1="91" y1="70.85" x2="93.5" y2="70.85"/><path class="cls-2" d="M64,49.85v-1a2,2,0,0,1,.8-1.6l1.2-.9"/><path class="cls-3" d="M66,45.35a1,1,0,1,0,1,1,1,1,0,0,0-1-1Z"/><path class="cls-2" d="M75,49.85v-1a2,2,0,0,0-.8-1.6l-1.2-.9"/><path class="cls-3" d="M73,45.35a1,1,0,1,0,1,1,1,1,0,0,0-1-1Z"/><path class="cls-4" d="M76,68.85H63a1,1,0,0,0-1,1v1H77v-1A1,1,0,0,0,76,68.85Z"/><rect class="cls-5" x="62" y="49.85" width="15" height="9" rx="1" ry="1"/><rect class="cls-2" x="62" y="49.85" width="15" height="9" rx="1" ry="1"/><rect class="cls-5" x="64" y="58.85" width="11" height="10"/><rect class="cls-2" x="64" y="58.85" width="11" height="10"/><circle class="cls-6" cx="69.5" cy="54.35" r="3"/><rect class="cls-7" x="66" y="58.85" width="7" height="10"/><rect class="cls-2" x="66" y="58.85" width="7" height="10"/><path class="cls-2" d="M68.44,53.29a1.49,1.49,0,0,1,2.12,0"/><path class="cls-2" d="M70.56,55.41a1.49,1.49,0,0,1-2.12,0"/><path class="cls-1" d="M52.89,83.92c0,1-5.15,1.73-11.5,1.73s-11.5-.77-11.5-1.73S35,82.2,41.39,82.2,52.89,83,52.89,83.92Z"/><path class="cls-7" d="M39.18,47.1a5.43,5.43,0,0,0,2.21.49,5.52,5.52,0,0,0,2.22-.49,2.41,2.41,0,0,0,1.92,1.18c1.53,0,2.76-1.86,2.76-4.14,0-.24,0-.47,0-.7h0A2.27,2.27,0,0,0,50.36,41a2.57,2.57,0,0,0-.74-1.84c1.21-.43,2.12-2.07,2.12-4a5.09,5.09,0,0,0-1-3.19,2.67,2.67,0,0,0,.33-1.3A2.26,2.26,0,0,0,49,28.27a1.33,1.33,0,0,0-.28,0c-1.4-4.13-4.14-6.93-7.31-6.93s-5.9,2.8-7.3,6.93a1.36,1.36,0,0,0-.29,0,2.26,2.26,0,0,0-2.07,2.41,2.78,2.78,0,0,0,.33,1.3,5.15,5.15,0,0,0-1,3.19c0,1.95.91,3.59,2.13,4A2.58,2.58,0,0,0,32.42,41a2.27,2.27,0,0,0,2.07,2.42h0a5.36,5.36,0,0,0,0,.7c0,2.28,1.24,4.14,2.76,4.14A2.42,2.42,0,0,0,39.18,47.1Z"/><path class="cls-2" d="M39.18,47.1a5.43,5.43,0,0,0,2.21.49,5.52,5.52,0,0,0,2.22-.49,2.41,2.41,0,0,0,1.92,1.18c1.53,0,2.76-1.86,2.76-4.14,0-.24,0-.47,0-.7h0A2.27,2.27,0,0,0,50.36,41a2.57,2.57,0,0,0-.74-1.84c1.21-.43,2.12-2.07,2.12-4a5.09,5.09,0,0,0-1-3.19,2.67,2.67,0,0,0,.33-1.3A2.26,2.26,0,0,0,49,28.27a1.33,1.33,0,0,0-.28,0c-1.4-4.13-4.14-6.93-7.31-6.93s-5.9,2.8-7.3,6.93a1.36,1.36,0,0,0-.29,0,2.26,2.26,0,0,0-2.07,2.41,2.78,2.78,0,0,0,.33,1.3,5.15,5.15,0,0,0-1,3.19c0,1.95.91,3.59,2.13,4A2.58,2.58,0,0,0,32.42,41a2.27,2.27,0,0,0,2.07,2.42h0a5.36,5.36,0,0,0,0,.7c0,2.28,1.24,4.14,2.76,4.14A2.42,2.42,0,0,0,39.18,47.1Z"/><path class="cls-6" d="M34.49,31a6.9,6.9,0,0,0,13.8,0V28.27a6.9,6.9,0,0,0-13.8,0Z"/><circle class="cls-5" cx="37.25" cy="31.72" r="0.69"/><circle class="cls-5" cx="45.53" cy="31.72" r="0.69"/><path class="cls-2" d="M39.67,33.85a3.1,3.1,0,0,0,3.45,0"/><path class="cls-2" d="M37.94,29.93a1,1,0,0,1,1.38,0"/><path class="cls-2" d="M43.46,29.93a1,1,0,0,1,1.38,0"/><path class="cls-4" d="M45.11,20.68H37.68a2.76,2.76,0,0,0-2.75,2.48l-.44,4.42,2.25-1.13a1.39,1.39,0,0,1,1.06-.07L41,27.43a1.44,1.44,0,0,0,.87,0L45,26.38a1.36,1.36,0,0,1,1,.07l2.25,1.13-.44-4.42A2.75,2.75,0,0,0,45.11,20.68Z"/><line class="cls-2" x1="29.66" y1="20.68" x2="53.12" y2="20.68"/><path class="cls-4" d="M42.77,20A1.38,1.38,0,0,0,40,20v.69h2.76Z"/><polygon class="cls-6" points="41.39 82.08 45.53 82.08 46.22 71.05 41.39 71.05 41.39 82.08"/><polygon class="cls-2" points="41.39 82.08 45.53 82.08 46.22 71.05 41.39 71.05 41.39 82.08"/><polygon class="cls-6" points="41.39 82.08 37.25 82.08 36.56 71.05 41.39 71.05 41.39 82.08"/><polygon class="cls-2" points="41.39 82.08 37.25 82.08 36.56 71.05 41.39 71.05 41.39 82.08"/><line class="cls-2" x1="41.39" y1="71.05" x2="41.39" y2="82.09"/><path class="cls-4" d="M36.64,82.78a1.16,1.16,0,0,1-1-1.73,3.43,3.43,0,0,1,3-1.72,2.75,2.75,0,0,1,2.76,2.76.69.69,0,0,1-.69.69Z"/><path class="cls-4" d="M46.15,82.78a1.16,1.16,0,0,0,1-1.73,3.44,3.44,0,0,0-3-1.72,2.76,2.76,0,0,0-2.76,2.76.69.69,0,0,0,.69.69Z"/><path class="cls-6" d="M51.74,50.35a10.35,10.35,0,1,0-20.7,0v3.79H47.6v8.63h4.14Z"/><line class="cls-2" x1="35.18" y1="62.08" x2="35.18" y2="48.28"/><line class="cls-2" x1="47.6" y1="62.08" x2="47.6" y2="48.28"/><line class="cls-2" x1="41.4" y1="42.76" x2="41.39" y2="49.47"/><path class="cls-6" d="M39.11,44.28l2.28-1.52h0L38,40.57a10,10,0,0,0-2.08,1Z"/><path class="cls-6" d="M43.67,44.28l-2.28-1.52h0l3.41-2.18a10,10,0,0,1,2.08,1Z"/><path class="cls-6" d="M47.6,64.84a2.07,2.07,0,1,0,4.14,0V62.77H47.6Z"/><path class="cls-6" d="M35.18,52.3v1.3A6.2,6.2,0,0,1,29,59.81c-3.08,0-4.44-1.87-6.63-4.07a2.07,2.07,0,0,1,2.92-2.93C27,54.59,27.64,55.64,29,55.64a2,2,0,0,0,2.07-2c0-.43,0-1.3,0-1.3Z"/><path class="cls-6" d="M25.26,52.81C27,54.59,27.64,55.64,29,55.64a2,2,0,0,0,2.07-2c0-.43,0-1.3,0-1.3h4.13v1.3A6.2,6.2,0,0,1,29,59.81c-3.08,0-4.44-1.87-6.63-4.07Z"/><path class="cls-7" d="M33.39,42.75a11,11,0,0,0-3,7.6v2.07h0V53.6A1.33,1.33,0,0,1,29,55c-.57,0-1-.29-1.67-1L25,59.18a6.44,6.44,0,0,0,4,1.32,6.88,6.88,0,0,0,6.21-4v16.8a1.16,1.16,0,0,0,1.15,1.15h5.06v-25Z"/><path class="cls-2" d="M33.39,42.75a11,11,0,0,0-3,7.6v2.07h0V53.6A1.33,1.33,0,0,1,29,55c-.57,0-1-.29-1.67-1L25,59.18a6.44,6.44,0,0,0,4,1.32,6.88,6.88,0,0,0,6.21-4v16.8a1.16,1.16,0,0,0,1.15,1.15h5.06v-25Z"/><path class="cls-7" d="M49.4,42.75l-8,6.72v25h5.06a1.15,1.15,0,0,0,1.15-1.15V60h3.68a1.15,1.15,0,0,0,1.15-1.15V50.35A11,11,0,0,0,49.4,42.75Z"/><path class="cls-2" d="M49.4,42.75l-8,6.72v25h5.06a1.15,1.15,0,0,0,1.15-1.15V60h3.68a1.15,1.15,0,0,0,1.15-1.15V50.35A11,11,0,0,0,49.4,42.75Z"/><line class="cls-2" x1="35.18" y1="48.28" x2="35.18" y2="56.56"/><line class="cls-2" x1="47.6" y1="48.28" x2="47.6" y2="60.01"/><path class="cls-5" d="M41.39,49.47l-8-6.72a11,11,0,0,0-3,7.6H52.43a11,11,0,0,0-3-7.6Z"/><path class="cls-2" d="M41.39,49.47l-8-6.72a11,11,0,0,0-3,7.6H52.43a11,11,0,0,0-3-7.6Z"/><path class="cls-7" d="M33.39,42.75l8,6.72,8-6.72a11.34,11.34,0,0,0-1.21-1.09,1.15,1.15,0,0,0-1.45,0l-5.35,4.53-5.34-4.53a1.15,1.15,0,0,0-1.45,0A11.34,11.34,0,0,0,33.39,42.75Z"/><path class="cls-2" d="M33.39,42.75l8,6.72,8-6.72a11.34,11.34,0,0,0-1.21-1.09,1.15,1.15,0,0,0-1.45,0l-5.35,4.53-5.34-4.53a1.15,1.15,0,0,0-1.45,0A11.34,11.34,0,0,0,33.39,42.75Z"/><path class="cls-6" d="M23.45,59.46a1.38,1.38,0,0,1-1.85,1L20.18,60a1.39,1.39,0,0,1-.69-2l3.15-5.18,1.11-6a1.38,1.38,0,0,1,1.85-1l1.42.54a1.37,1.37,0,0,1,.69,2l-3.14,5.19Z"/><path class="cls-6" d="M23.9,50.74a2.59,2.59,0,0,1,2,3.37,2.71,2.71,0,0,1-3.12,1.68l-.66-.12a1.73,1.73,0,0,1-1.37-2L21,52a1.72,1.72,0,0,1,2-1.4Z"/></svg>