<svg id="Layer_1" data-name="Layer 1" xmlns="http://www.w3.org/2000/svg" viewBox="0 0 100 100"><defs><style>.cls-1{fill:#f0f2ff;}.cls-2{fill:none;}.cls-2,.cls-4,.cls-6{stroke:#4550e5;stroke-linecap:round;stroke-linejoin:round;}.cls-3,.cls-4{fill:#fff;}.cls-5,.cls-6{fill:#d6daff;}</style></defs><title>gym</title><path class="cls-1" d="M90,61.75a40,40,0,1,0-76.44,16.5H86.44A39.85,39.85,0,0,0,90,61.75Z"/><line class="cls-2" x1="11" y1="78.25" x2="89" y2="78.25"/><line class="cls-2" x1="6.5" y1="78.25" x2="9" y2="78.25"/><line class="cls-2" x1="91" y1="78.25" x2="93.5" y2="78.25"/><path class="cls-3" d="M62.7,35H81.1a1,1,0,0,1,1,1v42.2a0,0,0,0,1,0,0H61.7a0,0,0,0,1,0,0V36A1,1,0,0,1,62.7,35Z"/><path class="cls-2" d="M62.7,35H81.1a1,1,0,0,1,1,1v42.2a0,0,0,0,1,0,0H61.7a0,0,0,0,1,0,0V36A1,1,0,0,1,62.7,35Z"/><rect class="cls-4" x="22.1" y="46.45" width="39.6" height="2.4"/><rect class="cls-4" x="22.1" y="53.05" width="39.6" height="2.4"/><polygon class="cls-5" points="50.3 55.45 33.5 55.45 22.1 55.45 22.1 78.25 33.5 78.25 50.3 78.25 61.7 78.25 61.7 55.45 50.3 55.45"/><polygon class="cls-3" points="53.75 55.45 22.1 55.45 22.1 78.25 30.95 78.25 53.75 55.45"/><path class="cls-6" d="M29.9,75.85H25.7a1.2,1.2,0,0,0-1.2,1.2h0a1.2,1.2,0,0,0,1.2,1.2h4.2a1.2,1.2,0,0,0,1.2-1.2h0A1.2,1.2,0,0,0,29.9,75.85Z"/><path class="cls-2" d="M24.5,77.05V71.24a1.9,1.9,0,0,1,.56-1.35l1.24-1.24h3l1.24,1.24a1.9,1.9,0,0,1,.56,1.35v5.81"/><path class="cls-6" d="M27.3,66.25h1a1,1,0,0,1,1,1v1.4a0,0,0,0,1,0,0h-3a0,0,0,0,1,0,0v-1.4A1,1,0,0,1,27.3,66.25Z"/><path class="cls-6" d="M44,77.05a1.2,1.2,0,0,0-1.2-1.2H38.6a1.2,1.2,0,0,0-1.2,1.2h0a1.2,1.2,0,0,0,1.2,1.2h4.2a1.2,1.2,0,0,0,1.2-1.2Z"/><path class="cls-2" d="M37.4,77.05V71.24A1.9,1.9,0,0,1,38,69.89l1.24-1.24h3l1.24,1.24A1.9,1.9,0,0,1,44,71.24v5.81"/><path class="cls-6" d="M40.2,66.25h1a1,1,0,0,1,1,1v1.4a0,0,0,0,1,0,0h-3a0,0,0,0,1,0,0v-1.4A1,1,0,0,1,40.2,66.25Z"/><path class="cls-6" d="M56.9,77.05a1.2,1.2,0,0,0-1.2-1.2H51.5a1.2,1.2,0,0,0-1.2,1.2h0a1.2,1.2,0,0,0,1.2,1.2h4.2a1.2,1.2,0,0,0,1.2-1.2Z"/><path class="cls-2" d="M50.3,77.05V71.24a1.9,1.9,0,0,1,.56-1.35l1.24-1.24h3l1.24,1.24a1.9,1.9,0,0,1,.56,1.35v5.81"/><path class="cls-6" d="M53.1,66.25h1a1,1,0,0,1,1,1v1.4a0,0,0,0,1,0,0h-3a0,0,0,0,1,0,0v-1.4A1,1,0,0,1,53.1,66.25Z"/><polygon class="cls-2" points="50.3 55.45 33.5 55.45 22.1 55.45 22.1 78.25 33.5 78.25 50.3 78.25 61.7 78.25 61.7 55.45 50.3 55.45"/><path class="cls-3" d="M60.3,60.25H83.5a1,1,0,0,1,1,1v17a0,0,0,0,1,0,0H59.3a0,0,0,0,1,0,0v-17A1,1,0,0,1,60.3,60.25Z"/><path class="cls-2" d="M60.3,60.25H83.5a1,1,0,0,1,1,1v17a0,0,0,0,1,0,0H59.3a0,0,0,0,1,0,0v-17A1,1,0,0,1,60.3,60.25Z"/><path class="cls-3" d="M19.5,44h1.6a1,1,0,0,1,1,1v33.2a0,0,0,0,1,0,0H18.5a0,0,0,0,1,0,0V45A1,1,0,0,1,19.5,44Z"/><path class="cls-2" d="M19.5,44h1.6a1,1,0,0,1,1,1v33.2a0,0,0,0,1,0,0H18.5a0,0,0,0,1,0,0V45A1,1,0,0,1,19.5,44Z"/><rect class="cls-6" x="22.1" y="48.85" width="39.6" height="4.2"/><rect class="cls-5" x="62.9" y="64.45" width="18" height="13.8"/><polygon class="cls-3" points="70.74 64.45 62.9 64.45 62.9 72.29 70.74 64.45"/><rect class="cls-2" x="62.9" y="64.45" width="18" height="13.8"/><rect class="cls-2" x="68.3" y="69.85" width="3.6" height="8.4"/><rect class="cls-5" x="71.9" y="69.85" width="3.6" height="8.4"/><rect class="cls-6" x="71.9" y="69.85" width="3.6" height="8.4"/><circle class="cls-3" cx="71.9" cy="45.85" r="7.2"/><circle class="cls-2" cx="71.9" cy="45.85" r="7.2"/><rect class="cls-6" x="68.15" y="46" width="2.4" height="4.8" rx="0.6" ry="0.6" transform="translate(-13.91 63.22) rotate(-45)"/><rect class="cls-6" x="73.25" y="40.9" width="2.4" height="4.8" rx="0.6" ry="0.6" transform="translate(-8.82 65.32) rotate(-45)"/><rect class="cls-6" x="70.7" y="43.45" width="2.4" height="4.8" transform="translate(53.48 -37.41) rotate(45)"/><line class="cls-2" x1="68.3" y1="69.85" x2="68.3" y2="64.45"/><line class="cls-2" x1="75.5" y1="69.85" x2="75.5" y2="64.45"/><line class="cls-2" x1="75.5" y1="74.05" x2="80.9" y2="74.05"/><line class="cls-2" x1="68.3" y1="74.05" x2="62.9" y2="74.05"/><line class="cls-2" x1="33.5" y1="55.45" x2="33.5" y2="78.25"/><line class="cls-2" x1="50.3" y1="55.45" x2="50.3" y2="78.25"/><line class="cls-2" x1="22.1" y1="60.85" x2="59.3" y2="60.85"/><line class="cls-2" x1="22.1" y1="72.85" x2="59.3" y2="72.85"/></svg>