<svg id="Layer_1" data-name="Layer 1" xmlns="http://www.w3.org/2000/svg" viewBox="0 0 100 100"><defs><style>.cls-1{fill:#f0f2ff;}.cls-2{fill:none;}.cls-2,.cls-3,.cls-6{stroke:#4550e5;stroke-linecap:round;stroke-linejoin:round;}.cls-3,.cls-4{fill:#d6daff;}.cls-5,.cls-6{fill:#fff;}.cls-7{fill:#4550e5;}</style></defs><title>hippie-male</title><path class="cls-1" d="M90,53.75a40,40,0,1,0-76.44,16.5H86.44A39.85,39.85,0,0,0,90,53.75Z"/><line class="cls-2" x1="11" y1="70.25" x2="89" y2="70.25"/><line class="cls-2" x1="6.5" y1="70.25" x2="9" y2="70.25"/><line class="cls-2" x1="91" y1="70.25" x2="93.5" y2="70.25"/><path class="cls-3" d="M57,38.25h7a2,2,0,0,1,2,2v2.5a0,0,0,0,1,0,0H55a0,0,0,0,1,0,0v-2.5A2,2,0,0,1,57,38.25Z"/><path class="cls-3" d="M52,37.75h1a2,2,0,0,1,2,2v3a0,0,0,0,1,0,0H50a0,0,0,0,1,0,0v-3A2,2,0,0,1,52,37.75Z"/><circle class="cls-4" cx="49.5" cy="66.25" r="4"/><circle class="cls-2" cx="49.5" cy="66.25" r="4"/><circle class="cls-5" cx="49.5" cy="66.25" r="2"/><circle class="cls-2" cx="49.5" cy="66.25" r="2"/><path class="cls-5" d="M80,45.75H38.71a15.12,15.12,0,0,0-1.21,5.5v4.5H77a8.5,8.5,0,0,1,8.5,8.5h0v-9C85.5,53.41,82.71,48.93,80,45.75Z"/><path class="cls-2" d="M80,45.75c2.67,3.18,5.46,7.66,5.46,9.5v9a8.5,8.5,0,0,0-8.5-8.5H37.5v-4.5a15.12,15.12,0,0,1,1.21-5.5Z"/><path class="cls-4" d="M77.5,66.25,75.4,62a3.24,3.24,0,0,0-2.9-1.79h-4A3.22,3.22,0,0,0,65.61,62L63.5,66.25Z"/><path class="cls-2" d="M77.5,66.25,75.4,62a3.24,3.24,0,0,0-2.9-1.79h-4A3.22,3.22,0,0,0,65.61,62L63.5,66.25Z"/><circle class="cls-4" cx="70.5" cy="66.25" r="4"/><circle class="cls-2" cx="70.5" cy="66.25" r="4"/><circle class="cls-5" cx="70.5" cy="66.25" r="2"/><circle class="cls-2" cx="70.5" cy="66.25" r="2"/><path class="cls-4" d="M77.5,66.25,75.39,62a3.23,3.23,0,0,0-2.87-1.77h-4A3.21,3.21,0,0,0,65.62,62L63.5,66.25h-10l-1.4-.93a3.5,3.5,0,0,0-1.91-.57H48.81a3.5,3.5,0,0,0-1.91.57l-1.4.93h-8V55.75H77a8.5,8.5,0,0,1,8.5,8.5v2Z"/><path class="cls-2" d="M77.5,66.25,75.39,62a3.23,3.23,0,0,0-2.87-1.77h-4A3.21,3.21,0,0,0,65.62,62L63.5,66.25h-10l-1.4-.93a3.5,3.5,0,0,0-1.91-.57H48.81a3.5,3.5,0,0,0-1.91.57l-1.4.93h-8V55.75H77a8.5,8.5,0,0,1,8.5,8.5v2Z"/><path class="cls-5" d="M37.5,64.25h5a1,1,0,0,1,0,2h-5a1,1,0,0,1,0-2Z"/><path class="cls-2" d="M37.5,64.25h5a1,1,0,0,1,0,2h-5a1,1,0,0,1,0-2Z"/><path class="cls-5" d="M80.5,64.25h5a1,1,0,0,1,0,2h-5a1,1,0,0,1,0-2Z"/><path class="cls-2" d="M80.5,64.25h5a1,1,0,0,1,0,2h-5a1,1,0,0,1,0-2Z"/><path class="cls-5" d="M85.5,61.75h1a1,1,0,0,0,1-1v-1a1,1,0,0,0-1-1h-1Z"/><path class="cls-2" d="M85.5,61.75h1a1,1,0,0,0,1-1v-1a1,1,0,0,0-1-1h-1Z"/><path class="cls-6" d="M78.94,44.48,80,45.75H38.71c.79-2,2.29-3.5,9.29-3.5S77,42.23,78.94,44.48Z"/><path class="cls-4" d="M85.14,53.75H77a1,1,0,0,1-1-1v-4a1,1,0,0,1,1-1h4.6A28.91,28.91,0,0,1,85.14,53.75Z"/><path class="cls-5" d="M81.5,47.75H77a1,1,0,0,0-1,1v4a1.12,1.12,0,0,0,.09.41Z"/><rect class="cls-4" x="61" y="47.75" width="13" height="6" rx="1" ry="1"/><path class="cls-5" d="M62,53.75h2.5l6-6H62a1,1,0,0,0-1,1v4A1,1,0,0,0,62,53.75Z"/><line class="cls-6" x1="44.5" y1="47.75" x2="41" y2="47.75"/><line class="cls-6" x1="44" y1="49.75" x2="40.5" y2="49.75"/><line class="cls-6" x1="43.5" y1="51.75" x2="40" y2="51.75"/><line class="cls-6" x1="43" y1="53.75" x2="39.5" y2="53.75"/><path class="cls-4" d="M58,47.75a1,1,0,0,1,1,1v4a1,1,0,0,1-1,1H47a.7.7,0,0,1-.58-.3.69.69,0,0,1-.1-.65l1.36-4.1a1.64,1.64,0,0,1,.82-1Z"/><path class="cls-5" d="M46.32,52.8a.69.69,0,0,0,.1.65.7.7,0,0,0,.58.3h2.5l6-6h-7a1.64,1.64,0,0,0-.82,1Z"/><path class="cls-2" d="M58,47.75a1,1,0,0,1,1,1v4a1,1,0,0,1-1,1H47a.7.7,0,0,1-.58-.3.69.69,0,0,1-.1-.65l1.36-4.1a1.64,1.64,0,0,1,.82-1Z"/><rect class="cls-2" x="61" y="47.75" width="13" height="6" rx="1" ry="1"/><path class="cls-2" d="M85.14,53.75H77a1,1,0,0,1-1-1v-4a1,1,0,0,1,1-1h4.6A28.91,28.91,0,0,1,85.14,53.75Z"/><path class="cls-5" d="M35.5,60.75a1.5,1.5,0,0,0,1.5,1.5h.5v-4.5H37A1.45,1.45,0,0,0,35.5,59.2v1.55Z"/><path class="cls-2" d="M35.5,60.75a1.5,1.5,0,0,0,1.5,1.5h.5v-4.5H37A1.45,1.45,0,0,0,35.5,59.2v1.55Z"/><circle class="cls-6" cx="58" cy="61.25" r="1.5"/><ellipse class="cls-6" cx="58" cy="58" rx="1" ry="1.75"/><path class="cls-6" d="M56.41,58.24c.68.69.92,1.56.53,1.95s-1.26.15-1.94-.53-.92-1.56-.53-1.95S55.73,57.56,56.41,58.24Z"/><ellipse class="cls-6" cx="54.75" cy="61.25" rx="1.75" ry="1"/><path class="cls-6" d="M55,62.84c.68-.68,1.55-.92,1.94-.53s.15,1.26-.53,2-1.55.92-1.94.53S54.31,63.52,55,62.84Z"/><ellipse class="cls-6" cx="58" cy="64.5" rx="1" ry="1.75"/><path class="cls-6" d="M59.59,64.26c-.68-.69-.92-1.56-.53-2s1.26-.15,1.95.53.92,1.56.53,2S60.28,64.94,59.59,64.26Z"/><ellipse class="cls-6" cx="61.25" cy="61.25" rx="1.75" ry="1"/><path class="cls-6" d="M61,59.66c-.69.68-1.56.92-1.95.53s-.15-1.26.53-1.95,1.56-.92,1.95-.53S61.69,59,61,59.66Z"/><path class="cls-6" d="M61,42.75a1,1,0,0,1-2,0v-4.5a1,1,0,0,1,2,0Z"/><path class="cls-6" d="M82,60.3a3,3,0,1,1-2.4-3.5A3,3,0,0,1,82,60.3Z"/><line class="cls-2" x1="79.55" y1="56.8" x2="78.45" y2="62.7"/><polyline class="cls-2" points="80.98 62.01 79.09 59.26 76.34 61.14"/><path class="cls-3" d="M30.3,28.18A2.34,2.34,0,0,1,29,27.8s-2.19,12.45-1.61,15.9,2.87,4,4,3.45-1.12-19-1.12-19Z"/><circle class="cls-3" cx="30.3" cy="25.88" r="2.3"/><path class="cls-5" d="M48.13,44.85a2.25,2.25,0,0,0,1-.23,1.16,1.16,0,0,0,.27-1.87,3,3,0,0,1-.71-1.92V29.9a9.2,9.2,0,0,0-18.4,0V40.83a3,3,0,0,1-.7,1.92,1.11,1.11,0,0,0-.36,1,1.14,1.14,0,0,0,.63.87,2.21,2.21,0,0,0,1,.23Z"/><path class="cls-2" d="M48.13,44.85a2.25,2.25,0,0,0,1-.23,1.16,1.16,0,0,0,.27-1.87,3,3,0,0,1-.71-1.92V29.9a9.2,9.2,0,0,0-18.4,0V40.83a3,3,0,0,1-.7,1.92,1.11,1.11,0,0,0-.36,1,1.14,1.14,0,0,0,.63.87,2.21,2.21,0,0,0,1,.23Z"/><path class="cls-6" d="M46.4,30.82V29.9a6.74,6.74,0,0,0-.4-2.3H33a7,7,0,0,0-.4,2.3v.92a1.41,1.41,0,0,0,.15,2.79,6.9,6.9,0,0,0,13.51,0,1.41,1.41,0,0,0,.14-2.79Z"/><path class="cls-7" d="M36.91,29.9a.87.87,0,1,0,.87.86.87.87,0,0,0-.87-.86Z"/><path class="cls-7" d="M42.09,29.9a.87.87,0,1,0,.86.86.86.86,0,0,0-.86-.86Z"/><circle class="cls-4" cx="35.76" cy="33.06" r="0.86"/><circle class="cls-4" cx="43.24" cy="33.06" r="0.86"/><path class="cls-2" d="M37.78,35.13a3.13,3.13,0,0,0,3.45,0"/><path class="cls-3" d="M30.37,28.75H48.63a9.27,9.27,0,0,0-1.16-3.45H31.53A9.27,9.27,0,0,0,30.37,28.75Z"/><path class="cls-4" d="M38.35,31.63a2.3,2.3,0,1,1-2.3-2.3A2.3,2.3,0,0,1,38.35,31.63Z"/><path class="cls-5" d="M34.43,33.25A2.3,2.3,0,0,1,37.68,30Z"/><circle class="cls-4" cx="42.95" cy="31.63" r="2.3"/><path class="cls-5" d="M41.33,33.25A2.3,2.3,0,0,1,44.58,30Z"/><path class="cls-2" d="M38.35,31.63a1.15,1.15,0,0,1,2.3,0"/><path class="cls-2" d="M38.35,31.63a2.3,2.3,0,1,1-2.3-2.3A2.3,2.3,0,0,1,38.35,31.63Z"/><circle class="cls-2" cx="42.95" cy="31.63" r="2.3"/><ellipse class="cls-1" cx="39.5" cy="84.52" rx="14.95" ry="1.73"/><path class="cls-5" d="M32,79.35v2a2.63,2.63,0,0,0,5.25.08l.07-2.05Z"/><path class="cls-2" d="M32,79.35v2a2.63,2.63,0,0,0,5.25.08l.07-2.05Z"/><path class="cls-5" d="M47,79.35v2a2.63,2.63,0,0,1-5.26.08l-.07-2.05Z"/><path class="cls-2" d="M47,79.35v2a2.63,2.63,0,0,1-5.26.08l-.07-2.05Z"/><path class="cls-5" d="M47,62.68,49.1,78A1.16,1.16,0,0,1,48,79.35h-6.3l-.31-9.71a1.85,1.85,0,0,0-3.69,0l-.31,9.71h-6.3A1.15,1.15,0,0,1,29.91,78L32,62.68Z"/><path class="cls-5" d="M29.91,78a1.15,1.15,0,0,0,1.14,1.31h6.3l.14-4.6H30.36Z"/><path class="cls-5" d="M41.66,79.35H48A1.16,1.16,0,0,0,49.1,78l-.46-3.29H41.51Z"/><polygon class="cls-4" points="41.4 71.3 41.51 74.75 48.64 74.75 48.17 71.3 41.4 71.3"/><polygon class="cls-4" points="30.84 71.3 30.36 74.75 37.49 74.75 37.6 71.3 30.84 71.3"/><path class="cls-2" d="M47,62.68,49.1,78A1.16,1.16,0,0,1,48,79.35h-6.3l-.31-9.71a1.85,1.85,0,0,0-3.69,0l-.31,9.71h-6.3A1.15,1.15,0,0,1,29.91,78L32,62.68Z"/><line class="cls-2" x1="48.17" y1="71.3" x2="41.4" y2="71.3"/><line class="cls-2" x1="41.51" y1="74.75" x2="48.64" y2="74.75"/><line class="cls-2" x1="37.6" y1="71.3" x2="30.84" y2="71.3"/><line class="cls-2" x1="30.36" y1="74.75" x2="37.49" y2="74.75"/><path class="cls-5" d="M47,63.83V62.68H32v1.15H28V52.9a11.5,11.5,0,0,1,23,0V63.83Z"/><path class="cls-4" d="M46.87,44.07a11.51,11.51,0,0,0-14.74,0c2.6,4.94,5.54,10.52,6.77,12.87a.68.68,0,0,0,1.2,0Z"/><path class="cls-2" d="M46.87,44.07a11.51,11.51,0,0,0-14.74,0c2.6,4.94,5.54,10.52,6.77,12.87a.68.68,0,0,0,1.2,0Z"/><path class="cls-5" d="M46.39,43.71a11.43,11.43,0,0,0-13.78,0L39,52.17a.67.67,0,0,0,1.09,0Z"/><path class="cls-2" d="M32.61,43.71,39,52.17a.67.67,0,0,0,1.09,0l6.34-8.46"/><path class="cls-2" d="M47,63.83V62.68H32v1.15H28V52.9a11.5,11.5,0,0,1,23,0V63.83Z"/><path class="cls-6" d="M42.54,41.81a11.32,11.32,0,0,0-3-.41,11.75,11.75,0,0,0-3.27.47l2.63,5.63a.68.68,0,0,0,1.24,0Z"/><line class="cls-2" x1="46.98" y1="50.6" x2="46.98" y2="62.68"/><line class="cls-2" x1="32.03" y1="50.6" x2="32.03" y2="62.68"/><path class="cls-6" d="M28,65.84a2,2,0,0,0,4,0v-2H28Z"/><path class="cls-6" d="M47,65.84a2,2,0,0,0,4,0v-2H47Z"/><rect class="cls-6" x="28" y="61.53" width="4.02" height="2.3"/><rect class="cls-3" x="28" y="59.23" width="4.02" height="2.3"/><rect class="cls-6" x="46.98" y="61.53" width="4.02" height="2.3"/><rect class="cls-3" x="46.98" y="59.23" width="4.02" height="2.3"/><path class="cls-6" d="M46.4,28.75V41.4a3,3,0,0,0,.71,1.92,1.17,1.17,0,0,1-.27,1.88,2.39,2.39,0,0,1-1,.23A1.69,1.69,0,0,1,44.1,43.7v-15Z"/><path class="cls-6" d="M32.6,28.75V39.68a3,3,0,0,1-.7,1.92,1.11,1.11,0,0,0-.36,1,1.14,1.14,0,0,0,.63.87,2.21,2.21,0,0,0,1,.23A1.68,1.68,0,0,0,34.9,42V28.75Z"/></svg>