<svg id="Layer_1" data-name="Layer 1" xmlns="http://www.w3.org/2000/svg" viewBox="0 0 100 100"><defs><style>.cls-1{fill:#f0f2ff;}.cls-2{fill:none;}.cls-2,.cls-4,.cls-6{stroke:#4550e5;stroke-linecap:round;stroke-linejoin:round;}.cls-3,.cls-6{fill:#d6daff;}.cls-4{fill:#fff;}.cls-5{fill:#4550e5;}</style></defs><title>huligans-gang</title><path class="cls-1" d="M86.39,54.32A40,40,0,1,0,10,70.82H82.82A39.73,39.73,0,0,0,86.39,54.32Z"/><line class="cls-2" x1="7.39" y1="70.82" x2="85.39" y2="70.82"/><line class="cls-2" x1="2.89" y1="70.82" x2="5.39" y2="70.82"/><line class="cls-2" x1="87.39" y1="70.82" x2="89.89" y2="70.82"/><ellipse class="cls-1" cx="47.93" cy="84.99" rx="32.46" ry="1.5"/><path class="cls-3" d="M74.54,82.63a2.94,2.94,0,0,1,2.07-.84h.5a3,3,0,0,1,2,.77V66.29h-13V82.56a3,3,0,0,1,2-.77h.5a3,3,0,0,1,2.08.84l.37-10.34a1.56,1.56,0,0,1,3.11,0Z"/><path class="cls-4" d="M79.61,39.79a1.23,1.23,0,0,0-1-1.2v-.8a6,6,0,0,0-12,0v.8A1.23,1.23,0,0,0,66.74,41a6,6,0,0,0,11.75,0A1.25,1.25,0,0,0,79.61,39.79Z"/><path class="cls-5" d="M70.36,37.79a.75.75,0,0,0,0,1.5.75.75,0,0,0,0-1.5Z"/><path class="cls-5" d="M74.86,37.79a.75.75,0,0,0,0,1.5.75.75,0,0,0,0-1.5Z"/><circle class="cls-3" cx="69.36" cy="40.54" r="0.75"/><circle class="cls-3" cx="75.86" cy="40.54" r="0.75"/><path class="cls-4" d="M78.84,84.79a1,1,0,0,0,.9-1.45,3,3,0,0,0-2.63-1.55h-.5A3,3,0,0,0,74,83.34a1,1,0,0,0,.89,1.45Z"/><path class="cls-2" d="M74.54,82.63a2.94,2.94,0,0,1,2.07-.84h.5a3,3,0,0,1,2,.77V66.29h-13V82.56a3,3,0,0,1,2-.77h.5a3,3,0,0,1,2.08.84l.37-10.34a1.56,1.56,0,0,1,3.11,0Z"/><path class="cls-4" d="M70.34,84.79a1,1,0,0,0,.9-1.45,3,3,0,0,0-2.63-1.55h-.5a3,3,0,0,0-2.63,1.55,1,1,0,0,0,.9,1.45Z"/><path class="cls-4" d="M66.11,66.29h-4v2.5a2,2,0,0,0,4,0Z"/><path class="cls-4" d="M68.3,45.72a6.12,6.12,0,0,0,.86,2.41l.12.2c.93,1.4,1.9,2.59,2.56,3.42a1,1,0,0,0,1.54,0c.66-.83,1.63-2,2.56-3.42l.13-.2a6.11,6.11,0,0,0,.85-2.41,22,22,0,0,0,.19-2.93V41l-3.46-.86a4.07,4.07,0,0,0-2.08,0L68.11,41v1.8A22,22,0,0,0,68.3,45.72Z"/><path class="cls-2" d="M68.15,44.12s1,1.67,4.46,1.17"/><path class="cls-2" d="M76.37,47.25s-1.05,1-3.76,1"/><path class="cls-2" d="M73.11,43.29s2.5,0,3.5-1"/><path class="cls-3" d="M62.11,66.29h17v-13c1.71.45,10-2.82,10-10.5v-.5a2,2,0,0,0-4,0v.5a6,6,0,0,1-6,6h-.92a27.33,27.33,0,0,0,1.42-8.69V36.79a7,7,0,0,0-14,0V40.1a27.42,27.42,0,0,0,1.59,9.19l-.07.05a9.85,9.85,0,0,0-2,1.62,10.41,10.41,0,0,0-3,7.33v8Zm15-23.5a22,22,0,0,1-.19,2.93,6.11,6.11,0,0,1-.85,2.41l-.13.2c-.93,1.4-1.9,2.59-2.56,3.42a1,1,0,0,1-1.54,0c-.66-.83-1.63-2-2.56-3.42l-.12-.2a6.12,6.12,0,0,1-.86-2.41,22,22,0,0,1-.19-2.93V39.48a4.63,4.63,0,0,1,4.07-4.67,4.5,4.5,0,0,1,4.93,4.48Z"/><path class="cls-2" d="M62.11,66.29h17v-13c1.71.45,10-2.82,10-10.5v-.5a2,2,0,0,0-4,0v.5a6,6,0,0,1-6,6h-.92a27.33,27.33,0,0,0,1.42-8.69V36.79a7,7,0,0,0-14,0V40.1a27.42,27.42,0,0,0,1.59,9.19l-.07.05a9.85,9.85,0,0,0-2,1.62,10.41,10.41,0,0,0-3,7.33v8Zm15-23.5a22,22,0,0,1-.19,2.93,6.11,6.11,0,0,1-.85,2.41l-.13.2c-.93,1.4-1.9,2.59-2.56,3.42a1,1,0,0,1-1.54,0c-.66-.83-1.63-2-2.56-3.42l-.12-.2a6.12,6.12,0,0,1-.86-2.41,22,22,0,0,1-.19-2.93V39.48a4.63,4.63,0,0,1,4.07-4.67,4.5,4.5,0,0,1,4.93,4.48Z"/><line class="cls-2" x1="66.11" y1="56.29" x2="66.11" y2="66.29"/><path class="cls-4" d="M84.62,49.19l-1.8-.88,9.74-23.06A2.39,2.39,0,0,1,93.91,24a2.37,2.37,0,0,1,2.9,3.37Z"/><path class="cls-4" d="M86,48.73a1,1,0,0,1-1.33.46l-1.8-.88a1,1,0,0,1,.88-1.8l1.79.88A1,1,0,0,1,86,48.73Z"/><path class="cls-4" d="M88,40.34a1.74,1.74,0,0,0-2.51.9,1.8,1.8,0,0,0,.84,2.17l.57.34a1,1,0,0,0,1.38-.38l.73-1.3a1,1,0,0,0-.36-1.36Z"/><path class="cls-4" d="M61.14,39.82a1.76,1.76,0,0,1,1.75,1.75v2a7.76,7.76,0,0,1-7.75,7.75H52.89v15h-13V50.22a10,10,0,0,1,6.5-2.4h8.75a4.26,4.26,0,0,0,4.25-4.25v-2A1.76,1.76,0,0,1,61.14,39.82Z"/><path class="cls-4" d="M52.62,84.82a1,1,0,0,0,.9-1.45,3,3,0,0,0-2.63-1.55h-.5a3,3,0,0,0-2.63,1.55,1,1,0,0,0,.9,1.45Z"/><path class="cls-4" d="M53.39,39.82a1.24,1.24,0,0,0-1-1.2v-.8a6,6,0,0,0-12,0v.8A1.22,1.22,0,0,0,40.51,41a6,6,0,0,0,11.75,0A1.24,1.24,0,0,0,53.39,39.82Z"/><path class="cls-5" d="M44.14,37.82a.75.75,0,0,0,0,1.5.75.75,0,0,0,0-1.5Z"/><path class="cls-5" d="M48.64,37.82a.75.75,0,0,0,0,1.5.75.75,0,0,0,0-1.5Z"/><circle class="cls-3" cx="43.14" cy="40.57" r="0.75"/><circle class="cls-3" cx="49.64" cy="40.57" r="0.75"/><path class="cls-2" d="M44.89,42.36a2.69,2.69,0,0,0,3,0"/><path class="cls-3" d="M48.31,82.66a3,3,0,0,1,2.08-.84h.5a3,3,0,0,1,2,.77V66.32h-13V82.59a3,3,0,0,1,2-.77h.5a3,3,0,0,1,2.08.84l.36-10.34a1.56,1.56,0,0,1,3.11,0Z"/><path class="cls-4" d="M44.12,84.82A1,1,0,0,0,45,83.37a3,3,0,0,0-2.62-1.55h-.5a3,3,0,0,0-2.63,1.55,1,1,0,0,0,.9,1.45Z"/><path class="cls-4" d="M52.89,47.82v18.5h-13V50.22a10,10,0,0,1,3.54-1.95,3,3,0,0,0,6-.45Z"/><path class="cls-6" d="M40.39,41.32c0,4,3.57,8.38,5.22,10.45a1,1,0,0,0,1.56,0c1.64-2.07,5.22-6.42,5.22-10.45l-5-1.26a4,4,0,0,0-1.94,0Z"/><path class="cls-4" d="M46.39,30.82a7,7,0,0,0-7,7v1.5l.21-.11a1,1,0,0,1,.73-.39,5.12,5.12,0,0,0,2.25-2.35,2,2,0,0,1,1.81-1.15h4a2,2,0,0,1,1.78,1.09,7.08,7.08,0,0,0,1.74,2.18l.3.25a.55.55,0,0,1,.18,0,1,1,0,0,1,1,1v-2A7,7,0,0,0,46.39,30.82Z"/><path class="cls-2" d="M40.62,43.19a6.84,6.84,0,0,0,5.77,2.13"/><path class="cls-2" d="M50.58,47a6.5,6.5,0,0,1-4.19,1.36"/><path class="cls-2" d="M46.89,43.32s2.5,0,3.5-1"/><path class="cls-2" d="M48.31,82.66a3,3,0,0,1,2.08-.84h.5a3,3,0,0,1,2,.77V66.32h-13V82.59a3,3,0,0,1,2-.77h.5a3,3,0,0,1,2.08.84l.36-10.34a1.56,1.56,0,0,1,3.11,0Z"/><path class="cls-4" d="M41.48,67a5.31,5.31,0,0,1-1.59-3.77v-13a10,10,0,0,0-3.5,7.6v5.39a8.46,8.46,0,0,0,2.71,6.2,1,1,0,0,0,1.39,0l1-1A1,1,0,0,0,41.48,67Z"/><path class="cls-6" d="M58.19,31.63l-1.84.78,6,14.08a1,1,0,1,0,1.84-.79Z"/><rect class="cls-3" x="43.63" y="16.35" width="20.96" height="16.3" rx="2" ry="2" transform="translate(-5.28 23.21) rotate(-23.11)"/><rect class="cls-2" x="43.63" y="16.35" width="20.96" height="16.3" rx="2" ry="2" transform="translate(-5.28 23.21) rotate(-23.11)"/><path class="cls-4" d="M58.17,22.14a4.67,4.67,0,0,0-6.53-2.26,4.79,4.79,0,0,0-2,6.1l.39.93a1,1,0,0,0,.74.59l1.54.29.75,1.76a1,1,0,0,0,1.31.52l3.52-1.5a1,1,0,0,0,.52-1.31L57.7,25.5l.86-1.31a1,1,0,0,0,.08-.94Z"/><path class="cls-5" d="M52.05,23.54a.58.58,0,1,0,0,1.16.44.44,0,0,0,.22-.05.58.58,0,0,0-.22-1.11Z"/><path class="cls-5" d="M55.26,22.16a.64.64,0,0,0-.23.05.59.59,0,0,0-.31.76.58.58,0,0,0,.54.36.64.64,0,0,0,.23,0,.59.59,0,0,0,.31-.76.6.6,0,0,0-.54-.36Z"/><line class="cls-2" x1="54.34" y1="25.04" x2="54.57" y2="25.57"/><line class="cls-2" x1="54.41" y1="28.17" x2="55.1" y2="29.78"/><line class="cls-2" x1="56.55" y1="27.26" x2="57.24" y2="28.87"/><path class="cls-4" d="M60.54,38.92a1.75,1.75,0,0,0-.93,2.51,1.8,1.8,0,0,0,2.2.75l.63-.22a1,1,0,0,0,.6-1.29l-.52-1.41a1,1,0,0,0-1.28-.59Z"/><path class="cls-3" d="M30.06,50.22a10,10,0,0,0-6.5-2.4H15.31A4.25,4.25,0,0,1,12.76,47l-1.93,2.92a7.69,7.69,0,0,0,4.48,1.43h1.75v15h13v-6.5h3.5v-2A10,10,0,0,0,30.06,50.22Z"/><path class="cls-2" d="M30.06,50.22a10,10,0,0,0-6.5-2.4H15.31A4.25,4.25,0,0,1,12.76,47l-1.93,2.92a7.69,7.69,0,0,0,4.48,1.43h1.75v15h13v-6.5h3.5v-2A10,10,0,0,0,30.06,50.22Z"/><path class="cls-3" d="M30.56,37.82a7,7,0,0,0-14,0v1a7,7,0,0,0,14,0Z"/><path class="cls-2" d="M30.56,37.82a7,7,0,0,0-14,0v1a7,7,0,0,0,14,0Z"/><path class="cls-4" d="M29.79,84.82a1,1,0,0,0,.89-1.45,3,3,0,0,0-2.62-1.55h-.5a3,3,0,0,0-2.63,1.55,1,1,0,0,0,.9,1.45Z"/><path class="cls-3" d="M25.48,82.65a3,3,0,0,1,2.08-.83h.5a3,3,0,0,1,2,.76V66.32h-13V82.58a3,3,0,0,1,2-.76h.5a3,3,0,0,1,2.08.84L22,72.32a1.56,1.56,0,0,1,3.11,0Z"/><path class="cls-4" d="M21.28,84.82a1,1,0,0,0,.9-1.45,3,3,0,0,0-2.63-1.55h-.5a3,3,0,0,0-2.62,1.55,1,1,0,0,0,.89,1.45Z"/><path class="cls-2" d="M25.48,82.65a3,3,0,0,1,2.08-.83h.5a3,3,0,0,1,2,.76V66.32h-13V82.58a3,3,0,0,1,2-.76h.5a3,3,0,0,1,2.08.84L22,72.32a1.56,1.56,0,0,1,3.11,0Z"/><ellipse class="cls-4" cx="23.56" cy="38.57" rx="7" ry="2.25"/><path class="cls-5" d="M21.3,37.82a.75.75,0,1,0,.75.75.75.75,0,0,0-.75-.75Z"/><path class="cls-5" d="M25.8,37.82a.75.75,0,1,0,.75.75.75.75,0,0,0-.75-.75Z"/><path class="cls-4" d="M31.81,70.82a1.76,1.76,0,0,0,1.75-1.75V59.82h-3.5v9.25A1.75,1.75,0,0,0,31.81,70.82Z"/><path class="cls-4" d="M11.06,43.57v-2a1.93,1.93,0,0,0-.08-.49s0,0,0,0l0-.11v-.07a1.19,1.19,0,0,0,0-.53,1.64,1.64,0,0,0-.91-1.28l-.27-.13-.62-.23a1,1,0,0,0-1.29.59l-.52,1.39h0a1,1,0,0,0,.13.93l0,.19v1.77a7.75,7.75,0,0,0,3.27,6.32L12.77,47A4.22,4.22,0,0,1,11.06,43.57Z"/><path class="cls-4" d="M23.56,50.82a3,3,0,0,0,3-2.55,10,10,0,0,0-3-.45h-3A3,3,0,0,0,23.56,50.82Z"/><line class="cls-2" x1="30.06" y1="59.82" x2="30.06" y2="56.32"/><path class="cls-4" d="M16.86,26a3,3,0,0,1-4.18,1.81,3.11,3.11,0,0,1-1.44-3.91,5.47,5.47,0,0,1,3.9-3.52.5.5,0,0,1,.45.87A4.33,4.33,0,0,0,13.81,24c.52.51,1.17.39,1.91-.19a.48.48,0,0,1,.69.1A2.29,2.29,0,0,1,16.86,26Z"/><path class="cls-6" d="M13.11,28a2.76,2.76,0,0,1-.9-.47l-6,19.28A1,1,0,0,0,6.89,48h0a1,1,0,0,0,1.25-.66l6-19.28A2.67,2.67,0,0,1,13.11,28Z"/><path class="cls-4" d="M8.68,42.22A1.75,1.75,0,0,0,11,40.93a1.82,1.82,0,0,0-1.18-2l-.62-.24a1,1,0,0,0-1.3.59L7.4,40.68A1,1,0,0,0,8,42Z"/><rect class="cls-6" x="28.56" y="73.32" width="2.5" height="4" rx="1" ry="1"/><rect class="cls-6" x="16.06" y="73.32" width="2.5" height="4" rx="1" ry="1"/></svg>