<svg id="Layer_1" data-name="Layer 1" xmlns="http://www.w3.org/2000/svg" viewBox="0 0 100 100"><defs><style>.cls-1{fill:#f0f2ff;}.cls-2,.cls-5{fill:#fff;}.cls-3,.cls-7,.cls-8{fill:none;}.cls-3,.cls-5,.cls-6,.cls-7{stroke:#4550e5;}.cls-3,.cls-5,.cls-6{stroke-linecap:round;stroke-linejoin:round;}.cls-4,.cls-6{fill:#d6daff;}.cls-7{stroke-miterlimit:10;}</style></defs><title>hospital</title><circle class="cls-1" cx="49.5" cy="50.5" r="40"/><path class="cls-2" d="M86,67H13.05A40.11,40.11,0,0,0,24.22,81.5h0a40,40,0,0,0,50.56,0h0A40.11,40.11,0,0,0,86,67Z"/><line class="cls-3" x1="10.5" y1="67" x2="88.5" y2="67"/><line class="cls-3" x1="6" y1="67" x2="8.5" y2="67"/><line class="cls-3" x1="90.5" y1="67" x2="93" y2="67"/><path class="cls-2" d="M33.23,27.1h9.45a0,0,0,0,1,0,0v4.77a1,1,0,0,1-1,1H33.23a0,0,0,0,1,0,0V27.1A0,0,0,0,1,33.23,27.1Z" transform="translate(75.9 59.98) rotate(180)"/><rect class="cls-2" x="33.23" y="35.5" width="9.45" height="31.5"/><polygon class="cls-4" points="75.75 18.18 37.95 18.18 34.27 27.1 79.42 27.1 75.75 18.18"/><polygon class="cls-3" points="75.75 18.18 37.95 18.18 34.27 27.1 79.42 27.1 75.75 18.18"/><path class="cls-2" d="M71,32.88H42.67V27.1l12.88-11a2,2,0,0,1,2.6,0L71,27.1Z"/><path class="cls-3" d="M71,32.88H42.67V27.1l12.88-11a2,2,0,0,1,2.6,0L71,27.1Z"/><rect class="cls-2" x="42.67" y="54.4" width="28.35" height="12.6"/><rect class="cls-3" x="42.67" y="54.4" width="28.35" height="12.6"/><rect class="cls-2" x="42.67" y="32.88" width="28.35" height="21.52"/><rect class="cls-3" x="42.67" y="32.88" width="28.35" height="21.52"/><rect class="cls-5" x="42.67" y="54.4" width="28.35" height="2.63"/><path class="cls-2" d="M56.85,21.33a6.3,6.3,0,0,0-6.3,6.29v5.26h12.6V27.62A6.3,6.3,0,0,0,56.85,21.33Z"/><path class="cls-3" d="M56.85,21.33a6.3,6.3,0,0,0-6.3,6.29v5.26h12.6V27.62A6.3,6.3,0,0,0,56.85,21.33Z"/><path class="cls-3" d="M34.23,27.1h8.45a0,0,0,0,1,0,0V67a0,0,0,0,1,0,0H33.23a0,0,0,0,1,0,0V28.1a1,1,0,0,1,1-1Z"/><rect class="cls-5" x="33.23" y="54.4" width="9.45" height="2.63"/><rect class="cls-5" x="42.67" y="32.88" width="28.35" height="2.63"/><rect class="cls-5" x="33.23" y="32.88" width="9.45" height="2.63"/><path class="cls-6" d="M38,29.2h0a1,1,0,0,0-1.05,1.05v2.63H39V30.25A1,1,0,0,0,38,29.2Z"/><path class="cls-6" d="M46.35,29.2h0a1,1,0,0,0-1.05,1.05v2.63h2.1V30.25A1,1,0,0,0,46.35,29.2Z"/><path class="cls-6" d="M67.35,29.2h0a1,1,0,0,0-1,1.05v2.63h2.1V30.25A1,1,0,0,0,67.35,29.2Z"/><rect class="cls-6" x="36.9" y="37.6" width="2.1" height="4.2"/><rect class="cls-6" x="36.9" y="43.9" width="2.1" height="4.2"/><rect class="cls-6" x="36.9" y="50.2" width="2.1" height="4.2"/><rect class="cls-6" x="36.9" y="59.13" width="2.1" height="4.2"/><rect class="cls-2" x="71.02" y="35.5" width="9.45" height="31.5"/><path class="cls-2" d="M71,27.1h8.45a1,1,0,0,1,1,1v4.77a0,0,0,0,1,0,0H71a0,0,0,0,1,0,0V27.1A0,0,0,0,1,71,27.1Z"/><path class="cls-3" d="M71,27.1h8.45a1,1,0,0,1,1,1V67a0,0,0,0,1,0,0H71a0,0,0,0,1,0,0V27.1A0,0,0,0,1,71,27.1Z"/><rect class="cls-5" x="71.02" y="54.4" width="9.45" height="2.63"/><rect class="cls-5" x="71.02" y="32.88" width="9.45" height="2.63"/><path class="cls-6" d="M75.75,29.2h0a1,1,0,0,0-1,1.05v2.63h2.1V30.25A1,1,0,0,0,75.75,29.2Z"/><rect class="cls-6" x="74.7" y="37.6" width="2.1" height="4.2"/><rect class="cls-6" x="74.7" y="43.9" width="2.1" height="4.2"/><rect class="cls-6" x="74.7" y="50.2" width="2.1" height="4.2"/><rect class="cls-6" x="74.7" y="59.13" width="2.1" height="4.2"/><rect class="cls-6" x="45.3" y="37.6" width="2.1" height="4.2"/><rect class="cls-6" x="45.3" y="43.9" width="2.1" height="4.2"/><rect class="cls-6" x="45.3" y="50.2" width="2.1" height="4.2"/><rect class="cls-6" x="66.3" y="37.6" width="2.1" height="4.2"/><rect class="cls-6" x="66.3" y="43.9" width="2.1" height="4.2"/><rect class="cls-6" x="58.42" y="38.65" width="2.1" height="4.2"/><rect class="cls-6" x="58.42" y="44.95" width="2.1" height="4.2"/><rect class="cls-6" x="53.17" y="38.65" width="2.1" height="4.2"/><rect class="cls-6" x="53.17" y="44.95" width="2.1" height="4.2"/><rect class="cls-6" x="66.3" y="50.2" width="2.1" height="4.2"/><rect class="cls-5" x="37.95" y="15.02" width="3.67" height="3.15"/><path class="cls-5" d="M41.62,15H38l-.37-.53a1,1,0,0,1,.83-1.57h2.74A1,1,0,0,1,42,14.47Z"/><rect class="cls-5" x="72.08" y="15.02" width="3.67" height="3.15"/><path class="cls-5" d="M75.75,15H72.08l-.38-.5a1,1,0,0,1,.8-1.6h2.74a1,1,0,0,1,.86,1.52Z"/><line class="cls-3" x1="50.55" y1="35.5" x2="50.55" y2="49.15"/><line class="cls-3" x1="63.15" y1="35.5" x2="63.15" y2="49.15"/><rect class="cls-5" x="51.08" y="54.4" width="11.55" height="12.6"/><rect class="cls-2" x="51.08" y="57.02" width="2.1" height="9.98"/><rect class="cls-3" x="51.08" y="57.02" width="2.1" height="9.98"/><rect class="cls-2" x="60.52" y="57.02" width="2.1" height="9.98"/><rect class="cls-5" x="60.52" y="57.02" width="2.1" height="9.98"/><rect class="cls-4" x="53.17" y="57.02" width="7.35" height="9.98"/><polygon class="cls-2" points="59.48 57.02 53.17 57.02 53.17 67 55.4 67 59.48 57.02"/><rect class="cls-3" x="56.85" y="57.02" width="3.67" height="9.98"/><line class="cls-3" x1="42.67" y1="54.4" x2="32.23" y2="54.4"/><line class="cls-3" x1="42.67" y1="32.88" x2="32.23" y2="32.88"/><line class="cls-3" x1="81.48" y1="54.4" x2="71.02" y2="54.4"/><line class="cls-3" x1="81.48" y1="32.88" x2="71.02" y2="32.88"/><rect class="cls-3" x="53.17" y="57.02" width="3.68" height="9.98"/><path class="cls-1" d="M50,78.79c0,1-5.71,1.74-12.75,1.74S24.5,79.75,24.5,78.79s5.71-1.74,12.75-1.74S50,77.83,50,78.79Z"/><path class="cls-5" d="M48.84,77.63H46V59.68a1.59,1.59,0,0,1,2.83,0Z"/><rect class="cls-4" x="29.03" y="60.82" width="16.98" height="16.81"/><rect class="cls-3" x="29.03" y="60.82" width="16.98" height="16.81"/><path class="cls-5" d="M46.38,59.62h2.1a2.14,2.14,0,0,0,1.11-1.87,2.17,2.17,0,1,0-4.33,0A2.13,2.13,0,0,0,46.38,59.62Z"/><path class="cls-5" d="M29.05,77.63H26.22V59.68a1.59,1.59,0,0,1,2.83,0Z"/><path class="cls-5" d="M26.58,59.62h2.1a2.16,2.16,0,1,0-2.1,0Z"/><path class="cls-2" d="M37.47,63.4a.36.36,0,0,0-.44,0,8.68,8.68,0,0,1-4,1.67.37.37,0,0,0-.32.36v3.2a7.11,7.11,0,0,0,4.43,6.59.34.34,0,0,0,.28,0,7.11,7.11,0,0,0,4.43-6.59v-3.2a.37.37,0,0,0-.32-.36A8.68,8.68,0,0,1,37.47,63.4Z"/><path class="cls-7" d="M37.47,63.4a.36.36,0,0,0-.44,0,8.68,8.68,0,0,1-4,1.67.37.37,0,0,0-.32.36v3.2a7.11,7.11,0,0,0,4.43,6.59.34.34,0,0,0,.28,0,7.11,7.11,0,0,0,4.43-6.59v-3.2a.37.37,0,0,0-.32-.36A8.68,8.68,0,0,1,37.47,63.4Z"/><path class="cls-4" d="M37.65,63.52l-5,5v.14A6.91,6.91,0,0,0,33.12,71l6.47-6.48A9,9,0,0,1,37.65,63.52Z"/><path class="cls-4" d="M41.82,65.44,34.23,73a7,7,0,0,0,1.54,1.44l6-6Z"/><path class="cls-8" d="M37.47,63.4a.36.36,0,0,0-.44,0,8.68,8.68,0,0,1-4,1.67.37.37,0,0,0-.32.36v3.2a7.11,7.11,0,0,0,4.43,6.59.34.34,0,0,0,.28,0,7.11,7.11,0,0,0,4.43-6.59v-3.2a.37.37,0,0,0-.32-.36A8.68,8.68,0,0,1,37.47,63.4Z"/><path class="cls-7" d="M37.47,63.4a.36.36,0,0,0-.44,0,8.68,8.68,0,0,1-4,1.67.37.37,0,0,0-.32.36v3.2a7.11,7.11,0,0,0,4.43,6.59.34.34,0,0,0,.28,0,7.11,7.11,0,0,0,4.43-6.59v-3.2a.37.37,0,0,0-.32-.36A8.68,8.68,0,0,1,37.47,63.4Z"/></svg>