<svg id="Layer_1" data-name="Layer 1" xmlns="http://www.w3.org/2000/svg" viewBox="0 0 100 100"><defs><style>.cls-1{fill:#f0f2ff;}.cls-2{fill:none;stroke:#4550e5;stroke-linecap:round;stroke-linejoin:round;}.cls-3{fill:#fff;}.cls-4{fill:#d6daff;}</style></defs><title>ipod</title><path class="cls-1" d="M90,53.19a40,40,0,1,0-76.44,16.5H86.44A39.92,39.92,0,0,0,90,53.19Z"/><line class="cls-2" x1="11" y1="69.69" x2="89" y2="69.69"/><line class="cls-2" x1="6.5" y1="69.69" x2="9" y2="69.69"/><line class="cls-2" x1="91" y1="69.69" x2="93.5" y2="69.69"/><ellipse class="cls-1" cx="49.06" cy="85.72" rx="19.32" ry="1.73"/><rect class="cls-3" x="34.57" y="38.7" width="28.98" height="45.54" rx="2" ry="2"/><path class="cls-3" d="M58,71.13a9,9,0,1,1-9-9A9,9,0,0,1,58,71.13Z"/><circle class="cls-4" cx="49.06" cy="71.13" r="3.45"/><rect class="cls-2" x="34.57" y="38.7" width="28.98" height="45.54" rx="2" ry="2"/><path class="cls-2" d="M58,71.13a9,9,0,1,1-9-9A9,9,0,0,1,58,71.13Z"/><circle class="cls-2" cx="49.06" cy="71.13" r="3.45"/><rect class="cls-4" x="38.71" y="42.84" width="20.7" height="15.18" rx="1" ry="1"/><path class="cls-3" d="M38.71,56.46,52.34,42.84H39.86A1.15,1.15,0,0,0,38.71,44Z"/><path class="cls-3" d="M48,47a.68.68,0,0,0-.69,0,.7.7,0,0,0-.35.6v5.84a.69.69,0,0,0,.36.6.7.7,0,0,0,.7,0l4.86-3a.69.69,0,0,0,0-1.18Z"/><rect class="cls-2" x="38.71" y="42.84" width="20.7" height="15.18" rx="1" ry="1"/><path class="cls-2" d="M48,47a.68.68,0,0,0-.69,0,.7.7,0,0,0-.35.6v5.84a.69.69,0,0,0,.36.6.7.7,0,0,0,.7,0l4.86-3a.69.69,0,0,0,0-1.18Z"/><g id="_Group_" data-name="&lt;Group&gt;"><path class="cls-2" d="M46.06,28.64a2.58,2.58,0,1,1-2.58-2.58A2.57,2.57,0,0,1,46.06,28.64Z"/><path class="cls-2" d="M58.94,26.06a2.58,2.58,0,1,1-2.58-2.57A2.58,2.58,0,0,1,58.94,26.06Z"/><path class="cls-2" d="M46.06,28.64V18a1.38,1.38,0,0,1,.87-1.28l10.12-4a1.36,1.36,0,0,1,1.28.14,1.38,1.38,0,0,1,.61,1.14V26.06"/></g><g id="_Group_2" data-name="&lt;Group&gt;"><path class="cls-2" d="M24.31,47a2.16,2.16,0,1,1-2.15-2.16A2.15,2.15,0,0,1,24.31,47Z"/><polyline class="cls-2" points="24.31 47 24.31 37.29 27.55 39.45"/></g><g id="_Group_3" data-name="&lt;Group&gt;"><path class="cls-2" d="M73.8,47.08a1.38,1.38,0,1,1-1.38-1.38A1.38,1.38,0,0,1,73.8,47.08Z"/><polyline class="cls-2" points="73.8 47.08 73.8 40.87 75.87 42.25"/></g><line class="cls-2" x1="75.18" y1="57.09" x2="75.18" y2="56.05"/><line class="cls-2" x1="77.37" y1="58" x2="78.11" y2="57.27"/><line class="cls-2" x1="78.28" y1="60.19" x2="79.32" y2="60.19"/><line class="cls-2" x1="77.37" y1="62.39" x2="78.11" y2="63.12"/><line class="cls-2" x1="75.18" y1="63.3" x2="75.18" y2="64.33"/><line class="cls-2" x1="72.98" y1="62.39" x2="72.25" y2="63.12"/><line class="cls-2" x1="72.07" y1="60.19" x2="71.04" y2="60.19"/><line class="cls-2" x1="72.98" y1="58" x2="72.25" y2="57.27"/><line class="cls-2" x1="68.28" y1="31.21" x2="68.28" y2="28.45"/><line class="cls-2" x1="66.9" y1="29.83" x2="69.66" y2="29.83"/><line class="cls-2" x1="30.33" y1="31.21" x2="30.33" y2="25.69"/><line class="cls-2" x1="27.57" y1="28.45" x2="33.09" y2="28.45"/><line class="cls-2" x1="21.46" y1="60.88" x2="21.46" y2="58.12"/><line class="cls-2" x1="20.08" y1="59.5" x2="22.84" y2="59.5"/></svg>