<svg id="Layer_1" data-name="Layer 1" xmlns="http://www.w3.org/2000/svg" viewBox="0 0 100 100"><defs><style>.cls-1{fill:#f0f2ff;}.cls-2,.cls-7{fill:none;}.cls-2,.cls-4,.cls-6,.cls-7{stroke:#4550e5;stroke-linejoin:round;}.cls-2,.cls-4,.cls-6{stroke-linecap:round;}.cls-3,.cls-4{fill:#fff;}.cls-5,.cls-6{fill:#d6daff;}</style></defs><title>lab-scientist</title><path class="cls-1" d="M90,56.23a40,40,0,1,0-76.44,16.5H86.44A39.85,39.85,0,0,0,90,56.23Z"/><line class="cls-2" x1="11" y1="72.73" x2="89" y2="72.73"/><line class="cls-2" x1="6.5" y1="72.73" x2="9" y2="72.73"/><line class="cls-2" x1="91" y1="72.73" x2="93.5" y2="72.73"/><path class="cls-3" d="M84,72.23H80.91A2.92,2.92,0,0,1,78,69.32V65.23a15.5,15.5,0,1,0-31,0v7.5H72.68a8.92,8.92,0,0,0,8.23,5.5H84Z"/><path class="cls-2" d="M84,72.23H80.91A2.92,2.92,0,0,1,78,69.32V65.23a15.5,15.5,0,1,0-31,0v7.5H72.68a8.92,8.92,0,0,0,8.23,5.5H84Z"/><path class="cls-4" d="M72,55.23c0-1.41-3.5-6.5-6-6.5H59c-2.5,0-6,5.09-6,6.5l3,1-1.5,2.5,8,11.5,8-11.5L69,56.23Z"/><path class="cls-4" d="M66.66,51.61,66,48.73H59l-.67,2.88a13.27,13.27,0,0,0,.34,7.15L62.5,70.23l3.82-11.47A13.17,13.17,0,0,0,66.66,51.61Z"/><line class="cls-2" x1="62.5" y1="70.23" x2="62.5" y2="72.73"/><path class="cls-4" d="M62.5,55.73l4,2.5a13.14,13.14,0,0,0,.18-6.62L66,48.73C65.47,51.41,64.6,53.91,62.5,55.73Z"/><path class="cls-4" d="M59,46.73v2c.53,2.68,1.4,5.18,3.5,7,2.1-1.82,3-4.32,3.5-7v-2Z"/><path class="cls-2" d="M59,46.73v2c.53,2.68,1.4,5.18,3.5,7,2.1-1.82,3-4.32,3.5-7v-2Z"/><path class="cls-4" d="M72.5,36.23v-2.5a10,10,0,1,0-20,0v2.5a2,2,0,0,0,0,4h.12a10,10,0,0,0,19.75,0h.13a2,2,0,0,0,0-4Z"/><path class="cls-2" d="M59.48,43a4.38,4.38,0,0,0,6,0"/><circle class="cls-5" cx="56.75" cy="40.48" r="1.25"/><circle class="cls-5" cx="68.25" cy="40.48" r="1.25"/><line class="cls-2" x1="53" y1="63.73" x2="53" y2="72.73"/><path class="cls-3" d="M69.5,22.74c0-.88-1.55-2-3.5-2H59.5c-5.49,0-9.5,4.52-9.5,10a10.29,10.29,0,0,0,1.44,5.81,1.91,1.91,0,0,1,1.06-.31,2,2,0,0,1,1.5.69,24.21,24.21,0,0,0,.09-5.54,11.35,11.35,0,0,0,3.6.52c5,0,10.94-2.35,10.94-5.06a15.46,15.46,0,0,0,2.68,9.78,2,2,0,0,1,1.19-.39,2,2,0,0,1,1.3.49l.07,0C74.68,37.58,77.41,24.49,69.5,22.74Z"/><path class="cls-4" d="M62.5,55.73l4,2.5a13.14,13.14,0,0,0,.18-6.62L66,48.73C65.47,51.41,64.6,53.91,62.5,55.73Z"/><path class="cls-4" d="M62.5,55.73l-4,2.5a13.25,13.25,0,0,1-.18-6.62L59,48.73C59.53,51.41,60.4,53.91,62.5,55.73Z"/><path class="cls-4" d="M62.5,55.73l-4,2.5a13.25,13.25,0,0,1-.18-6.62L59,48.73C59.53,51.41,60.4,53.91,62.5,55.73Z"/><polygon class="cls-6" points="62.5 55.73 60.69 56.86 61.5 58.73 63.5 58.73 64.31 56.86 62.5 55.73"/><path class="cls-6" d="M63.5,58.73h-2a32.63,32.63,0,0,0-.83,6l1.83,5.5,1.83-5.5A32.63,32.63,0,0,0,63.5,58.73Z"/><path class="cls-7" d="M69.5,22.74c0-.88-1.55-2-3.5-2H59.5c-5.49,0-9.5,4.52-9.5,10a10.29,10.29,0,0,0,1.44,5.81,1.91,1.91,0,0,1,1.06-.31,2,2,0,0,1,1.5.69,24.21,24.21,0,0,0,.09-5.54,11.35,11.35,0,0,0,3.6.52c5,0,10.94-2.35,10.94-5.06a15.46,15.46,0,0,0,2.68,9.78,2,2,0,0,1,1.19-.39,2,2,0,0,1,1.3.49l.07,0C74.68,37.58,77.41,24.49,69.5,22.74Z"/><path class="cls-3" d="M62.5,34.23h-10v4c0,1.5,3.5,2.5,5.5,2.5a3.36,3.36,0,0,0,3.23-2.17,1.39,1.39,0,0,1,1.27-.83,1.38,1.38,0,0,1,1.26.83A3.36,3.36,0,0,0,67,40.73c2,0,5.5-1,5.5-2.5v-4Z"/><path class="cls-2" d="M68,37.23a1.63,1.63,0,0,0-3,0"/><path class="cls-2" d="M60,37.23a1.63,1.63,0,0,0-3,0"/><path class="cls-2" d="M62.5,34.23h-10v4c0,1.5,3.5,2.5,5.5,2.5a3.36,3.36,0,0,0,3.23-2.17,1.39,1.39,0,0,1,1.27-.83,1.38,1.38,0,0,1,1.26.83A3.36,3.36,0,0,0,67,40.73c2,0,5.5-1,5.5-2.5v-4Z"/><path class="cls-4" d="M74.81,34.23H72.5v2h1.84A9.24,9.24,0,0,0,74.81,34.23Z"/><path class="cls-4" d="M50.18,34.23H52.5v2H50.65A10.6,10.6,0,0,1,50.18,34.23Z"/><circle class="cls-6" cx="85" cy="63.73" r="1.5"/><circle class="cls-6" cx="89.5" cy="62.73" r="1"/><circle class="cls-6" cx="87" cy="56.23" r="1"/><path class="cls-4" d="M30.5,73.73a2,2,0,0,1-4,0V58.23a1,1,0,0,1,1-1h2a1,1,0,0,1,1,1Z"/><ellipse class="cls-1" cx="35.5" cy="79.23" rx="15" ry="1.5"/><path class="cls-4" d="M22.5,63.73H23a1,1,0,0,1,1,1v13.5a0,0,0,0,1,0,0H22.5a1,1,0,0,1-1-1V64.73A1,1,0,0,1,22.5,63.73Z"/><path class="cls-4" d="M48,63.73h.5a1,1,0,0,1,1,1v12.5a1,1,0,0,1-1,1H47a0,0,0,0,1,0,0V64.73A1,1,0,0,1,48,63.73Z"/><rect class="cls-6" x="24" y="75.73" width="23" height="2.5"/><path class="cls-6" d="M30.5,73.73a2,2,0,0,1-4,0V61.23h4Z"/><path class="cls-4" d="M37.5,73.73a2,2,0,0,1-4,0V58.23a1,1,0,0,1,1-1h2a1,1,0,0,1,1,1Z"/><path class="cls-6" d="M37.5,73.73a2,2,0,0,1-4,0V61.23h4Z"/><path class="cls-4" d="M44.5,73.73a2,2,0,0,1-4,0V58.23a1,1,0,0,1,1-1h2a1,1,0,0,1,1,1Z"/><path class="cls-6" d="M44.5,73.73a2,2,0,0,1-4,0V61.23h4Z"/><rect class="cls-4" x="24" y="66.23" width="23" height="2"/><path class="cls-2" d="M72,63.73v5.59a8.79,8.79,0,0,0,.68,3.41"/><path class="cls-3" d="M84.56,74.52,87,70.76a1,1,0,0,0-.28-1.39l-1.68-1.09a1,1,0,0,0-1.38.29l-2.47,3.77-6.36,4.51a2,2,0,0,0,.06,3.31l5,3.28A2,2,0,0,0,83,82.16Z"/><path class="cls-5" d="M74.15,77.73a2,2,0,0,0,.76,2.43l5,3.28A2,2,0,0,0,83,82.16l.92-4.43Z"/><path class="cls-2" d="M84.56,74.52,87,70.76a1,1,0,0,0-.28-1.39l-1.68-1.09a1,1,0,0,0-1.38.29l-2.47,3.77-6.36,4.51a2,2,0,0,0,.06,3.31l5,3.28A2,2,0,0,0,83,82.16Z"/><path class="cls-3" d="M84.1,79.34l-2.22-1a1.49,1.49,0,0,1-.75-2l1.23-2.73a1.5,1.5,0,0,1,2-.75l2.22,1a2,2,0,0,1,1.11,2.34,10.07,10.07,0,0,1-1.09,2.41A2,2,0,0,1,84.1,79.34Z"/><path class="cls-2" d="M84.1,79.34l-2.22-1a1.49,1.49,0,0,1-.75-2l1.23-2.73a1.5,1.5,0,0,1,2-.75l2.22,1a2,2,0,0,1,1.11,2.34,10.07,10.07,0,0,1-1.09,2.41A2,2,0,0,1,84.1,79.34Z"/></svg>