<svg id="Layer_1" data-name="Layer 1" xmlns="http://www.w3.org/2000/svg" viewBox="0 0 100 100"><defs><style>.cls-1{fill:#f0f2ff;}.cls-2,.cls-7{fill:none;}.cls-2,.cls-4,.cls-5,.cls-7{stroke:#4550e5;}.cls-2,.cls-4{stroke-linecap:round;}.cls-2,.cls-4,.cls-5{stroke-linejoin:round;}.cls-3,.cls-4{fill:#fff;}.cls-5,.cls-6{fill:#d6daff;}.cls-7{stroke-miterlimit:10;}</style></defs><title>lucky-cat-money</title><path class="cls-1" d="M90,58.1A40,40,0,1,0,13.56,74.6H86.43A39.86,39.86,0,0,0,90,58.1Z"/><line class="cls-2" x1="11" y1="74.6" x2="89" y2="74.6"/><line class="cls-2" x1="6.5" y1="74.6" x2="9" y2="74.6"/><line class="cls-2" x1="91" y1="74.6" x2="93.5" y2="74.6"/><ellipse class="cls-1" cx="38.54" cy="80.25" rx="9.07" ry="1.65"/><ellipse class="cls-1" cx="65.25" cy="79.15" rx="9.08" ry="1.65"/><path class="cls-3" d="M33.9,67.05V52.75a6.61,6.61,0,0,0-6.6,6.6v7.7Z"/><path class="cls-2" d="M33.9,67.05V52.75a6.61,6.61,0,0,0-6.6,6.6v7.7Z"/><path class="cls-3" d="M35,72.55H30.05A2.75,2.75,0,0,1,27.3,69.8V67.05H35Z"/><path class="cls-2" d="M35,72.55H30.05A2.75,2.75,0,0,1,27.3,69.8V67.05H35Z"/><path class="cls-3" d="M66.35,45.05,63.6,59.35h1.65a6.59,6.59,0,0,0,6.6-6.6v-7.7Z"/><path class="cls-2" d="M66.35,45.05,63.6,59.35h1.65a6.59,6.59,0,0,0,6.6-6.6v-7.7Z"/><path class="cls-4" d="M69.1,39.55H66.35a2.75,2.75,0,1,0,0,5.5h5.5V42.3A2.75,2.75,0,0,0,69.1,39.55Z"/><path class="cls-3" d="M65.42,55.23c-1.67-4.87-3.86-4.84-4.71-8.34l-.84-4.14c-1.06-6.63-6.5-7-11.12-7s-10,.42-11.11,7l-.85,4.14c-.85,3.5-3,3.47-4.71,8.34C29.62,62.36,30.75,76.4,42.4,76.4H55.1C66.75,76.4,67.88,62.36,65.42,55.23Z"/><path class="cls-2" d="M65.42,55.23c-1.67-4.87-3.86-4.84-4.71-8.34l-.84-4.14c-1.06-6.63-6.5-7-11.12-7s-10,.42-11.11,7l-.85,4.14c-.85,3.5-3,3.47-4.71,8.34C29.62,62.36,30.75,76.4,42.4,76.4H55.1C66.75,76.4,67.88,62.36,65.42,55.23Z"/><path class="cls-5" d="M59.4,69.68a1.51,1.51,0,0,0-2.46-.5,14.25,14.25,0,0,1-7.88,3.74A1.52,1.52,0,0,0,47.8,75L49,77.89a1.51,1.51,0,0,0,1.62.93,22.11,22.11,0,0,0,8.85-3.67A2.64,2.64,0,0,0,60.34,72Z"/><path class="cls-3" d="M55.4,74.4a1.13,1.13,0,1,1-1.13-1.12A1.14,1.14,0,0,1,55.4,74.4Z"/><path class="cls-3" d="M37.64,42.75c.87-5.47,4.72-6.71,8.64-7-1.28-1.44-4.62-4.73-7.35-3.62s-2.08,8.15-1.53,11.72Z"/><path class="cls-2" d="M37.64,42.75c.87-5.47,4.72-6.71,8.64-7-1.28-1.44-4.62-4.73-7.35-3.62s-2.08,8.15-1.53,11.72Z"/><path class="cls-3" d="M59.87,42.75c-.88-5.47-4.73-6.71-8.65-7,1.28-1.44,4.62-4.73,7.35-3.62s2.08,8.15,1.53,11.72Z"/><path class="cls-2" d="M59.87,42.75c-.88-5.47-4.73-6.71-8.65-7,1.28-1.44,4.62-4.73,7.35-3.62s2.08,8.15,1.53,11.72Z"/><polygon class="cls-2" points="48.75 44.73 47.43 43.41 50.07 43.41 48.75 44.73"/><line class="cls-2" x1="40.83" y1="43.41" x2="44.13" y2="44.07"/><line class="cls-2" x1="40.83" y1="47.37" x2="44.13" y2="46.71"/><path class="cls-2" d="M46.11,41.43a3.74,3.74,0,0,0-3.3-2"/><line class="cls-2" x1="56.67" y1="43.41" x2="53.37" y2="44.07"/><line class="cls-2" x1="56.67" y1="47.37" x2="53.37" y2="46.71"/><path class="cls-2" d="M51.39,41.43a3.74,3.74,0,0,1,3.3-2"/><path class="cls-6" d="M35.91,49c-.57.91-1.28,1.6-2,2.61,1.92.8,6.52,2.22,14.85,2.22s12.93-1.42,14.85-2.22c-.73-1-1.44-1.7-2-2.61a45.66,45.66,0,0,1-12.84,1.53A45.66,45.66,0,0,1,35.91,49Z"/><path class="cls-2" d="M35.91,49c-.57.91-1.28,1.6-2,2.61,1.92.8,6.52,2.22,14.85,2.22s12.93-1.42,14.85-2.22c-.73-1-1.44-1.7-2-2.61a45.66,45.66,0,0,1-12.84,1.53A45.66,45.66,0,0,1,35.91,49Z"/><circle class="cls-6" cx="48.75" cy="57.7" r="3.85"/><circle class="cls-7" cx="48.75" cy="57.7" r="3.85"/><line class="cls-2" x1="43.8" y1="57.7" x2="53.7" y2="57.7"/><path class="cls-3" d="M37.48,68.15H33.63a1.38,1.38,0,1,0,0,2.75h3.85a1.38,1.38,0,0,0,0-2.75Z"/><path class="cls-7" d="M37.48,68.15H33.63a1.38,1.38,0,1,0,0,2.75h3.85a1.38,1.38,0,0,0,0-2.75Z"/><path class="cls-3" d="M35.28,70.9H31.43a1.38,1.38,0,1,0,0,2.75h3.85a1.38,1.38,0,0,0,0-2.75Z"/><path class="cls-7" d="M35.28,70.9H31.43a1.38,1.38,0,1,0,0,2.75h3.85a1.38,1.38,0,0,0,0-2.75Z"/><path class="cls-3" d="M37.48,73.65H33.63a1.38,1.38,0,1,0,0,2.75h3.85a1.38,1.38,0,0,0,0-2.75Z"/><path class="cls-7" d="M37.48,73.65H33.63a1.38,1.38,0,1,0,0,2.75h3.85a1.38,1.38,0,0,0,0-2.75Z"/><path class="cls-3" d="M37.48,76.4H33.63a1.38,1.38,0,1,0,0,2.75h3.85a1.38,1.38,0,0,0,0-2.75Z"/><path class="cls-7" d="M37.48,76.4H33.63a1.38,1.38,0,1,0,0,2.75h3.85a1.38,1.38,0,0,0,0-2.75Z"/><path class="cls-3" d="M44.08,73.65H40.23a1.38,1.38,0,1,0,0,2.75h3.85a1.38,1.38,0,0,0,0-2.75Z"/><path class="cls-7" d="M44.08,73.65H40.23a1.38,1.38,0,1,0,0,2.75h3.85a1.38,1.38,0,0,0,0-2.75Z"/><path class="cls-3" d="M44.08,76.4H40.23a1.38,1.38,0,1,0,0,2.75h3.85a1.38,1.38,0,0,0,0-2.75Z"/><path class="cls-7" d="M44.08,76.4H40.23a1.38,1.38,0,1,0,0,2.75h3.85a1.38,1.38,0,0,0,0-2.75Z"/><path class="cls-3" d="M63.88,72.55H60a1.38,1.38,0,1,0,0,2.75h3.85a1.38,1.38,0,0,0,0-2.75Z"/><path class="cls-7" d="M63.88,72.55H60a1.38,1.38,0,1,0,0,2.75h3.85a1.38,1.38,0,0,0,0-2.75Z"/><path class="cls-3" d="M63.88,75.3H60a1.38,1.38,0,1,0,0,2.75h3.85a1.38,1.38,0,0,0,0-2.75Z"/><path class="cls-7" d="M63.88,75.3H60a1.38,1.38,0,1,0,0,2.75h3.85a1.38,1.38,0,0,0,0-2.75Z"/><path class="cls-3" d="M70.48,72.55H66.63a1.38,1.38,0,1,0,0,2.75h3.85a1.38,1.38,0,0,0,0-2.75Z"/><path class="cls-7" d="M70.48,72.55H66.63a1.38,1.38,0,1,0,0,2.75h3.85a1.38,1.38,0,0,0,0-2.75Z"/><path class="cls-3" d="M73.78,69.8H69.93a1.38,1.38,0,1,0,0,2.75h3.85a1.38,1.38,0,0,0,0-2.75Z"/><path class="cls-7" d="M73.78,69.8H69.93a1.38,1.38,0,1,0,0,2.75h3.85a1.38,1.38,0,0,0,0-2.75Z"/><path class="cls-3" d="M70.84,67.05H67a1.38,1.38,0,1,0,0,2.75h3.85a1.38,1.38,0,0,0,0-2.75Z"/><path class="cls-7" d="M70.84,67.05H67a1.38,1.38,0,1,0,0,2.75h3.85a1.38,1.38,0,0,0,0-2.75Z"/><path class="cls-3" d="M70.48,75.3H66.63a1.38,1.38,0,1,0,0,2.75h3.85a1.38,1.38,0,0,0,0-2.75Z"/><path class="cls-7" d="M70.48,75.3H66.63a1.38,1.38,0,1,0,0,2.75h3.85a1.38,1.38,0,0,0,0-2.75Z"/><path class="cls-4" d="M84.79,57a2.61,2.61,0,0,1,2-2l4-.92a.33.33,0,0,0,.25-.32.31.31,0,0,0-.25-.32l-4-.92a2.63,2.63,0,0,1-2-2l-.92-4a.33.33,0,0,0-.64,0l-.92,4a2.63,2.63,0,0,1-2,2l-4,.92a.31.31,0,0,0-.25.32.33.33,0,0,0,.25.32l4,.92a2.62,2.62,0,0,1,2,2l.92,4a.33.33,0,0,0,.64,0Z"/><path class="cls-4" d="M17.78,68.62l3.1-1a.3.3,0,0,0,0-.56l-2.55-.85a1.16,1.16,0,0,1-.74-.74l-.85-2.55a.29.29,0,0,0-.28-.2.29.29,0,0,0-.27.2l-.85,2.55a1.16,1.16,0,0,1-.74.74L12,67a.3.3,0,0,0,0,.56l2.56.85a1.16,1.16,0,0,1,.74.74l.85,2.55a.29.29,0,0,0,.27.2.29.29,0,0,0,.28-.2Z"/></svg>