<svg id="Layer_1" data-name="Layer 1" xmlns="http://www.w3.org/2000/svg" viewBox="0 0 100 100"><defs><style>.cls-1{fill:#f0f2ff;}.cls-2{fill:none;}.cls-2,.cls-3,.cls-4,.cls-8{stroke:#4550e5;stroke-linejoin:round;}.cls-2,.cls-3,.cls-4{stroke-linecap:round;}.cls-3,.cls-7{fill:#fff;}.cls-4,.cls-6,.cls-8{fill:#d6daff;}.cls-5{fill:#4550e5;}</style></defs><title>magician-male</title><path class="cls-1" d="M90.5,53.38a40,40,0,1,0-76.44,16.5H86.94A39.92,39.92,0,0,0,90.5,53.38Z"/><line class="cls-2" x1="11" y1="69.88" x2="89" y2="69.88"/><line class="cls-2" x1="6.5" y1="69.88" x2="9" y2="69.88"/><line class="cls-2" x1="91" y1="69.88" x2="93.5" y2="69.88"/><ellipse class="cls-1" cx="39.7" cy="84.9" rx="11.5" ry="1.73"/><path class="cls-3" d="M57.21,59.48a1.16,1.16,0,0,0,1.14.36c.81-.18,1.75-.34,2.78-.48l-.65,11.89a1.38,1.38,0,0,0,1.38,1.46h9.51a1.37,1.37,0,0,0,1.37-1.46L72.1,59.36c1,.14,2,.3,2.78.48A1.17,1.17,0,0,0,76,59.48a.82.82,0,0,0,.25-.57c0-.86-1.68-1.63-4.31-2.14a20,20,0,0,0-5.35-.62,20,20,0,0,0-5.34.62c-2.63.51-4.32,1.28-4.32,2.14A.83.83,0,0,0,57.21,59.48Z"/><path class="cls-4" d="M72.1,59.36a25.19,25.19,0,0,0-5.49-.45,25.06,25.06,0,0,0-5.48.45L61,61.67H72.22Z"/><path class="cls-3" d="M65,43.19a2.07,2.07,0,0,0-4,1.25l2.95,7,2.63-.83Z"/><path class="cls-3" d="M68.25,43.19a2.07,2.07,0,1,1,4,1.25l-3,7-2.63-.83Z"/><circle class="cls-3" cx="66.61" cy="52.01" r="4.14"/><path class="cls-5" d="M66.61,52.7a.69.69,0,1,0,.69.69.69.69,0,0,0-.69-.69Z"/><path class="cls-6" d="M43.84,42.35,56.31,72.53a1.16,1.16,0,0,1-1,1.59c-8.1.53-5.53,6.61-15.6,6.18-10.06.43-7.5-5.65-15.59-6.18a1.16,1.16,0,0,1-1-1.59L35.56,42.35Z"/><path class="cls-2" d="M43.84,42.35,56.31,72.53a1.16,1.16,0,0,1-1,1.59c-8.1.53-5.53,6.61-15.6,6.18-10.06.43-7.5-5.65-15.59-6.18a1.16,1.16,0,0,1-1-1.59L35.56,42.35Z"/><polygon class="cls-7" points="33.49 60.98 34.87 83.06 44.53 83.06 45.91 60.98 33.49 60.98"/><line class="cls-2" x1="39.7" y1="60.98" x2="39.7" y2="83.06"/><polygon class="cls-2" points="33.49 60.98 34.87 83.06 44.53 83.06 45.91 60.98 33.49 60.98"/><path class="cls-7" d="M53.5,56.84a3.46,3.46,0,0,1-3.45-3.45V51.32a10.35,10.35,0,1,0-20.7,0v2.07a7.6,7.6,0,0,0,4.14,6.75V66.5H45.91V53.39A7.61,7.61,0,0,0,53.5,61h2.07V56.84Z"/><path class="cls-4" d="M35,83.75a1.16,1.16,0,0,1-1-.58A1.18,1.18,0,0,1,34,82a3.46,3.46,0,0,1,3-1.72,2.76,2.76,0,0,1,2.76,2.76v.69Z"/><path class="cls-4" d="M44.45,83.75a1.16,1.16,0,0,0,1-1.73,3.45,3.45,0,0,0-3-1.72,2.77,2.77,0,0,0-2.76,2.76v.69Z"/><path class="cls-2" d="M53.5,56.84a3.46,3.46,0,0,1-3.45-3.45V51.32a10.35,10.35,0,1,0-20.7,0v2.07a7.6,7.6,0,0,0,4.14,6.75V66.5H45.91V53.39A7.61,7.61,0,0,0,53.5,61h2.07V56.84Z"/><path class="cls-3" d="M35.12,42h0l4,14.79h.56v2.07h0l4.58-16.86h0a10.36,10.36,0,0,0-9.17,0Z"/><line class="cls-2" x1="39.7" y1="40.97" x2="39.7" y2="66.5"/><path class="cls-2" d="M31.9,44.52l2.28,2.27v3.45l4.2,6.6h.76l-4-14.8A10.25,10.25,0,0,0,31.9,44.52Z"/><path class="cls-2" d="M44.29,42,39.71,58.91l5.52-8.67V46.79l2.27-2.27A10.25,10.25,0,0,0,44.29,42Z"/><path class="cls-2" d="M33.49,60.14a7.58,7.58,0,0,0,3.45.84H39.7V56.84H36.94a3.46,3.46,0,0,1-3.45-3.45V52.7"/><path class="cls-3" d="M41.77,61a2.07,2.07,0,1,0,0-4.14H39.7V61Z"/><line class="cls-2" x1="45.91" y1="53.39" x2="45.91" y2="52.7"/><path class="cls-3" d="M57.64,61a2.07,2.07,0,1,0,0-4.14H55.57V61Z"/><path class="cls-8" d="M39.7,42.35,39,41.77a6.1,6.1,0,0,0-2.78-1.36,1.15,1.15,0,0,0-1.38,1.13v1.62a1.15,1.15,0,0,0,1.38,1.13A6.12,6.12,0,0,0,39,42.92Z"/><path class="cls-8" d="M39.7,42.35l.67-.58a6.15,6.15,0,0,1,2.78-1.36,1.19,1.19,0,0,1,1,.24,1.15,1.15,0,0,1,.42.89v1.62a1.15,1.15,0,0,1-.42.89,1.19,1.19,0,0,1-1,.24,6.17,6.17,0,0,1-2.78-1.37Z"/><path class="cls-8" d="M41.08,42.35A1.38,1.38,0,1,1,39.7,41,1.38,1.38,0,0,1,41.08,42.35Z"/><path class="cls-7" d="M49.72,29.84c.66-.39.72-1.5.14-2.49a2.66,2.66,0,0,0-1-1,1.19,1.19,0,0,0,.87-.53c.36-.67-.16-1.66-1.16-2.2a2.39,2.39,0,0,0-1.86-.24l-.3-.34a1.25,1.25,0,0,0,.86-.89c.13-.75-.67-1.52-1.8-1.71a2.27,2.27,0,0,0-2,.45h0a1.09,1.09,0,0,0,.41-.82c0-.76-.92-1.38-2.07-1.38S39.7,19.28,39.7,20c0-.76-.92-1.38-2.07-1.38s-2.07.62-2.07,1.38a1.13,1.13,0,0,0,.41.82h0a2.27,2.27,0,0,0-2-.45c-1.13.19-1.94,1-1.81,1.71A1.27,1.27,0,0,0,33,23l-.3.34a2.39,2.39,0,0,0-1.86.24c-1,.54-1.52,1.53-1.16,2.2a1.15,1.15,0,0,0,.87.53,2.66,2.66,0,0,0-1,1c-.58,1-.52,2.1.13,2.49a1.09,1.09,0,0,0,.8.09A2.21,2.21,0,0,0,30,32c.22,1.12,1,1.92,1.75,1.77a1,1,0,0,0,.3-.12,8.95,8.95,0,0,0,15.34,0,1.25,1.25,0,0,0,.3.12c.75.15,1.53-.65,1.75-1.77a2.19,2.19,0,0,0-.5-2.06A1.09,1.09,0,0,0,49.72,29.84Z"/><path class="cls-2" d="M49.72,29.84c.66-.39.72-1.5.14-2.49a2.66,2.66,0,0,0-1-1,1.19,1.19,0,0,0,.87-.53c.36-.67-.16-1.66-1.16-2.2a2.39,2.39,0,0,0-1.86-.24l-.3-.34a1.25,1.25,0,0,0,.86-.89c.13-.75-.67-1.52-1.8-1.71a2.27,2.27,0,0,0-2,.45h0a1.09,1.09,0,0,0,.41-.82c0-.76-.92-1.38-2.07-1.38S39.7,19.28,39.7,20c0-.76-.92-1.38-2.07-1.38s-2.07.62-2.07,1.38a1.13,1.13,0,0,0,.41.82h0a2.27,2.27,0,0,0-2-.45c-1.13.19-1.94,1-1.81,1.71A1.27,1.27,0,0,0,33,23l-.3.34a2.39,2.39,0,0,0-1.86.24c-1,.54-1.52,1.53-1.16,2.2a1.15,1.15,0,0,0,.87.53,2.66,2.66,0,0,0-1,1c-.58,1-.52,2.1.13,2.49a1.09,1.09,0,0,0,.8.09A2.21,2.21,0,0,0,30,32c.22,1.12,1,1.92,1.75,1.77a1,1,0,0,0,.3-.12,8.95,8.95,0,0,0,15.34,0,1.25,1.25,0,0,0,.3.12c.75.15,1.53-.65,1.75-1.77a2.19,2.19,0,0,0-.5-2.06A1.09,1.09,0,0,0,49.72,29.84Z"/><path class="cls-3" d="M46.61,30.39l-1-2.93a1.38,1.38,0,0,0-1.64-.9l-2.28.57a8.29,8.29,0,0,1-4,0l-2.27-.57a1.37,1.37,0,0,0-1.64.91l-1,2.92c-2,0-1.83,3.45.35,3.45h0a6.86,6.86,0,0,0,13.1,0h0C48.45,33.84,48.58,30.39,46.61,30.39Z"/><circle class="cls-6" cx="36.26" cy="32.74" r="0.69"/><circle class="cls-6" cx="43.16" cy="32.74" r="0.69"/><path class="cls-2" d="M38,34.7a3.13,3.13,0,0,0,3.45,0"/><path class="cls-5" d="M37.47,29.8a.87.87,0,1,0,.86.87.87.87,0,0,0-.86-.87Z"/><path class="cls-5" d="M42,29.8a.87.87,0,1,0,.86.87A.86.86,0,0,0,42,29.8Z"/></svg>