<svg id="Layer_1" data-name="Layer 1" xmlns="http://www.w3.org/2000/svg" viewBox="0 0 100 100"><defs><style>.cls-1{fill:#f0f2ff;}.cls-2{fill:none;}.cls-2,.cls-3,.cls-6,.cls-7{stroke:#4550e5;stroke-linejoin:round;}.cls-2,.cls-6,.cls-7{stroke-linecap:round;}.cls-3,.cls-5,.cls-7{fill:#fff;}.cls-4,.cls-6{fill:#d6daff;}</style></defs><title>netherlands-windmill</title><path class="cls-1" d="M90.5,63.15a40,40,0,1,0-76.44,16.5H86.94A39.85,39.85,0,0,0,90.5,63.15Z"/><line class="cls-2" x1="11" y1="79.65" x2="89" y2="79.65"/><line class="cls-2" x1="6.5" y1="79.65" x2="9" y2="79.65"/><line class="cls-2" x1="91" y1="79.65" x2="93.5" y2="79.65"/><path class="cls-3" d="M29.29,35.73a2.15,2.15,0,0,0-.8.15,3.68,3.68,0,0,0-7.26,0,2.06,2.06,0,0,0-.79-.15,2.21,2.21,0,0,0,0,4.42h8.85a2.21,2.21,0,0,0,0-4.42Z"/><path class="cls-4" d="M64.48,48.81a1,1,0,0,0,.93-1.36L63.85,43.4a11,11,0,0,0-4.51-5.5l-6-3.68a1,1,0,0,0-1,0l-6,3.68a11.09,11.09,0,0,0-4.52,5.5l-1.55,4.05a1,1,0,0,0,.93,1.36Z"/><path class="cls-2" d="M64.48,48.81a1,1,0,0,0,.93-1.36L63.85,43.4a11,11,0,0,0-4.51-5.5l-6-3.68a1,1,0,0,0-1,0l-6,3.68a11.09,11.09,0,0,0-4.52,5.5l-1.55,4.05a1,1,0,0,0,.93,1.36Z"/><rect class="cls-4" x="41.01" y="48.81" width="23.54" height="3.75"/><rect class="cls-2" x="41.01" y="48.81" width="23.54" height="3.75"/><path class="cls-4" d="M69,72.81a1,1,0,0,0,.87-1.48,31,31,0,0,1-3.95-15.18V53.56a1,1,0,0,0-1-1H40.62a1,1,0,0,0-1,1v2.59a30.87,30.87,0,0,1-3.95,15.18,1,1,0,0,0,.87,1.48Z"/><path class="cls-2" d="M69,72.81a1,1,0,0,0,.87-1.48,31,31,0,0,1-3.95-15.18V53.56a1,1,0,0,0-1-1H40.62a1,1,0,0,0-1,1v2.59a30.87,30.87,0,0,1-3.95,15.18,1,1,0,0,0,.87,1.48Z"/><rect class="cls-5" x="37.55" y="72.81" width="30.46" height="6.84"/><rect class="cls-2" x="37.55" y="72.81" width="30.46" height="6.84"/><rect class="cls-4" x="43.03" y="61.65" width="6" height="7.5" rx="1" ry="1"/><path class="cls-5" d="M48.05,61.65H44a1,1,0,0,0-1,1v5.5a1,1,0,0,0,.58.91Z"/><rect class="cls-2" x="43.03" y="61.65" width="6" height="7.5" rx="1" ry="1"/><line class="cls-2" x1="43.03" y1="65.4" x2="49.03" y2="65.4"/><line class="cls-2" x1="46.03" y1="61.65" x2="46.03" y2="69.15"/><path class="cls-6" d="M61,79.65h-4.5v-3a2.25,2.25,0,0,1,2.25-2.25h0A2.25,2.25,0,0,1,61,76.65Z"/><line class="cls-2" x1="43.53" y1="79.65" x2="43.53" y2="75.9"/><line class="cls-2" x1="50.53" y1="79.65" x2="50.53" y2="75.9"/><path class="cls-2" d="M49.23,38.88l5.21-5.21a1,1,0,0,0,0-1.42L42.83,20.64a1,1,0,0,0-1.42,0l-3.94,3.94a1.81,1.81,0,0,0,0,2.55L68.08,57.74a1.79,1.79,0,0,1,0,2.55l-3.94,3.94a1,1,0,0,1-1.41,0L51.12,52.62a1,1,0,0,1,0-1.42L56.33,46"/><path class="cls-2" d="M49.23,46,44,40.77a1,1,0,0,0-1.41,0L31,52.39a1,1,0,0,0,0,1.41l3.94,3.94a1.8,1.8,0,0,0,2.54,0L68.08,27.13a1.81,1.81,0,0,1,2.55,0l3.94,3.94a1,1,0,0,1,.29.71,1,1,0,0,1-.29.7L63,44.1a1,1,0,0,1-1.42,0l-5.21-5.22"/><path class="cls-7" d="M68.08,60.29l-1.25,1.25-13-13L56.33,46,68.08,57.74A1.79,1.79,0,0,1,68.08,60.29Z"/><path class="cls-7" d="M51.76,36.36l-2.53,2.53L37.48,27.14a1.79,1.79,0,0,1,0-2.55l1.26-1.26Z"/><path class="cls-7" d="M34.93,57.74l-1.26-1.26,13-13L49.23,46,37.47,57.74A1.8,1.8,0,0,1,34.93,57.74Z"/><path class="cls-7" d="M58.86,41.41l-2.53-2.53L68.08,27.13a1.81,1.81,0,0,1,2.55,0l1.26,1.26Z"/><line class="cls-2" x1="56.98" y1="58.48" x2="60.37" y2="55.09"/><line class="cls-2" x1="60.36" y1="61.86" x2="63.75" y2="58.47"/><line class="cls-2" x1="53.61" y1="55.11" x2="57" y2="51.72"/><line class="cls-2" x1="45.18" y1="29.78" x2="48.57" y2="26.39"/><line class="cls-2" x1="48.56" y1="33.15" x2="51.95" y2="29.76"/><line class="cls-2" x1="41.81" y1="26.4" x2="45.2" y2="23.01"/><line class="cls-2" x1="68.82" y1="38.23" x2="65.43" y2="34.84"/><line class="cls-2" x1="65.45" y1="41.61" x2="62.06" y2="38.22"/><line class="cls-2" x1="72.2" y1="34.86" x2="68.81" y2="31.47"/><line class="cls-2" x1="39.93" y1="50.22" x2="36.54" y2="46.83"/><line class="cls-2" x1="36.56" y1="53.59" x2="33.17" y2="50.2"/><line class="cls-2" x1="43.31" y1="46.84" x2="39.93" y2="43.47"/><rect class="cls-7" x="50.53" y="40.18" width="4.5" height="4.5" rx="1" ry="1"/></svg>