<svg id="Layer_1" data-name="Layer 1" xmlns="http://www.w3.org/2000/svg" viewBox="0 0 100 100"><defs><style>.cls-1{fill:#f0f2ff;}.cls-2{fill:none;}.cls-2,.cls-3,.cls-6{stroke:#4550e5;stroke-linecap:round;stroke-linejoin:round;}.cls-3,.cls-5{fill:#fff;}.cls-4,.cls-6{fill:#d6daff;}</style></defs><title>photographer-male</title><path class="cls-1" d="M90.5,56a40,40,0,1,0-76.43,16.5H86.94A39.88,39.88,0,0,0,90.5,56Z"/><line class="cls-2" x1="11" y1="72.46" x2="89" y2="72.46"/><line class="cls-2" x1="6.5" y1="72.46" x2="9" y2="72.46"/><line class="cls-2" x1="91" y1="72.46" x2="93.5" y2="72.46"/><path class="cls-3" d="M64,49.46A15.5,15.5,0,0,0,48.5,65v7.5h31V65A15.5,15.5,0,0,0,64,49.46Z"/><path class="cls-4" d="M59,50.28A15.51,15.51,0,0,0,48.5,65v7.5H59Z"/><line class="cls-2" x1="54" y1="65.26" x2="54" y2="72.46"/><path class="cls-4" d="M69,50.28A15.51,15.51,0,0,1,79.5,65v7.5H69Z"/><line class="cls-2" x1="74" y1="65.26" x2="74" y2="72.46"/><path class="cls-2" d="M59,50.28A15.51,15.51,0,0,0,48.5,65v7.5H59Z"/><path class="cls-2" d="M69,50.28A15.51,15.51,0,0,1,79.5,65v7.5H69Z"/><path class="cls-5" d="M64,54.46a6.5,6.5,0,0,0,5.93-3.83,15.27,15.27,0,0,0-2.43-.77v-3.4h-7v3.4a15.27,15.27,0,0,0-2.43.77A6.5,6.5,0,0,0,64,54.46Z"/><path class="cls-2" d="M64,54.46a6.5,6.5,0,0,0,5.93-3.83,15.27,15.27,0,0,0-2.43-.77v-3.4h-7v3.4a15.27,15.27,0,0,0-2.43.77A6.5,6.5,0,0,0,64,54.46Z"/><rect class="cls-3" x="55.5" y="59.46" width="17" height="10.5" rx="1" ry="1"/><rect class="cls-6" x="55.5" y="61.46" width="17" height="6.5"/><path class="cls-3" d="M67.63,58.12a1.21,1.21,0,0,0-1.07-.66H61.44a1.21,1.21,0,0,0-1.07.66A5.35,5.35,0,0,0,59.5,61v9h9V61A5.35,5.35,0,0,0,67.63,58.12Z"/><circle class="cls-3" cx="64" cy="63.96" r="4.5"/><circle class="cls-4" cx="64" cy="63.96" r="2.5"/><path class="cls-5" d="M64,61.46a2.5,2.5,0,0,0-1.78,4.25l3.53-3.53A2.46,2.46,0,0,0,64,61.46Z"/><circle class="cls-2" cx="64" cy="63.96" r="2.5"/><path class="cls-6" d="M71,54.66v4.8H68.5v-4.8a5.16,5.16,0,0,0-1-3.34V48.13A7.93,7.93,0,0,1,71,54.66Z"/><path class="cls-6" d="M57,54.66v4.8h2.5v-4.8a5.16,5.16,0,0,1,1-3.34V48.13A7.93,7.93,0,0,0,57,54.66Z"/><path class="cls-3" d="M74,36v-2.5a10,10,0,0,0-20,0V36a2,2,0,0,0,0,4h.12a10,10,0,0,0,19.76,0H74a2,2,0,0,0,0-4Z"/><circle class="cls-4" cx="58.25" cy="40.21" r="1.25"/><circle class="cls-4" cx="69.75" cy="40.21" r="1.25"/><path class="cls-2" d="M67,42.75a4.32,4.32,0,0,1-6,0"/><path class="cls-2" d="M61.5,37a1.63,1.63,0,0,0-3,0"/><path class="cls-2" d="M69.5,37a1.63,1.63,0,0,0-3,0"/><path class="cls-5" d="M77.37,31.86a8.66,8.66,0,0,0-1.78-1.25c1.86.08,3.33-.43,3.45-1.27s-1.6-2.05-3.9-2.38a9.54,9.54,0,0,0-3,.09s1.15-.19,1.76-.27c2.3-.29,4.06-1.33,3.94-2.31s-2.09-1.55-4.39-1.26a7.83,7.83,0,0,0-2.81.86c.18-.14.36-.28.53-.44,1.72-1.55,2.58-3.4,1.92-4.14s-2.6-.08-4.33,1.47a7.16,7.16,0,0,0-2,2.67c-.27-.07-.53-.14-.8-.19a9,9,0,0,0,1-1.53c1.07-2.06,1.22-4.1.34-4.56S65.06,18.07,64,20c-1.06-1.88-2.53-3-3.37-2.6s-.73,2.5.34,4.56a9,9,0,0,0,1,1.53c-.27,0-.53.12-.8.19a7.16,7.16,0,0,0-2-2.67c-1.72-1.55-3.66-2.21-4.33-1.47s.2,2.59,1.92,4.14c.17.16.35.3.53.44a7.84,7.84,0,0,0-2.8-.86c-2.3-.29-4.27.27-4.4,1.26s1.64,2,3.94,2.31c.7.09,1.76.27,1.76.27a13.36,13.36,0,0,0-3-.09c-2.29.33-4,1.39-3.9,2.38s1.59,1.35,3.45,1.27a8.66,8.66,0,0,0-1.78,1.25c-1.72,1.56-2.57,3.42-1.9,4.16.53.58,1.86.27,3.24-.65a8.66,8.66,0,0,0-.51.91c-1,2.09-1.1,4.13-.2,4.56.55.27,1.35-.14,2.11-1A2,2,0,0,1,54,36c1,0,1.48.68,1.48,1.7a10.24,10.24,0,0,0,.22-4.25c1,.35,2.78-1.15,2.78-1.15v-2.4A27.8,27.8,0,0,0,64,31a27.63,27.63,0,0,0,5.52-1.09v2.4s1.73,1.5,2.78,1.15a10.24,10.24,0,0,0,.22,4.25c0-1,.48-1.7,1.48-1.7a2,2,0,0,1,.63,3.9c.77.84,1.56,1.25,2.11,1,.9-.43.81-2.47-.2-4.56a8.66,8.66,0,0,0-.51-.91c1.39.92,2.71,1.23,3.24.65C79.94,35.28,79.09,33.42,77.37,31.86Z"/><path class="cls-2" d="M77.37,31.86a8.66,8.66,0,0,0-1.78-1.25c1.86.08,3.33-.43,3.45-1.27s-1.6-2.05-3.9-2.38a9.54,9.54,0,0,0-3,.09s1.15-.19,1.76-.27c2.3-.29,4.06-1.33,3.94-2.31s-2.09-1.55-4.39-1.26a7.83,7.83,0,0,0-2.81.86c.18-.14.36-.28.53-.44,1.72-1.55,2.58-3.4,1.92-4.14s-2.6-.08-4.33,1.47a7.16,7.16,0,0,0-2,2.67c-.27-.07-.53-.14-.8-.19a9,9,0,0,0,1-1.53c1.07-2.06,1.22-4.1.34-4.56S65.06,18.07,64,20c-1.06-1.88-2.53-3-3.37-2.6s-.73,2.5.34,4.56a9,9,0,0,0,1,1.53c-.27,0-.53.12-.8.19a7.16,7.16,0,0,0-2-2.67c-1.72-1.55-3.66-2.21-4.33-1.47s.2,2.59,1.92,4.14c.17.16.35.3.53.44a7.84,7.84,0,0,0-2.8-.86c-2.3-.29-4.27.27-4.4,1.26s1.64,2,3.94,2.31c.7.09,1.76.27,1.76.27a13.36,13.36,0,0,0-3-.09c-2.29.33-4,1.39-3.9,2.38s1.59,1.35,3.45,1.27a8.66,8.66,0,0,0-1.78,1.25c-1.72,1.56-2.57,3.42-1.9,4.16.53.58,1.86.27,3.24-.65a8.66,8.66,0,0,0-.51.91c-1,2.09-1.1,4.13-.2,4.56.55.27,1.35-.14,2.11-1A2,2,0,0,1,54,36c1,0,1.48.68,1.48,1.7a10.24,10.24,0,0,0,.22-4.25c1,.35,2.78-1.15,2.78-1.15v-2.4A27.8,27.8,0,0,0,64,31a27.63,27.63,0,0,0,5.52-1.09v2.4s1.73,1.5,2.78,1.15a10.24,10.24,0,0,0,.22,4.25c0-1,.48-1.7,1.48-1.7a2,2,0,0,1,.63,3.9c.77.84,1.56,1.25,2.11,1,.9-.43.81-2.47-.2-4.56a8.66,8.66,0,0,0-.51-.91c1.39.92,2.71,1.23,3.24.65C79.94,35.28,79.09,33.42,77.37,31.86Z"/><path class="cls-1" d="M23.5,82.54c0,.83,6.94,1.5,15.5,1.5s15.5-.67,15.5-1.5S47.56,81,39,81,23.5,81.71,23.5,82.54Z"/><rect class="cls-4" x="35" y="47.96" width="9" height="8"/><rect class="cls-2" x="35" y="47.96" width="9" height="8"/><rect class="cls-3" x="32.5" y="42.46" width="14" height="9" rx="1" ry="1"/><rect class="cls-3" x="33.5" y="55.96" width="12" height="8" rx="1" ry="1"/><rect class="cls-4" x="34.5" y="44.46" width="10" height="5" rx="0.5" ry="0.5"/><path class="cls-5" d="M37.5,49.46H35a.5.5,0,0,1-.5-.5V45a.5.5,0,0,1,.5-.5h7.5Z"/><rect class="cls-2" x="34.5" y="44.46" width="10" height="5" rx="0.5" ry="0.5"/><path class="cls-6" d="M41.5,60h-4a1,1,0,0,0-1,1v3h6V61A1,1,0,0,0,41.5,60Z"/><rect class="cls-5" x="25.5" y="66.96" width="26" height="15" rx="1" ry="1"/><rect class="cls-4" x="25.5" y="70.96" width="26" height="8"/><rect class="cls-2" x="25.5" y="70.96" width="26" height="8"/><path class="cls-6" d="M48.5,65h-1a1,1,0,0,0-1,1v1h3V66A1,1,0,0,0,48.5,65Z"/><path class="cls-6" d="M30.5,65h-2a1,1,0,0,0-1,1v1h4V66A1,1,0,0,0,30.5,65Z"/><rect class="cls-2" x="25.5" y="66.96" width="26" height="15" rx="1" ry="1"/><path class="cls-3" d="M47,76a1.5,1.5,0,0,0,0-3H45.5v3Z"/><path class="cls-5" d="M42.88,64H36.12a1,1,0,0,0-.9.55l-1,2a7,7,0,0,0-.74,3.13V82h12V69.61a7,7,0,0,0-.74-3.13l-1-2A1,1,0,0,0,42.88,64Z"/><path class="cls-2" d="M42.88,64H36.12a1,1,0,0,0-.9.55l-1,2a7,7,0,0,0-.74,3.13V82h12V69.61a7,7,0,0,0-.74-3.13l-1-2A1,1,0,0,0,42.88,64Z"/><circle class="cls-5" cx="39.5" cy="74.96" r="6"/><circle class="cls-4" cx="39.5" cy="74.96" r="4"/><path class="cls-5" d="M36.67,77.79a4,4,0,0,1,5.66-5.66Z"/><circle class="cls-2" cx="39.5" cy="74.96" r="6"/><circle class="cls-2" cx="39.5" cy="74.96" r="4"/><line class="cls-2" x1="36.5" y1="66.96" x2="42.5" y2="66.96"/><line class="cls-2" x1="29.5" y1="70.96" x2="29.5" y2="78.96"/><line class="cls-2" x1="28.5" y1="68.96" x2="31.5" y2="68.96"/></svg>