<svg id="Layer_1" data-name="Layer 1" xmlns="http://www.w3.org/2000/svg" viewBox="0 0 100 100"><defs><style>.cls-1{fill:#f0f2ff;}.cls-2{fill:#fff;}.cls-3,.cls-5{fill:#d6daff;}.cls-4,.cls-6{fill:none;}.cls-4,.cls-5,.cls-6{stroke:#4550e5;}.cls-4,.cls-5{stroke-linejoin:round;}.cls-6{stroke-miterlimit:10;}</style></defs><title>polaroid</title><circle class="cls-1" cx="50" cy="50" r="40"/><polygon class="cls-2" points="74.37 55.73 28.55 55.73 31.54 48.26 71.38 48.26 74.37 55.73"/><polygon class="cls-3" points="46.99 48.26 50.17 48.26 49.35 55.73 45.05 55.73 46.99 48.26"/><polygon class="cls-3" points="56.52 48.26 53.35 48.26 54.17 55.73 58.47 55.73 56.52 48.26"/><polygon class="cls-3" points="53.35 48.26 50.17 48.26 49.35 55.73 54.17 55.73 53.35 48.26"/><path class="cls-3" d="M71.49,81.45c0,1-9.27,1.73-20.7,1.73s-20.7-.77-20.7-1.73,9.26-1.72,20.7-1.72S71.49,80.5,71.49,81.45Z"/><path class="cls-2" d="M72.62,67.41a2,2,0,0,1-2,1.71H32.27a2,2,0,0,1-2-1.71L28.55,55.73H74.37Z"/><path class="cls-4" d="M72.62,67.41a2,2,0,0,1-2,1.71H32.27a2,2,0,0,1-2-1.71L28.55,55.73H74.37Z"/><path class="cls-5" d="M34,62.2H68.92a0,0,0,0,1,0,0v2.62a1,1,0,0,1-1,1H35a1,1,0,0,1-1-1V62.2A0,0,0,0,1,34,62.2Z"/><rect class="cls-2" x="32.53" y="59.08" width="37.85" height="3.12" rx="1" ry="1"/><rect class="cls-4" x="32.53" y="59.08" width="37.85" height="3.12" rx="1" ry="1"/><polygon class="cls-4" points="74.37 55.73 28.55 55.73 31.54 48.26 71.38 48.26 74.37 55.73"/><path class="cls-2" d="M34.12,27.34H68.8a2.58,2.58,0,0,1,2.58,2.58V48.26a0,0,0,0,1,0,0H31.54a0,0,0,0,1,0,0V29.92A2.58,2.58,0,0,1,34.12,27.34Z"/><path class="cls-4" d="M34.12,27.34H68.8a2.58,2.58,0,0,1,2.58,2.58V48.26a0,0,0,0,1,0,0H31.54a0,0,0,0,1,0,0V29.92A2.58,2.58,0,0,1,34.12,27.34Z"/><path class="cls-2" d="M40.5,41.83a3,3,0,1,1-3-3A3,3,0,0,1,40.5,41.83Z"/><path class="cls-4" d="M40.5,41.83a3,3,0,1,1-3-3A3,3,0,0,1,40.5,41.83Z"/><path class="cls-2" d="M66.9,43.77a2,2,0,1,1-2-2A2,2,0,0,1,66.9,43.77Z"/><path class="cls-4" d="M66.9,43.77a2,2,0,1,1-2-2A2,2,0,0,1,66.9,43.77Z"/><rect class="cls-2" x="61.78" y="31.39" width="6.35" height="6.35" rx="1" ry="1"/><rect class="cls-4" x="61.78" y="31.39" width="6.35" height="6.35" rx="1" ry="1"/><rect class="cls-3" x="47" y="27.34" width="3.17" height="20.92"/><rect class="cls-3" x="50.17" y="27.34" width="3.17" height="20.92"/><rect class="cls-3" x="53.35" y="27.34" width="3.17" height="20.92"/><rect class="cls-6" x="47" y="27.34" width="3.17" height="20.92"/><rect class="cls-6" x="50.17" y="27.34" width="3.17" height="20.92"/><rect class="cls-6" x="53.35" y="27.34" width="3.17" height="20.92"/><path class="cls-2" d="M59.1,38.29A7.14,7.14,0,1,1,52,31.15,7.15,7.15,0,0,1,59.1,38.29Z"/><path class="cls-3" d="M34.77,74.16a1.15,1.15,0,0,1-.93-1.84A17.27,17.27,0,0,0,36.69,62.2h29c0,3.56.79,7.34,2.85,10.12a1.15,1.15,0,0,1,.1,1.21,1.17,1.17,0,0,1-1,.63Z"/><path class="cls-2" d="M33.84,72.32a1.15,1.15,0,0,0-.1,1.21,1.17,1.17,0,0,0,1,.63H67.56a1.15,1.15,0,0,0,.93-1.84,13,13,0,0,1-1.69-3.2H35.53A13,13,0,0,1,33.84,72.32Z"/><path class="cls-4" d="M34.77,74.16a1.15,1.15,0,0,1-.93-1.84A17.27,17.27,0,0,0,36.69,62.2h29c0,3.56.79,7.34,2.85,10.12a1.15,1.15,0,0,1,.1,1.21,1.17,1.17,0,0,1-1,.63Z"/><path class="cls-6" d="M59.1,38.29A7.14,7.14,0,1,1,52,31.15,7.15,7.15,0,0,1,59.1,38.29Z"/><polygon class="cls-6" points="46.99 48.26 50.17 48.26 49.35 55.73 45.05 55.73 46.99 48.26"/><polygon class="cls-6" points="56.52 48.26 53.35 48.26 54.17 55.73 58.47 55.73 56.52 48.26"/><polygon class="cls-6" points="53.35 48.26 50.17 48.26 49.35 55.73 54.17 55.73 53.35 48.26"/></svg>