<svg id="Layer_1" data-name="Layer 1" xmlns="http://www.w3.org/2000/svg" viewBox="0 0 100 100"><defs><style>.cls-1{fill:#f0f2ff;}.cls-10,.cls-2,.cls-3,.cls-5{fill:#fff;}.cls-10,.cls-2,.cls-4,.cls-5,.cls-8,.cls-9{stroke:#4550e5;}.cls-2,.cls-4,.cls-5,.cls-8,.cls-9{stroke-linejoin:round;}.cls-4,.cls-9{fill:none;}.cls-4,.cls-5,.cls-8{stroke-linecap:round;}.cls-6{fill:#4550e5;}.cls-7,.cls-8{fill:#d6daff;}.cls-10{stroke-miterlimit:10;}</style></defs><title>postman-receive-letter</title><circle class="cls-1" cx="50" cy="56.03" r="40"/><path class="cls-2" d="M63.08,6.5A2.52,2.52,0,0,0,60.56,4H39.08A2.53,2.53,0,0,0,36.55,6.5V26.08a2.53,2.53,0,0,0,2.53,2.53h4.63a1,1,0,0,1,1,1.05v2.73a1,1,0,0,0,.65,1,1,1,0,0,0,1.14-.22l4.22-4.22a1.05,1.05,0,0,1,.74-.31h9.05a2.52,2.52,0,0,0,2.52-2.53Z"/><polygon class="cls-3" points="27.74 85.93 28.02 80.09 23.95 80.09 23.95 85.93 27.74 85.93"/><polygon class="cls-4" points="27.74 85.93 28.02 80.09 23.95 80.09 23.95 85.93 27.74 85.93"/><polygon class="cls-3" points="32.8 85.93 32.53 80.09 36.59 80.09 36.59 85.93 32.8 85.93"/><polygon class="cls-4" points="32.8 85.93 32.53 80.09 36.59 80.09 36.59 85.93 32.8 85.93"/><path class="cls-3" d="M39.75,59.64a10.11,10.11,0,0,0-20.22,0V60.9h3.79v8.21h13.9V60.9h2.53Z"/><path class="cls-5" d="M30.9,32.27a6.3,6.3,0,0,0-6.31,6.31v1.27c-1.81,0-1.68,3.16.31,3.16h0a6.3,6.3,0,0,0,12.31-1.89V38.58A6.31,6.31,0,0,0,30.9,32.27Z"/><path class="cls-6" d="M29.8,39.85a.79.79,0,1,0,0,1.58.79.79,0,0,0,0-1.58Z"/><path class="cls-6" d="M34.54,39.85a.79.79,0,1,0,0,1.58.79.79,0,1,0,0-1.58Z"/><path class="cls-7" d="M29,42.53a.64.64,0,1,1-.63-.63A.63.63,0,0,1,29,42.53Z"/><path class="cls-4" d="M30.9,44.33a1.92,1.92,0,0,0,2.23.21,2,2,0,0,0,.3-.21"/><path class="cls-5" d="M23.32,41.27h0V34.16h3.16v4A3.16,3.16,0,0,1,23.32,41.27Z"/><path class="cls-4" d="M39.75,59.64a10.11,10.11,0,0,0-20.22,0V60.9h3.79v8.21h13.9V60.9h2.53Z"/><ellipse class="cls-7" cx="31.08" cy="89.22" rx="10.5" ry="1.58"/><path class="cls-8" d="M26.32,30.37h7.9a3,3,0,0,1,3,3v2.69a0,0,0,0,1,0,0H23.32a0,0,0,0,1,0,0V33.37A3,3,0,0,1,26.32,30.37Z"/><path class="cls-9" d="M30.27,30.37s-3.79,1.9-3.79,5.05"/><path class="cls-9" d="M30.27,30.37s3.79,1.9,3.79,5.05"/><path class="cls-3" d="M27.65,80.48a1,1,0,0,0,1.05-1L29,74.8a1.32,1.32,0,0,1,2.64,0l.25,4.69a1,1,0,0,0,1.05,1h3.28a1,1,0,0,0,1-1V67.85H23.32V79.43a1,1,0,0,0,1.05,1Z"/><path class="cls-4" d="M29,74.8a1.32,1.32,0,0,1,2.64,0l.25,4.69a1,1,0,0,0,1.05,1h3.28a1,1,0,0,0,1-1V67.85H23.32V79.43a1,1,0,0,0,1.05,1h3.28a1,1,0,0,0,1.05-1Z"/><path class="cls-8" d="M39.12,88.7c0-2.27-2.22-3.16-4.17-3.16H33.22a1,1,0,0,0-1,1v1.06a1,1,0,0,0,1,1Z"/><path class="cls-8" d="M30.27,88.7c0-2.27-2.21-3.16-4.17-3.16H24.37a1,1,0,0,0-1.05,1v1.06a1,1,0,0,0,1.05,1Z"/><path class="cls-5" d="M23.32,72.27a1.9,1.9,0,1,1-3.79,0V60.9h3.79Z"/><line class="cls-4" x1="37.22" y1="60.9" x2="37.22" y2="57.11"/><line class="cls-4" x1="23.32" y1="60.9" x2="23.32" y2="57.11"/><path class="cls-5" d="M29.64,49.53a10.11,10.11,0,0,0-2.82.4l3.45,5.92,3.24-5.55A10,10,0,0,0,29.64,49.53Z"/><path class="cls-5" d="M35.26,51.24a9.5,9.5,0,0,0-1.75-.94l-3.24,5.55a10.73,10.73,0,0,1,5.08-2.44.52.52,0,0,0,.41-.68Z"/><path class="cls-5" d="M30.27,55.85l-3.45-5.92a11.15,11.15,0,0,0-1.26.46l-.78,2.34a.52.52,0,0,0,.42.68A10.7,10.7,0,0,1,30.27,55.85Z"/><line class="cls-4" x1="30.27" y1="55.85" x2="30.27" y2="59"/><rect class="cls-8" x="23.32" y="67.22" width="13.9" height="2.53"/><rect class="cls-5" x="28.38" y="67.22" width="3.79" height="2.53"/><path class="cls-8" d="M23.32,36.06,24.76,38a1,1,0,0,0,1.14.37,21.93,21.93,0,0,1,10.61,0,1.06,1.06,0,0,0,1.16-1.56l-.45-.74C34.69,34.79,28.38,34.79,23.32,36.06Z"/><rect class="cls-5" x="32.17" y="57.11" width="12.63" height="12.64" rx="1" ry="1"/><path class="cls-5" d="M44,67a1.9,1.9,0,0,0-3.39,1.72L41.25,70a1,1,0,0,0,1.41.47l1.51-.77a1,1,0,0,0,.46-1.41Z"/><path class="cls-8" d="M36.59,57.11h3.79a0,0,0,0,1,0,0v5.19a.5.5,0,0,1-.5.5H37.09a.5.5,0,0,1-.5-.5V57.11A0,0,0,0,1,36.59,57.11Z"/><rect class="cls-3" x="40.34" y="10.92" width="18.95" height="11.37" rx="1" ry="1"/><path class="cls-5" d="M58.24,10.92H41.39a1.06,1.06,0,0,0-.65.24l8,4.8a2.09,2.09,0,0,0,2.16,0l8-4.8A1.06,1.06,0,0,0,58.24,10.92Z"/><rect class="cls-4" x="40.34" y="10.92" width="18.95" height="11.37" rx="1" ry="1"/><path class="cls-5" d="M61,72.27a1.9,1.9,0,1,0,3.79,0V60.9H61Z"/><ellipse class="cls-7" cx="69.41" cy="89.22" rx="10.5" ry="1.58"/><path class="cls-7" d="M72.46,87,71.8,74.8a1.32,1.32,0,0,0-2.64,0L68.51,87h-5V67.85h13.9V87Z"/><path class="cls-4" d="M72.46,87,71.8,74.8a1.32,1.32,0,0,0-2.64,0L68.51,87h-5V67.85h13.9V87Z"/><path class="cls-5" d="M61.64,88.7c0-2.27,2.21-3.16,4.17-3.16h2.78v2.11a1,1,0,0,1-1,1Z"/><path class="cls-5" d="M70.48,88.7c0-2.27,2.21-3.16,4.17-3.16h2.78v2.11a1,1,0,0,1-1.05,1Z"/><path class="cls-5" d="M70.48,32.27a6.31,6.31,0,0,1,6.32,6.31v1.27c1.8,0,1.68,3.16-.32,3.16h0a6.3,6.3,0,0,1-12.32-1.89V38.58A6.31,6.31,0,0,1,70.48,32.27Z"/><path class="cls-6" d="M71.59,39.21a.79.79,0,1,0,.79.79.79.79,0,0,0-.79-.79Z"/><path class="cls-6" d="M66.85,39.21a.79.79,0,1,0,.79.79.79.79,0,0,0-.79-.79Z"/><path class="cls-7" d="M72.38,42.53A.63.63,0,1,0,73,41.9.63.63,0,0,0,72.38,42.53Z"/><path class="cls-4" d="M70.8,43.58a2.39,2.39,0,0,1-2.79.26,3.09,3.09,0,0,1-.37-.26"/><path class="cls-3" d="M64.16,38c-1.26-.63-.51-3.89.64-4.42L64,32.87A1,1,0,0,1,64.63,31h7.75a5.05,5.05,0,0,1,5.05,5.06v3.79c-3.79,0-3.71-3-7-3.79-.08.73-1,1.43-2.52,1.89a1.86,1.86,0,0,0-1.9-1.89Z"/><path class="cls-4" d="M64.16,38c-1.26-.63-.51-3.89.64-4.42L64,32.87A1,1,0,0,1,64.63,31h7.75a5.05,5.05,0,0,1,5.05,5.06v3.79c-3.79,0-3.71-3-7-3.79-.08.73-1,1.43-2.52,1.89a1.86,1.86,0,0,0-1.9-1.89Z"/><path class="cls-3" d="M61,59.64a10.11,10.11,0,1,1,20.21,0V60.9H77.43v8.21H63.53V60.9H61Z"/><path class="cls-4" d="M61,59.64a10.11,10.11,0,1,1,20.21,0V60.9H77.43v8.21H63.53V60.9H61Z"/><line class="cls-4" x1="63.53" y1="60.9" x2="63.53" y2="57.11"/><line class="cls-4" x1="77.43" y1="60.9" x2="77.43" y2="57.11"/><path class="cls-5" d="M70.48,53.32a3.13,3.13,0,0,1-3.12-3.06,9.94,9.94,0,0,1,3.75-.73,10.09,10.09,0,0,1,2.48.32A3.13,3.13,0,0,1,70.48,53.32Z"/><path class="cls-10" d="M77.43,60.9v.63a5.68,5.68,0,0,1-5.05,5.69H71.11a1.9,1.9,0,0,0,0,3.79h1.27c4.17,0,8.84-4.05,8.84-9.48V60.9Z"/></svg>