<svg id="Layer_1" data-name="Layer 1" xmlns="http://www.w3.org/2000/svg" viewBox="0 0 100 100"><defs><style>.cls-1{fill:#f0f2ff;}.cls-2{fill:none;}.cls-2,.cls-3,.cls-4{stroke:#4550e5;stroke-linecap:round;stroke-linejoin:round;}.cls-3,.cls-7{fill:#fff;}.cls-4,.cls-5{fill:#d6daff;}.cls-6{fill:#4550e5;}</style></defs><title>public-speaker</title><path class="cls-1" d="M90,53.45A40,40,0,1,0,13.56,70H86.44A39.85,39.85,0,0,0,90,53.45Z"/><line class="cls-2" x1="11" y1="69.95" x2="89" y2="69.95"/><line class="cls-2" x1="6.5" y1="69.95" x2="9" y2="69.95"/><line class="cls-2" x1="91" y1="69.95" x2="93.5" y2="69.95"/><path class="cls-1" d="M67.17,84.82c0,1-7.46,1.73-16.66,1.73s-16.67-.77-16.67-1.73S41.3,83.1,50.51,83.1,67.17,83.87,67.17,84.82Z"/><path class="cls-3" d="M23.1,28,16.32,47.71A2.41,2.41,0,0,0,16.71,50l6.52,8.25a2.39,2.39,0,0,0,3.58.21l1.69-1.69Z"/><path class="cls-4" d="M16.71,50l6.52,8.25a2.39,2.39,0,0,0,3.58.21l0,0L16.94,45.91l-.62,1.8A2.41,2.41,0,0,0,16.71,50Z"/><polygon class="cls-4" points="17.88 43.17 28.47 56.59 27.5 51.44 18.82 40.44 17.88 43.17"/><polygon class="cls-4" points="23.1 27.95 19.75 37.71 26.54 46.3 23.1 27.95"/><line class="cls-2" x1="23" y1="57.94" x2="23" y2="66.35"/><path class="cls-3" d="M24.3,26.75a1.2,1.2,0,1,1-1.2-1.2A1.2,1.2,0,0,1,24.3,26.75Z"/><polygon class="cls-4" points="21.84 44.27 25.04 38.28 23.1 27.95 18.82 40.44 21.84 44.27"/><path class="cls-3" d="M25.92,68.56A3.22,3.22,0,0,0,23,66.36a3.22,3.22,0,0,0-2.92,2.2A1,1,0,0,0,21,70h4a1,1,0,0,0,.92-1.39Z"/><path class="cls-3" d="M77.9,28l6.78,19.76A2.41,2.41,0,0,1,84.29,50l-6.52,8.25a2.39,2.39,0,0,1-3.58.21L72.5,56.75Z"/><path class="cls-4" d="M84.29,50l-6.52,8.25a2.39,2.39,0,0,1-3.58.21l0,0,9.89-12.51.62,1.8A2.41,2.41,0,0,1,84.29,50Z"/><polygon class="cls-4" points="83.12 43.17 72.53 56.59 73.5 51.44 82.18 40.44 83.12 43.17"/><polygon class="cls-4" points="77.9 27.95 81.25 37.71 74.46 46.3 77.9 27.95"/><line class="cls-2" x1="78" y1="57.94" x2="78" y2="66.35"/><path class="cls-3" d="M76.7,26.75a1.2,1.2,0,1,0,1.2-1.2A1.2,1.2,0,0,0,76.7,26.75Z"/><polygon class="cls-4" points="79.16 44.27 75.96 38.28 77.9 27.95 82.18 40.44 79.16 44.27"/><path class="cls-3" d="M75.08,68.56a3,3,0,0,1,5.84,0A1,1,0,0,1,80,70H76a1,1,0,0,1-.92-1.39Z"/><g id="_Group_" data-name="&lt;Group&gt;"><path class="cls-3" d="M58.56,31.81a1.42,1.42,0,0,0-1.15-1.38v-.92a6.9,6.9,0,1,0-13.8,0v.92a1.41,1.41,0,0,0,.14,2.79,6.9,6.9,0,0,0,13.51,0A1.43,1.43,0,0,0,58.56,31.81Z"/><circle class="cls-5" cx="46.77" cy="32.67" r="0.86"/><circle class="cls-5" cx="54.24" cy="32.67" r="0.86"/><path class="cls-2" d="M48.78,34.74a3.1,3.1,0,0,0,3.45,0"/><path class="cls-6" d="M47.92,29.56a.86.86,0,1,0,.86.86.86.86,0,0,0-.86-.86Z"/><path class="cls-6" d="M53.09,29.56a.86.86,0,1,0,.87.86.87.87,0,0,0-.87-.86Z"/><path class="cls-7" d="M50.28,20.08A7.8,7.8,0,0,0,42.93,28v1.27a.58.58,0,0,0,.79.54c1.11-.46,3-1.52,3-3.53,2.75,2.66,7.3,2.51,10.47,1.67A1.17,1.17,0,0,0,58,26.66,7.59,7.59,0,0,0,50.28,20.08Z"/><path class="cls-2" d="M50.28,20.08A7.8,7.8,0,0,0,42.93,28v1.27a.58.58,0,0,0,.79.54c1.11-.46,3-1.52,3-3.53,2.75,2.66,7.3,2.51,10.47,1.67A1.17,1.17,0,0,0,58,26.66,7.59,7.59,0,0,0,50.28,20.08Z"/></g><path class="cls-3" d="M35,62.29H31.52A2.29,2.29,0,0,1,29.23,60h0a2.29,2.29,0,0,1,2.29-2.3H35Z"/><path class="cls-3" d="M66,62.29h3.46A2.29,2.29,0,0,0,71.77,60h0a2.29,2.29,0,0,0-2.29-2.3H66Z"/><path class="cls-7" d="M50.51,66.54a8.23,8.23,0,0,0,2.36,1.87,4.74,4.74,0,0,0,2.19.55H58V55.13c.72,2.44,2.64,4.2,4,5.42a8.45,8.45,0,0,0,5.81,2.2,7.83,7.83,0,0,1,0-5.52c-4.35,0-4.78-5.32-7-9.86C59.13,44,56.5,41,50.51,41s-8.63,3-10.27,6.36c-2.2,4.54-2.63,9.86-7,9.86a7.94,7.94,0,0,1,0,5.52,8.42,8.42,0,0,0,5.8-2.2c1.33-1.22,3.24-3,4-5.42V69H46a4.68,4.68,0,0,0,2.19-.55A8.14,8.14,0,0,0,50.51,66.54Z"/><path class="cls-2" d="M50.51,66.54a8.23,8.23,0,0,0,2.36,1.87,4.74,4.74,0,0,0,2.19.55H58V55.13c.72,2.44,2.64,4.2,4,5.42a8.45,8.45,0,0,0,5.81,2.2,7.83,7.83,0,0,1,0-5.52c-4.35,0-4.78-5.32-7-9.86C59.13,44,56.5,41,50.51,41s-8.63,3-10.27,6.36c-2.2,4.54-2.63,9.86-7,9.86a7.94,7.94,0,0,1,0,5.52,8.42,8.42,0,0,0,5.8-2.2c1.33-1.22,3.24-3,4-5.42V69H46a4.68,4.68,0,0,0,2.19-.55A8.14,8.14,0,0,0,50.51,66.54Z"/><path class="cls-4" d="M43,61.71V83.56h5.42l.63-14.72a1.43,1.43,0,0,1,2.86,0l.63,14.72H58V61.71Z"/><path class="cls-3" d="M50.51,58.91l4.92-17A12.59,12.59,0,0,0,50.51,41a12.64,12.64,0,0,0-4.93.88Z"/><path class="cls-3" d="M50.51,58.91l-4.93-17a9.25,9.25,0,0,0-3.73,2.85l3.48,3.13v3.45Z"/><path class="cls-3" d="M50.51,58.91l4.92-17a9.25,9.25,0,0,1,3.73,2.85l-3.49,3.13v3.45Z"/><polygon class="cls-4" points="52.56 51.82 50.51 41.01 48.46 51.82 50.51 58.91 52.56 51.82"/><polyline class="cls-2" points="54.2 46.14 50.51 41.01 46.81 46.14"/><line class="cls-2" x1="57.98" y1="63.74" x2="57.98" y2="51.09"/><line class="cls-2" x1="43.02" y1="63.74" x2="43.02" y2="51.09"/><path class="cls-2" d="M66.26,52.51,65.36,44a3.83,3.83,0,0,0-3.92-3.43"/><path class="cls-4" d="M58.44,39.29h2.42a.57.57,0,0,1,.58.57V41a.58.58,0,0,1-.58.58H58.44a1.16,1.16,0,0,1,0-2.3Z"/><path class="cls-2" d="M34.74,52.51,35.65,44a3.84,3.84,0,0,1,3.93-3.43"/><path class="cls-4" d="M42.57,39.29H40.15a.56.56,0,0,0-.57.57V41a.57.57,0,0,0,.57.58h2.42a1.16,1.16,0,0,0,0-2.3Z"/><rect class="cls-3" x="37.27" y="80.69" width="26.45" height="4.02" rx="1.15" ry="1.15"/><path class="cls-7" d="M35.31,56.54l2.5,7.84a1.16,1.16,0,0,0,1.09.78H62.1a1.16,1.16,0,0,0,1.09-.78l2.5-7.84Z"/><path class="cls-2" d="M35.31,56.54l2.5,7.84a1.16,1.16,0,0,0,1.09.78H62.1a1.16,1.16,0,0,0,1.09-.78l2.5-7.84Z"/><path class="cls-3" d="M58,77.81H43A1.15,1.15,0,0,0,41.88,79v1.73H59.12V79A1.15,1.15,0,0,0,58,77.81Z"/><path class="cls-5" d="M66.26,52.51H34.74a2,2,0,1,0,0,4H66.26a2,2,0,1,0,0-4Z"/><path class="cls-2" d="M66.26,52.51H34.74a2,2,0,1,0,0,4H66.26a2,2,0,1,0,0-4Z"/><polygon class="cls-7" points="45.66 64.59 46.87 77.81 54.13 77.81 55.34 64.59 45.66 64.59"/><polygon class="cls-2" points="45.66 64.59 46.87 77.81 54.13 77.81 55.34 64.59 45.66 64.59"/><circle class="cls-4" cx="50.5" cy="62.29" r="5.75"/><circle class="cls-3" cx="50.5" cy="62.29" r="2.88"/></svg>