<svg id="Layer_1" data-name="Layer 1" xmlns="http://www.w3.org/2000/svg" viewBox="0 0 100 100"><defs><style>.cls-1{fill:#f0f2ff;}.cls-2,.cls-7{fill:none;}.cls-2,.cls-4,.cls-6,.cls-7,.cls-8,.cls-9{stroke:#4550e5;stroke-linejoin:round;}.cls-2,.cls-4,.cls-6{stroke-linecap:round;}.cls-3,.cls-4,.cls-8{fill:#fff;}.cls-5,.cls-6,.cls-9{fill:#d6daff;}</style></defs><title>radio-host</title><path class="cls-1" d="M90,55.56a40,40,0,1,0-76.44,16.5H86.43A39.7,39.7,0,0,0,90,55.56Z"/><line class="cls-2" x1="11" y1="72.06" x2="89" y2="72.06"/><line class="cls-2" x1="6.5" y1="72.06" x2="9" y2="72.06"/><line class="cls-2" x1="91" y1="72.06" x2="93.5" y2="72.06"/><path class="cls-3" d="M54.5,48.75A15.65,15.65,0,0,1,70,64.39v7.67H39V64.39A15.65,15.65,0,0,1,54.5,48.75Z"/><path class="cls-2" d="M54.5,48.75A15.65,15.65,0,0,1,70,64.39v7.67H39V64.39A15.65,15.65,0,0,1,54.5,48.75Z"/><path class="cls-4" d="M54.5,44.06c-6-1-13.34-1.2-12,5.5.61,3.08,2.08,3.11,12,8.5,9.92-5.39,11.38-5.42,12-8.5C67.84,42.86,60.5,43.06,54.5,44.06Z"/><path class="cls-4" d="M54.5,44.06c-4.72-.79-10.28-1.08-11.77,2.1C43.92,49,45,49.6,54.5,53.06,64,49.6,65.08,49,66.27,46.16,64.77,43,59.22,43.27,54.5,44.06Z"/><path class="cls-2" d="M49.68,53.37A28.3,28.3,0,0,1,51.49,63.6"/><path class="cls-3" d="M58,46.06V50.2a4.68,4.68,0,0,1-.57,2.26l-2.93,5.6-2.94-5.6A4.79,4.79,0,0,1,51,50.2V46.06Z"/><path class="cls-2" d="M58,46.06V50.2a4.68,4.68,0,0,1-.57,2.26l-2.93,5.6-2.94-5.6A4.79,4.79,0,0,1,51,50.2V46.06Z"/><path class="cls-2" d="M59.32,53.37A28.3,28.3,0,0,0,57.51,63.6"/><path class="cls-4" d="M51.5,77.56H55a2.5,2.5,0,0,1,2.5,2.5v0a2.5,2.5,0,0,1-2.5,2.5H51.5a0,0,0,0,1,0,0v-5A0,0,0,0,1,51.5,77.56Z"/><line class="cls-2" x1="45" y1="71.42" x2="45" y2="62.8"/><path class="cls-4" d="M39,66.79v4.59c0,5.84,4.12,11.47,12.5,11.47v-5a1,1,0,0,0-1-1A5.34,5.34,0,0,1,45,71.38V66.61"/><path class="cls-4" d="M64.5,35.56v-2.5a10,10,0,1,0-20,0v2.5a2,2,0,0,0,0,4h.12a10,10,0,0,0,19.76,0h.12a2,2,0,0,0,0-4Z"/><circle class="cls-5" cx="48.75" cy="39.81" r="1.25"/><circle class="cls-5" cx="60.25" cy="39.81" r="1.25"/><path class="cls-2" d="M57.5,42.35a4.32,4.32,0,0,1-6,0"/><path class="cls-2" d="M52,36.56a1.63,1.63,0,0,0-3,0"/><path class="cls-2" d="M60,36.56a1.63,1.63,0,0,0-3,0"/><path class="cls-3" d="M53.3,21c-7.22,0-10.23,5.27-10.23,10.22V35.4c3,0,3-3.61,3-3.61s7.22,1.2,12-2.41c0,0,3,6,7.83,6V31.18c0-6.05-1.28-8.42-7.22-8.42C58.72,22.76,58.11,21,53.3,21Z"/><path class="cls-2" d="M53.3,21c-7.22,0-10.23,5.27-10.23,10.22V35.4c3,0,3-3.61,3-3.61s7.22,1.2,12-2.41c0,0,3,6,7.83,6V31.18c0-6.05-1.28-8.42-7.22-8.42C58.72,22.76,58.11,21,53.3,21Z"/><path class="cls-2" d="M51.17,39.06H47.91A2.45,2.45,0,0,1,45.5,36.6v-2a1,1,0,0,1,1-1h6.08a1.2,1.2,0,0,1,1.19,1.34l-.21,1.93A2.46,2.46,0,0,1,51.17,39.06Z"/><path class="cls-2" d="M57.83,39.06h3.26A2.45,2.45,0,0,0,63.5,36.6v-2a1,1,0,0,0-1-1H56.42a1.21,1.21,0,0,0-1.2,1.34l.22,1.93A2.45,2.45,0,0,0,57.83,39.06Z"/><line class="cls-2" x1="53.7" y1="35.56" x2="55.29" y2="35.56"/><path class="cls-4" d="M54.5,16.06c-6.67,0-13.5,4.72-13.5,15.5h2c0-9.58,5-13,11.5-13.5C61,18.56,66,22,66,31.56h2C68,20.78,61.17,16.07,54.5,16.06Z"/><path class="cls-6" d="M40.5,31.56h3a1,1,0,0,1,1,1v8.5a1,1,0,0,1-1,1h-3a0,0,0,0,1,0,0V31.56A0,0,0,0,1,40.5,31.56Z"/><path class="cls-3" d="M40.5,42.06c-2.21,0-4-2.35-4-5.25s1.79-5.25,4-5.25Z"/><path class="cls-7" d="M40.5,42.06c-2.21,0-4-2.35-4-5.25s1.79-5.25,4-5.25Z"/><path class="cls-6" d="M64.5,31.56h3a1,1,0,0,1,1,1v8.5a1,1,0,0,1-1,1h-3a0,0,0,0,1,0,0V31.56A0,0,0,0,1,64.5,31.56Z" transform="translate(133 73.62) rotate(180)"/><path class="cls-3" d="M68.5,42.06c2.21,0,4-2.35,4-5.25s-1.79-5.25-4-5.25Z"/><path class="cls-7" d="M68.5,42.06c2.21,0,4-2.35,4-5.25s-1.79-5.25-4-5.25Z"/><path class="cls-5" d="M61.45,16.88a13.42,13.42,0,0,0-13.9,0A1.81,1.81,0,0,0,49.45,20a9.75,9.75,0,0,1,10.1,0,1.81,1.81,0,0,0,1.9-3.07Z"/><path class="cls-2" d="M61.45,16.88a13.42,13.42,0,0,0-13.9,0A1.81,1.81,0,0,0,49.45,20a9.75,9.75,0,0,1,10.1,0,1.81,1.81,0,0,0,1.9-3.07Z"/><line class="cls-2" x1="64.34" y1="63.41" x2="64.34" y2="62.8"/><line class="cls-2" x1="64.34" y1="72.02" x2="64.34" y2="62.8"/><ellipse class="cls-1" cx="21.8" cy="80.56" rx="15" ry="1.5"/><ellipse class="cls-1" cx="65.3" cy="83.56" rx="19.5" ry="1.5"/><path class="cls-4" d="M38.13,50.89,20.84,54.44a1,1,0,0,1-1.18-.78l-1.05-5.12a1,1,0,0,1,.14-.75,1.06,1.06,0,0,1,.63-.43l17.3-3.55Z"/><polyline class="cls-2" points="25.23 59.54 26 58.79 26 55.32"/><path class="cls-6" d="M23.66,63.63l-1.92-1.45,1.81-2.4a1.2,1.2,0,1,1,1.92,1.45Z"/><line class="cls-2" x1="20.6" y1="60.77" x2="7.18" y2="55.18"/><line class="cls-2" x1="18.73" y1="64.45" x2="6.57" y2="59.39"/><path class="cls-2" d="M38.13,50.89,20.84,54.44a1,1,0,0,1-1.18-.78l-1.05-5.12a1,1,0,0,1,.14-.75,1.06,1.06,0,0,1,.63-.43l17.3-3.55Z"/><path class="cls-6" d="M38.13,50.89l1.38-.29a1,1,0,0,0,.77-1.18l-1-5.11a1,1,0,0,0-1.19-.78l-1.37.28Z"/><line class="cls-2" x1="35.29" y1="49.01" x2="35.77" y2="51.37"/><line class="cls-2" x1="34.32" y1="44.3" x2="34.8" y2="46.66"/><line class="cls-2" x1="32.93" y1="49.5" x2="33.41" y2="51.85"/><line class="cls-2" x1="31.96" y1="44.78" x2="32.45" y2="47.14"/><path class="cls-2" d="M26.11,55.2,23.94,44.59l3.23-1.45a1,1,0,0,1,1.38,1.13l-1.17,5.14,3.1,4.25a1,1,0,0,1-.82,1.59Z"/><path class="cls-2" d="M23.94,44.59l-4-.36a1,1,0,0,0-.87,1.62l3.56,4.53-1.58,5.16a1,1,0,0,0,1.34,1.21l3.68-1.55"/><path class="cls-6" d="M18.65,48.74l-.3.06a2.71,2.71,0,0,0,1.09,5.31l.3-.06Z"/><line class="cls-2" x1="22.67" y1="50.38" x2="27.38" y2="49.41"/><circle class="cls-6" cx="21.62" cy="63.6" r="3.01"/><path class="cls-4" d="M22.82,63.6a1.21,1.21,0,1,1-1.2-1.2A1.2,1.2,0,0,1,22.82,63.6Z"/><rect class="cls-4" x="9.5" y="77.06" width="24" height="2.5" rx="1.25" ry="1.25"/><rect class="cls-4" x="10.5" y="74.56" width="24" height="2.5" rx="1.25" ry="1.25"/><rect class="cls-4" x="9.5" y="72.06" width="24" height="2.5" rx="1.25" ry="1.25"/><rect class="cls-4" x="10.5" y="69.56" width="24" height="2.5" rx="1.25" ry="1.25"/><path class="cls-8" d="M59.9,80.06H57.49l5.75-17.67a1.2,1.2,0,0,1,1.14-.83h1.53"/><path class="cls-8" d="M83.36,80.06H59.9l6-18.5H87.73a1.19,1.19,0,0,1,1,.5,1.17,1.17,0,0,1,.17,1.07Z"/><path class="cls-8" d="M83.36,80.06H59v3H81C82.27,83.07,83.36,82.21,83.36,80.06Z"/><path class="cls-8" d="M59,80.06H47c0,2.09,1,3,2.37,3H59Z"/><path class="cls-9" d="M76.55,69.86a1.34,1.34,0,0,1,.64-1.13,1.39,1.39,0,0,0-1.08-.59c-.46,0-.9.28-1.13.28s-.6-.27-1-.26a1.45,1.45,0,0,0-1.22.74,3.11,3.11,0,0,0,.37,3c.25.36.55.76.94.75s.51-.25,1-.25.57.25,1,.24.66-.37.9-.73a2.8,2.8,0,0,0,.41-.84A1.31,1.31,0,0,1,76.55,69.86Z"/><line class="cls-2" x1="75.54" y1="66.61" x2="76.08" y2="66.07"/><path class="cls-7" d="M83.36,80.06H59.9l6-18.5H87.73a1.19,1.19,0,0,1,1,.5,1.17,1.17,0,0,1,.17,1.07Z"/></svg>