<svg id="Layer_1" data-name="Layer 1" xmlns="http://www.w3.org/2000/svg" viewBox="0 0 100 100"><defs><style>.cls-1{fill:#f0f2ff;}.cls-2,.cls-6{fill:none;}.cls-2,.cls-3,.cls-4,.cls-6,.cls-8{stroke:#4550e5;stroke-linejoin:round;}.cls-2,.cls-8{stroke-linecap:round;}.cls-3,.cls-5{fill:#fff;}.cls-4,.cls-7,.cls-8{fill:#d6daff;}</style></defs><title>real-estate-house</title><path class="cls-1" d="M90,56.62a40,40,0,1,0-76.44,16.5H86.44A39.85,39.85,0,0,0,90,56.62Z"/><line class="cls-2" x1="11" y1="73.12" x2="89" y2="73.12"/><line class="cls-2" x1="6.5" y1="73.12" x2="9" y2="73.12"/><line class="cls-2" x1="91" y1="73.12" x2="93.5" y2="73.12"/><path class="cls-3" d="M54,20.53a2.87,2.87,0,0,0-2.87-2.87,2.75,2.75,0,0,0-1,.2,4.78,4.78,0,0,0-9.44,0,2.74,2.74,0,0,0-1-.2,2.88,2.88,0,1,0,0,5.75H51.15A2.87,2.87,0,0,0,54,20.53Z"/><path class="cls-4" d="M85.24,49.11V41.27a1.2,1.2,0,0,0-1.2-1.2H80.68a1.2,1.2,0,0,0-1.2,1.2v2.86Z"/><polygon class="cls-5" points="86.72 73.16 57.94 73.16 57.94 56.1 72.33 43.62 86.72 56.1 86.72 73.16"/><polygon class="cls-6" points="86.72 73.16 57.94 73.16 57.94 56.1 72.33 43.62 86.72 56.1 86.72 73.16"/><path class="cls-4" d="M56.54,56.61a2.13,2.13,0,0,1-1.64-.76,2.19,2.19,0,0,1-.51-1.57,2.16,2.16,0,0,1,.76-1.47L70.93,39.14a2.18,2.18,0,0,1,2.8,0L89.51,52.81a2.16,2.16,0,0,1,.76,1.47,2.19,2.19,0,0,1-.51,1.57,2.13,2.13,0,0,1-1.64.76,2.15,2.15,0,0,1-1.4-.51L72.33,43.62,57.94,56.1A2.15,2.15,0,0,1,56.54,56.61Z"/><path class="cls-4" d="M80.92,40.07H83.8V38.39a1.2,1.2,0,0,0-1.2-1.2h-.48a1.2,1.2,0,0,0-1.2,1.2Z"/><path class="cls-3" d="M61.78,70.28h9.51a1,1,0,0,1,1,1v1.88a0,0,0,0,1,0,0H60.78a0,0,0,0,1,0,0V71.28A1,1,0,0,1,61.78,70.28Z"/><path class="cls-4" d="M70.85,70.28H62.22V63.81a4.32,4.32,0,1,1,8.63,0Z"/><line class="cls-2" x1="67.97" y1="66.68" x2="67.97" y2="65.25"/><circle class="cls-7" cx="72.29" cy="52.3" r="2.88"/><path class="cls-5" d="M74.32,50.26a2.88,2.88,0,0,0-4.91,2,2.83,2.83,0,0,0,.85,2Z"/><circle class="cls-2" cx="72.29" cy="52.3" r="2.88"/><rect class="cls-7" x="76.61" y="60.21" width="5.76" height="8.63" rx="1" ry="1"/><path class="cls-5" d="M82.34,61.32a1.19,1.19,0,0,0-1.18-1.11H77.81a1.2,1.2,0,0,0-1.2,1.2v5.65Z"/><rect class="cls-2" x="76.61" y="60.21" width="5.76" height="8.63" rx="1" ry="1"/><rect class="cls-4" x="29.99" y="49.49" width="20.14" height="14.39" rx="2" ry="2"/><path class="cls-3" d="M30,53.09v-1.2a2.39,2.39,0,0,1,2.39-2.4H47.73a2.4,2.4,0,0,1,2.4,2.4v1.2Z"/><path class="cls-3" d="M51.73,43.47a1.42,1.42,0,0,1-1.36,1H14.88a1.44,1.44,0,0,1-1.37-1L13,42a1.44,1.44,0,0,1,1.37-1.89H50.85a1.42,1.42,0,0,1,1.16.6,1.39,1.39,0,0,1,.2,1.29Z"/><path class="cls-3" d="M25.67,36.06a1.42,1.42,0,0,0-.29-.86l-.72-1a1.43,1.43,0,0,0-2.3,0l-.72,1a1.42,1.42,0,0,0-.29.86v45.8h4.32Z"/><ellipse class="cls-1" cx="30.7" cy="84.38" rx="18.7" ry="1.8"/><path class="cls-8" d="M35.74,80.65A2.66,2.66,0,0,0,33.08,78a2.77,2.77,0,0,0-1.21.3,3.5,3.5,0,0,0-4.66-1.75,5.29,5.29,0,0,0-10,2.15,2.63,2.63,0,0,0-1.78-.7,2.66,2.66,0,1,0,0,5.31h17.7A2.54,2.54,0,0,0,35.74,80.65Z"/><line class="cls-6" x1="32.86" y1="49.49" x2="32.86" y2="44.45"/><line class="cls-6" x1="46.53" y1="49.49" x2="46.53" y2="44.45"/><line class="cls-2" x1="36.46" y1="56.68" x2="43.65" y2="56.68"/><line class="cls-2" x1="34.3" y1="60.28" x2="45.81" y2="60.28"/></svg>