<svg id="Layer_1" data-name="Layer 1" xmlns="http://www.w3.org/2000/svg" viewBox="0 0 100 100"><defs><style>.cls-1{fill:#f0f2ff;}.cls-2,.cls-8,.cls-9{fill:none;}.cls-10,.cls-2,.cls-3,.cls-4,.cls-6,.cls-8,.cls-9{stroke:#4550e5;}.cls-10,.cls-2{stroke-linecap:round;}.cls-10,.cls-2,.cls-4,.cls-6,.cls-8{stroke-linejoin:round;}.cls-10,.cls-3,.cls-4,.cls-5{fill:#fff;}.cls-3,.cls-9{stroke-miterlimit:10;}.cls-6,.cls-7{fill:#d6daff;}</style></defs><title>reggae-male</title><path class="cls-1" d="M90,57.39a40,40,0,1,0-76.44,16.5H86.44A39.88,39.88,0,0,0,90,57.39Z"/><line class="cls-2" x1="11" y1="73.89" x2="89" y2="73.89"/><line class="cls-2" x1="6.5" y1="73.89" x2="9" y2="73.89"/><line class="cls-2" x1="91" y1="73.89" x2="93.5" y2="73.89"/><path class="cls-3" d="M74.08,53.39a.9.9,0,0,0,.32-.09A1,1,0,0,0,74.87,52a10.66,10.66,0,0,1-1.28-6.59,1,1,0,1,0-2-.11,12.49,12.49,0,0,0,1.47,7.57A1,1,0,0,0,74.08,53.39Z"/><path class="cls-3" d="M77.34,52h.07a1,1,0,0,0,.9-1.09c-.53-5.38-1.12-9.4-4-12.08A1,1,0,1,0,73,40.27c2.17,2,2.79,5,3.35,10.81A1,1,0,0,0,77.34,52Z"/><path class="cls-4" d="M79,38.9a2,2,0,0,0-2-2V34.4a9.64,9.64,0,0,0-.16-1.8c1.33,2.88,3.94,8.65,4.57,10.85a43.24,43.24,0,0,1,1.13,7.12,1,1,0,0,1-.93,1.06h-.07a1,1,0,0,1-1-.94A40.06,40.06,0,0,0,79.47,44a34.92,34.92,0,0,0-1.31-3.48A2,2,0,0,0,79,38.9Z"/><path class="cls-3" d="M59.91,53.39A1,1,0,0,1,59.12,52a10.71,10.71,0,0,0,1.27-6.59,1,1,0,0,1,2-.11,12.49,12.49,0,0,1-1.47,7.57A1,1,0,0,1,59.91,53.39Z"/><path class="cls-3" d="M56.64,52h-.06a1,1,0,0,1-.9-1.09c.52-5.38,1.11-9.4,4-12.08A1,1,0,1,1,61,40.27c-2.18,2-2.8,5-3.36,10.81A1,1,0,0,1,56.64,52Z"/><path class="cls-4" d="M55,38.9a2,2,0,0,1,2-2V34.4a10.57,10.57,0,0,1,.16-1.8c-1.33,2.88-3.94,8.65-4.56,10.85a41,41,0,0,0-1.13,7.12,1,1,0,0,0,.93,1.06h.07a1,1,0,0,0,1-.94A41.23,41.23,0,0,1,54.51,44a35.51,35.51,0,0,1,1.32-3.48A2,2,0,0,1,55,38.9Z"/><path class="cls-5" d="M70.49,51.3V47.91h-7V51.3a15.5,15.5,0,0,0-12,15.09v7.5h31v-7.5A15.5,15.5,0,0,0,70.49,51.3Z"/><path class="cls-4" d="M76.49,68.39c-3.44-5.74-1.93-10.57-1.07-15a16.08,16.08,0,0,0-3.84-1.81l-1.11,6.85a3.52,3.52,0,0,1-6.95,0l-1.11-6.85a15.9,15.9,0,0,0-3.84,1.81c.85,4.41,2.38,9.25-1.08,15v5.5h19Z"/><line class="cls-2" x1="57.49" y1="64.89" x2="57.49" y2="73.89"/><line class="cls-2" x1="76.49" y1="64.89" x2="76.49" y2="73.89"/><path class="cls-2" d="M70.49,51.3V47.91h-7V51.3a15.5,15.5,0,0,0-12,15.09v7.5h31v-7.5A15.5,15.5,0,0,0,70.49,51.3Z"/><path class="cls-6" d="M70.49,49.28v2c.83,1.28.67,2.13.67,3.48,0,6.95-2.87,13-4.17,13s-4.16-6-4.16-13c0-1.35-.16-2.2.66-3.48v-2c-2.23,0-2.66,3.27-2.66,5.5,0,6.45,2.69,15,6.16,15s6.17-8.54,6.17-15C73.16,52.55,72.73,49.28,70.49,49.28Z"/><circle class="cls-7" cx="66.99" cy="69.89" r="2.5"/><circle class="cls-8" cx="66.99" cy="69.89" r="2.5"/><path class="cls-9" d="M82.4,64.64a4,4,0,0,1-1.41.25,4.77,4.77,0,0,1-4.5-5,5.19,5.19,0,0,1,1.85-4"/><path class="cls-9" d="M82,62.66a2.45,2.45,0,0,1-1.05.23,2.86,2.86,0,0,1-2.7-3,3.09,3.09,0,0,1,1.27-2.54"/><line class="cls-2" x1="51.49" y1="69.89" x2="57.49" y2="69.89"/><line class="cls-2" x1="51.49" y1="71.89" x2="57.49" y2="71.89"/><path class="cls-10" d="M77,36.9V34.4a10,10,0,0,0-20,0v2.5a2,2,0,0,0,0,4l.13,0a10,10,0,0,0,19.75,0l.12,0a2,2,0,0,0,0-4Z"/><circle class="cls-7" cx="61.24" cy="41.15" r="1.25"/><circle class="cls-7" cx="72.74" cy="41.15" r="1.25"/><path class="cls-4" d="M75.82,44a15.73,15.73,0,0,1-4.38,2.74,8.29,8.29,0,0,0-.24-3.09,1.73,1.73,0,0,0-1.69-1.29h-5a1.73,1.73,0,0,0-1.69,1.29,8.29,8.29,0,0,0-.24,3.09A15.73,15.73,0,0,1,58.16,44v0a10,10,0,0,0,17.68,0Zm-7.69,3.67c-.37.07-.75.13-1.14.17s-.77-.1-1.14-.17a2,2,0,0,1-1.6-2c0-.35.12-1.29.49-1.29h4.5c.37,0,.49.94.49,1.29A2,2,0,0,1,68.13,47.71Z"/><line class="cls-2" x1="65.92" y1="34.92" x2="68.07" y2="34.92"/><line class="cls-2" x1="65.66" y1="36.42" x2="68.32" y2="36.42"/><path class="cls-7" d="M61.18,40.4A3,3,0,0,1,58,37.13a3,3,0,0,1,3-2.73h5C65.75,35.87,65.57,40.4,61.18,40.4Z"/><path class="cls-7" d="M72.8,40.4A3,3,0,0,0,76,37.13a3,3,0,0,0-3-2.73H68C68.24,35.87,68.42,40.4,72.8,40.4Z"/><path class="cls-5" d="M61,34.4a3,3,0,0,0-3,2.73A3,3,0,0,0,58.42,39L63,34.4Z"/><path class="cls-5" d="M73,34.4H68a11.1,11.1,0,0,0,1.08,4l4-4Z"/><circle class="cls-4" cx="77.49" cy="40.88" r="1"/><path class="cls-2" d="M61.18,40.4A3,3,0,0,1,58,37.13a3,3,0,0,1,3-2.73h5C65.75,35.87,65.57,40.4,61.18,40.4Z"/><path class="cls-2" d="M72.8,40.4A3,3,0,0,0,76,37.13a3,3,0,0,0-3-2.73H68C68.24,35.87,68.42,40.4,72.8,40.4Z"/><rect class="cls-4" x="65.99" y="25.4" width="2" height="4"/><rect class="cls-4" x="62.25" y="25.51" width="2" height="4" transform="translate(-2.98 8.25) rotate(-7.29)"/><rect class="cls-4" x="68.74" y="26.51" width="4" height="2" transform="matrix(0.13, -0.99, 0.99, 0.13, 34.48, 94.19)"/><rect class="cls-6" x="60.99" y="29.4" width="12" height="3" rx="1.04" ry="1.04"/><path class="cls-7" d="M77.65,31.27a10.74,10.74,0,0,0-21.31,0,1,1,0,0,0,1,1.13h4.82c0-4,2.21-5.92,4.83-6,2.61.08,4.83,2,4.83,6h4.83A1,1,0,0,0,77.65,31.27Z"/><path class="cls-2" d="M77.65,31.27a10.74,10.74,0,0,0-21.31,0,1,1,0,0,0,1,1.13h4.82c0-4,2.21-5.92,4.83-6,2.61.08,4.83,2,4.83,6h4.83A1,1,0,0,0,77.65,31.27Z"/><ellipse class="cls-1" cx="33.54" cy="81.11" rx="19.5" ry="1.5"/><path class="cls-7" d="M51.49,61.9h-36V58.4a2,2,0,0,1,2-2h32a2,2,0,0,1,2,2Z"/><path class="cls-4" d="M51.49,78.4a2,2,0,0,1-2,2h-32a2,2,0,0,1-2-2V61.9h36Z"/><rect class="cls-6" x="29.49" y="61.9" width="8" height="18.5"/><path class="cls-8" d="M51.49,61.9h-36V58.4a2,2,0,0,1,2-2h32a2,2,0,0,1,2,2Z"/><path class="cls-4" d="M49,61.9H18v-2a1,1,0,0,1,1-1H48a1,1,0,0,1,1,1Z"/><circle class="cls-7" cx="22.49" cy="71.9" r="5"/><circle class="cls-8" cx="22.49" cy="71.9" r="5"/><circle class="cls-4" cx="22.49" cy="71.9" r="2"/><circle class="cls-7" cx="44.49" cy="71.9" r="5"/><circle class="cls-8" cx="44.49" cy="71.9" r="5"/><circle class="cls-5" cx="44.49" cy="71.9" r="2"/><circle class="cls-8" cx="44.49" cy="71.9" r="2"/><rect class="cls-4" x="29.49" y="65.9" width="8" height="4.5"/><line class="cls-2" x1="31.49" y1="73.4" x2="35.49" y2="73.4"/><line class="cls-2" x1="31.49" y1="75.4" x2="35.49" y2="75.4"/><line class="cls-2" x1="31.49" y1="77.4" x2="35.49" y2="77.4"/><path class="cls-8" d="M19,56.4V51.9a1,1,0,0,1,1-1h.5"/><path class="cls-8" d="M48,56.4V51.9a1,1,0,0,0-1-1h-.5"/><path class="cls-7" d="M47,50.65a1.25,1.25,0,0,1-1.25,1.25H21.24a1.25,1.25,0,0,1,0-2.5h24.5A1.25,1.25,0,0,1,47,50.65Z"/><path class="cls-8" d="M47,50.65a1.25,1.25,0,0,1-1.25,1.25H21.24a1.25,1.25,0,0,1,0-2.5h24.5A1.25,1.25,0,0,1,47,50.65Z"/><path class="cls-6" d="M46,56.4h-4.5v-1a1,1,0,0,1,1-1H45a1,1,0,0,1,1,1Z"/><path class="cls-6" d="M24,56.4H22v-1a1,1,0,0,1,2,0Z"/><path class="cls-6" d="M28,56.4H26v-1a1,1,0,0,1,2,0Z"/><path class="cls-6" d="M32,56.4H30v-1a1,1,0,0,1,2,0Z"/><line class="cls-2" x1="41.99" y1="60.56" x2="41.99" y2="61.9"/><rect class="cls-6" x="15.49" y="61.9" width="36" height="2"/></svg>