<svg id="Layer_1" data-name="Layer 1" xmlns="http://www.w3.org/2000/svg" xmlns:xlink="http://www.w3.org/1999/xlink" viewBox="0 0 100 100"><defs><style>.cls-1,.cls-3{fill:none;}.cls-2{fill:#f0f2ff;}.cls-3,.cls-4,.cls-6{stroke:#4550e5;stroke-linecap:round;stroke-linejoin:round;}.cls-4,.cls-7{fill:#fff;}.cls-5{clip-path:url(#clip-path);}.cls-6,.cls-8{fill:#d6daff;}</style><clipPath id="clip-path"><circle class="cls-1" cx="50.3" cy="50" r="40"/></clipPath></defs><title>shopping-shoes-woman</title><path class="cls-2" d="M90.3,50A40,40,0,1,0,13.86,66.5H86.73A39.7,39.7,0,0,0,90.3,50Z"/><line class="cls-3" x1="11.7" y1="66.5" x2="89.7" y2="66.5"/><line class="cls-3" x1="6.7" y1="66.5" x2="9.2" y2="66.5"/><line class="cls-3" x1="90.8" y1="66.5" x2="93.3" y2="66.5"/><line class="cls-4" x1="19.11" y1="52.39" x2="16.24" y2="60.15"/><ellipse class="cls-2" cx="32.71" cy="80.27" rx="17.54" ry="1.72"/><g class="cls-5"><path class="cls-6" d="M57.8,54.05v1a2,2,0,0,0,2,2h9V56a2,2,0,0,0-2-2H65.3l-1.57-2a.51.51,0,0,0-.81,0L62.3,53a5.39,5.39,0,0,1-3.25.08A1,1,0,0,0,57.8,54.05Z"/><path class="cls-4" d="M94.3,31.5H49.55a1.25,1.25,0,0,1,0-2.5H94.3Z"/><path class="cls-4" d="M94.3,45.5H49.55a1.25,1.25,0,0,1,0-2.5H94.3Z"/><path class="cls-4" d="M94.3,59.5H49.55a1.25,1.25,0,0,1,0-2.5H94.3Z"/><path class="cls-4" d="M70.3,24.5h7a.5.5,0,0,1,.5.5v3a1,1,0,0,1-1,1h-6a1,1,0,0,1-1-1V25A.5.5,0,0,1,70.3,24.5Z"/><path class="cls-4" d="M77.8,25a2,2,0,0,1-2,2h-4a2,2,0,0,1-2-2h0a.5.5,0,0,1,.5-.5h7a.5.5,0,0,1,.5.5Z"/><path class="cls-4" d="M59.3,40h1.5c2,1,2.5,1.5,2.5,3H60.21c-2.91,0-2.91-2.5-5.41-2.5A2.5,2.5,0,0,1,52.3,38l.33-1.32a.51.51,0,0,1,.76-.3C54.42,37.06,56.73,38.53,59.3,40Z"/><line class="cls-4" x1="53.8" y1="40.29" x2="53.8" y2="43"/><path class="cls-4" d="M73.8,40h1.5c2,1,2.5,1.5,2.5,3H74.71c-2.91,0-2.91-2.5-5.41-2.5A2.5,2.5,0,0,1,66.8,38l.33-1.32a.51.51,0,0,1,.76-.3C68.92,37.06,71.23,38.53,73.8,40Z"/><line class="cls-4" x1="68.3" y1="40.29" x2="68.3" y2="43"/><path class="cls-4" d="M88.3,40h1.5c2,1,2.5,1.5,2.5,3H89.21c-2.91,0-2.91-2.5-5.41-2.5A2.5,2.5,0,0,1,81.3,38l.33-1.32a.51.51,0,0,1,.76-.3C83.42,37.06,85.73,38.53,88.3,40Z"/><line class="cls-4" x1="82.8" y1="40.29" x2="82.8" y2="43"/><path class="cls-4" d="M65,26.41a2,2,0,0,1-.31,1.78,2,2,0,0,1-1.6.81H57a2,2,0,0,1-1.91-2.59l1.2-3.91h7.5Z"/><path class="cls-3" d="M56.3,22.5v-.75a3.75,3.75,0,0,1,7.5,0v.75"/><path class="cls-6" d="M61.3,25.25a1.25,1.25,0,0,1-2.5,0V22.5h2.5Z"/><path class="cls-4" d="M68.8,57V56a2,2,0,0,0-2-2H65.3v3Z"/><path class="cls-4" d="M58.3,54.5h-.5V55a2,2,0,0,0,2,2h.5v-.5A2,2,0,0,0,58.3,54.5Z"/><path class="cls-4" d="M75.8,54.5H87.3a1,1,0,0,1,1,1V57a0,0,0,0,1,0,0H75.8a0,0,0,0,1,0,0V54.5A0,0,0,0,1,75.8,54.5Z"/><path class="cls-4" d="M75.8,52H86.3a1,1,0,0,1,1,1v1.5a0,0,0,0,1,0,0H75.8a1,1,0,0,1-1-1V53A1,1,0,0,1,75.8,52Z"/></g><path class="cls-7" d="M52.46,45.64a2.07,2.07,0,0,0-.77-.15,2,2,0,0,0-1.86,1.24L48.14,50.8a2.61,2.61,0,0,1-2.39,1.59h-.39a2.59,2.59,0,0,1-2.58-2.59V48.08a10.35,10.35,0,0,0-20.7,0V49.8a2.59,2.59,0,0,1-2.59,2.59h-.38a2.59,2.59,0,0,1-2.39-1.59L15,46.73a2,2,0,0,0-1.85-1.24,2.08,2.08,0,0,0-.78.15,2,2,0,0,0-1.08,2.63L13,52.34a6.59,6.59,0,0,0,6.11,4.07h.41a6.61,6.61,0,0,0,6.58-6V55H38.75v-4.6a6.61,6.61,0,0,0,6.58,6h.42a6.59,6.59,0,0,0,6.1-4.07l1.7-4.07A2,2,0,0,0,52.46,45.64Z"/><path class="cls-3" d="M38.75,55v-4.6a6.61,6.61,0,0,0,6.58,6h.42a6.59,6.59,0,0,0,6.1-4.07l1.7-4.07a2,2,0,0,0-1.09-2.63,2.07,2.07,0,0,0-.77-.15,2,2,0,0,0-1.86,1.24L48.14,50.8a2.61,2.61,0,0,1-2.39,1.59h-.39a2.59,2.59,0,0,1-2.58-2.59V48.08a10.35,10.35,0,0,0-20.7,0V49.8a2.59,2.59,0,0,1-2.59,2.59h-.38a2.59,2.59,0,0,1-2.39-1.59L15,46.73a2,2,0,0,0-1.85-1.24,2.08,2.08,0,0,0-.78.15,2,2,0,0,0-1.08,2.63L13,52.34a6.59,6.59,0,0,0,6.11,4.07h.41a6.61,6.61,0,0,0,6.58-6V55Z"/><path class="cls-7" d="M38.75,79.12V55H26.1V79.12a1.15,1.15,0,0,0,1.15,1.15H37.6A1.14,1.14,0,0,0,38.75,79.12Z"/><path class="cls-3" d="M38.75,79.12V55H26.1V79.12a1.15,1.15,0,0,0,1.15,1.15H37.6A1.14,1.14,0,0,0,38.75,79.12Z"/><line class="cls-3" x1="32.43" y1="63.6" x2="32.43" y2="80.27"/><path class="cls-6" d="M32.43,80.27A3.45,3.45,0,0,0,29,76.82H28.4a3.44,3.44,0,0,0-3,1.79,1.14,1.14,0,0,0,1,1.66Z"/><path class="cls-6" d="M38.44,80.27a1.14,1.14,0,0,0,1-1.66,3.45,3.45,0,0,0-3-1.79h-.57a3.45,3.45,0,0,0-3.45,3.45Z"/><path class="cls-8" d="M38.18,43.48v-4a10.45,10.45,0,0,0-2.34-1.17c-.36,1.72-1.49,4.77-3.41,5.75-1.93-1-3.06-4-3.41-5.75a10.24,10.24,0,0,0-2.34,1.17v4c-1.45,2.88-2.27,3.78-1.16,5.33a5.39,5.39,0,0,1,.58,1.57V55H38.75v-4.6a5.14,5.14,0,0,1,.59-1.57C40.44,47.26,39.62,46.36,38.18,43.48Z"/><path class="cls-3" d="M38.18,43.48v-4a10.45,10.45,0,0,0-2.34-1.17c-.36,1.72-1.49,4.77-3.41,5.75-1.93-1-3.06-4-3.41-5.75a10.24,10.24,0,0,0-2.34,1.17v4c-1.45,2.88-2.27,3.78-1.16,5.33a5.39,5.39,0,0,1,.58,1.57V55H38.75v-4.6a5.14,5.14,0,0,1,.59-1.57C40.44,47.26,39.62,46.36,38.18,43.48Z"/><line class="cls-4" x1="19.11" y1="52.39" x2="21.98" y2="60.15"/><path class="cls-6" d="M15.1,60.15h8.2a.5.5,0,0,1,.5.5v3.68a1,1,0,0,1-1,1H15.6a1,1,0,0,1-1-1V60.65A.5.5,0,0,1,15.1,60.15Z"/><path class="cls-6" d="M23.8,60.73A2.29,2.29,0,0,1,21.5,63H16.9a2.3,2.3,0,0,1-2.3-2.3h0a.58.58,0,0,1,.58-.58h8.05a.57.57,0,0,1,.57.58Z"/><path class="cls-4" d="M24.37,28.53a1.41,1.41,0,0,1,1.15-1.38v-.92a6.9,6.9,0,1,1,13.8,0v.92a1.4,1.4,0,0,1-.14,2.78,6.9,6.9,0,0,1-13.51,0A1.41,1.41,0,0,1,24.37,28.53Z"/><circle class="cls-8" cx="36.16" cy="29.39" r="0.86"/><path class="cls-7" d="M40.47,28.53a1.41,1.41,0,0,1-1.29,1.4,6.92,6.92,0,0,1-3.9,4.88,5.24,5.24,0,0,1,.48,3.48,10.31,10.31,0,0,1,5.15,3.88,7.19,7.19,0,0,0,.71-3.31V26.23A9.11,9.11,0,0,0,38.12,19a7.47,7.47,0,0,0-8-.8A3.93,3.93,0,0,0,27.37,17a4.15,4.15,0,0,0-4.14,4.12V38.86c0,4,2,5.38,5.24,7.17a1.15,1.15,0,0,0,1.63-.56c2.4-6-2.86-5.17-.54-10.66a6.91,6.91,0,0,1-3.89-4.88,1.4,1.4,0,0,1-.15-2.78,5.08,5.08,0,0,0,2.33-4.24,2.29,2.29,0,0,1,2.3-2.43,1.72,1.72,0,0,1,1.62,1.13,1.06,1.06,0,0,0,.67.68c2.1.66,4.78,4.58,6.9,4.86A1.41,1.41,0,0,1,40.47,28.53Z"/><circle class="cls-8" cx="28.69" cy="29.39" r="0.86"/><path class="cls-3" d="M34.15,31.45a3.1,3.1,0,0,1-3.45,0"/><path class="cls-3" d="M35.54,27.38a1,1,0,0,0-1.39,0"/><path class="cls-3" d="M30.7,27.38a1,1,0,0,0-1.38,0"/><path class="cls-3" d="M40.47,28.53a1.41,1.41,0,0,1-1.29,1.4,6.92,6.92,0,0,1-3.9,4.88,5.24,5.24,0,0,1,.48,3.48,10.31,10.31,0,0,1,5.15,3.88,7.19,7.19,0,0,0,.71-3.31V26.23A9.11,9.11,0,0,0,38.12,19a7.47,7.47,0,0,0-8-.8A3.93,3.93,0,0,0,27.37,17a4.15,4.15,0,0,0-4.14,4.12V38.86c0,4,2,5.38,5.24,7.17a1.15,1.15,0,0,0,1.63-.56c2.4-6-2.86-5.17-.54-10.66a6.91,6.91,0,0,1-3.89-4.88,1.4,1.4,0,0,1-.15-2.78,5.08,5.08,0,0,0,2.33-4.24,2.29,2.29,0,0,1,2.3-2.43,1.72,1.72,0,0,1,1.62,1.13,1.06,1.06,0,0,0,.67.68c2.1.66,4.78,4.58,6.9,4.86A1.41,1.41,0,0,1,40.47,28.53Z"/><path class="cls-4" d="M46.85,72.43h-2.2a1.15,1.15,0,0,1-1.15-1.2L44,59.73a1.14,1.14,0,0,1,1.14-1.1h1.25a1.15,1.15,0,0,1,1.15,1.1L48,71.23A1.16,1.16,0,0,1,46.85,72.43Z"/><line class="cls-3" x1="45.75" y1="58.63" x2="45.75" y2="51.15"/><path class="cls-4" d="M41.61,72.21l-2.16-.41a1.16,1.16,0,0,1-.91-1.39L41.15,59.2a1.14,1.14,0,0,1,1.33-.87l1.22.23a1.14,1.14,0,0,1,.93,1.29L43,71.24A1.16,1.16,0,0,1,41.61,72.21Z"/><line class="cls-3" x1="43.09" y1="58.44" x2="44.48" y2="51.1"/><path class="cls-4" d="M49.88,72.21,52,71.8A1.15,1.15,0,0,0,53,70.41L50.35,59.2A1.15,1.15,0,0,0,49,58.33l-1.22.23a1.14,1.14,0,0,0-.92,1.29l1.66,11.39A1.15,1.15,0,0,0,49.88,72.21Z"/><line class="cls-3" x1="48.4" y1="58.44" x2="47.02" y2="51.1"/></svg>