<svg id="Layer_1" data-name="Layer 1" xmlns="http://www.w3.org/2000/svg" viewBox="0 0 100 100"><defs><style>.cls-1{fill:#f0f2ff;}.cls-2,.cls-4,.cls-5{fill:none;}.cls-2,.cls-4,.cls-5,.cls-6{stroke:#4550e5;}.cls-2{stroke-linecap:round;}.cls-2,.cls-4,.cls-6{stroke-linejoin:round;}.cls-3{fill:#fff;}.cls-5{stroke-miterlimit:10;}.cls-6,.cls-7{fill:#d6daff;}</style></defs><title>stamp-document</title><path class="cls-1" d="M90.5,56.1A40,40,0,1,0,14.06,72.6H86.94A39.85,39.85,0,0,0,90.5,56.1Z"/><line class="cls-2" x1="11" y1="72.6" x2="89" y2="72.6"/><line class="cls-2" x1="6.5" y1="72.6" x2="9" y2="72.6"/><line class="cls-2" x1="91" y1="72.6" x2="93.5" y2="72.6"/><path class="cls-1" d="M74.93,82c0,1-11,1.9-24.67,1.9S25.6,83.05,25.6,82s11-1.9,24.66-1.9S74.93,81,74.93,82Z"/><path class="cls-3" d="M77.46,79.47a1.26,1.26,0,0,1-1.26,1.27H44.05a1.27,1.27,0,0,1-1.27-1.27V35.2a1.27,1.27,0,0,1,1.27-1.27H70.61a1.26,1.26,0,0,1,.9.37l5.58,5.58a1.26,1.26,0,0,1,.37.9Z"/><path class="cls-4" d="M77.46,79.47a1.26,1.26,0,0,1-1.26,1.27H44.05a1.27,1.27,0,0,1-1.27-1.27V35.2a1.27,1.27,0,0,1,1.27-1.27H70.61a1.26,1.26,0,0,1,.9.37l5.58,5.58a1.26,1.26,0,0,1,.37.9Z"/><circle class="cls-5" cx="68.08" cy="69.35" r="6.33"/><polyline class="cls-2" points="64.92 69.35 67.45 71.88 71.56 67.14"/><line class="cls-2" x1="51.01" y1="49.11" x2="70.61" y2="49.11"/><line class="cls-2" x1="52.79" y1="45.32" x2="61.2" y2="45.32"/><line class="cls-2" x1="51.01" y1="52.91" x2="70.61" y2="52.91"/><line class="cls-2" x1="51.01" y1="56.7" x2="70.61" y2="56.7"/><path class="cls-6" d="M71.14,39.11a1.15,1.15,0,0,0,1.15,1.15h5a1.19,1.19,0,0,0-.25-.38L71.51,34.3a1.51,1.51,0,0,0-.37-.25Z"/><path class="cls-3" d="M24.54,68.09H55.75a4,4,0,0,1,4,4v3.85a1,1,0,0,1-1,1H21.54a1,1,0,0,1-1-1V72.09a4,4,0,0,1,4-4Z"/><path class="cls-3" d="M46.07,51.64H34.22a2.47,2.47,0,0,1-.81-.15c.62,1.29,2.31,5.79,2.31,16.6h8.85c0-10.81,1.69-15.31,2.31-16.6A2.47,2.47,0,0,1,46.07,51.64Z"/><path class="cls-7" d="M56.85,80a1.14,1.14,0,0,1-1.09.79H24.53A1.14,1.14,0,0,1,23.44,80l-1-3H57.86Z"/><path class="cls-4" d="M24.54,68.09H55.75a4,4,0,0,1,4,4v3.85a1,1,0,0,1-1,1H21.54a1,1,0,0,1-1-1V72.09a4,4,0,0,1,4-4Z"/><path class="cls-4" d="M46.07,51.64H34.22a2.47,2.47,0,0,1-.81-.15c.62,1.29,2.31,5.79,2.31,16.6h8.85c0-10.81,1.69-15.31,2.31-16.6A2.47,2.47,0,0,1,46.07,51.64Z"/><path class="cls-4" d="M56.85,80a1.14,1.14,0,0,1-1.09.79H24.53A1.14,1.14,0,0,1,23.44,80l-1-3H57.86Z"/><line class="cls-4" x1="35.64" y1="64.29" x2="44.65" y2="64.29"/><rect class="cls-3" x="31.92" y="41.52" width="16.45" height="10.12" rx="2" ry="2"/><rect class="cls-4" x="31.92" y="41.52" width="16.45" height="10.12" rx="2" ry="2"/></svg>