<svg id="Layer_1" data-name="Layer 1" xmlns="http://www.w3.org/2000/svg" viewBox="0 0 100 100"><defs><style>.cls-1{fill:#f0f2ff;}.cls-2,.cls-4{fill:none;}.cls-2,.cls-4,.cls-6,.cls-7,.cls-8{stroke:#4550e5;stroke-linejoin:round;}.cls-2,.cls-6{stroke-linecap:round;}.cls-3,.cls-8{fill:#d6daff;}.cls-5,.cls-6,.cls-7{fill:#fff;}</style></defs><title>surgeon</title><path class="cls-1" d="M90,57.32a40,40,0,1,0-76.44,16.5H86.44A39.85,39.85,0,0,0,90,57.32Z"/><line class="cls-2" x1="11" y1="73.82" x2="89" y2="73.82"/><line class="cls-2" x1="6.5" y1="73.82" x2="9" y2="73.82"/><line class="cls-2" x1="91" y1="73.82" x2="93.5" y2="73.82"/><path class="cls-3" d="M86.26,74.68a3,3,0,0,0-4.13-1l-2,1.2a1.28,1.28,0,0,1-.64.17,1.23,1.23,0,0,1-1.23-1.23v-7.7a15.65,15.65,0,1,0-31.29,0v7.73H72.24A7.24,7.24,0,0,0,79.49,81a7.32,7.32,0,0,0,3.73-1l2-1.2A3,3,0,0,0,86.26,74.68Z"/><path class="cls-4" d="M86.26,74.68a3,3,0,0,0-4.13-1l-2,1.2a1.28,1.28,0,0,1-.64.17,1.23,1.23,0,0,1-1.23-1.23v-7.7a15.65,15.65,0,1,0-31.29,0v7.73H72.24A7.24,7.24,0,0,0,79.49,81a7.32,7.32,0,0,0,3.73-1l2-1.2A3,3,0,0,0,86.26,74.68Z"/><path class="cls-5" d="M21.5,61.82H41.76a1,1,0,0,1,1,1v11a0,0,0,0,1,0,0H20.5a0,0,0,0,1,0,0v-11A1,1,0,0,1,21.5,61.82Z"/><path class="cls-6" d="M72.85,37v-2.4a10.23,10.23,0,1,0-20.46,0V37a1.81,1.81,0,0,0-1.81,1.81v.6a1.81,1.81,0,0,0,1.81,1.81l.17,0a10.22,10.22,0,0,0,20.12,0l.17,0a1.81,1.81,0,0,0,1.8-1.81v-.6A1.81,1.81,0,0,0,72.85,37Z"/><line class="cls-2" x1="72.24" y1="73.82" x2="72.24" y2="64.5"/><line class="cls-2" x1="52.99" y1="73.82" x2="52.99" y2="64.5"/><path class="cls-5" d="M66.23,53.09a4.09,4.09,0,0,1-7.22,0V47.68h7.22Z"/><path class="cls-2" d="M66.23,53.09a4.09,4.09,0,0,1-7.22,0V47.68h7.22Z"/><path class="cls-3" d="M57.8,41.26a1.2,1.2,0,1,1-1.2-1.21A1.2,1.2,0,0,1,57.8,41.26Z"/><path class="cls-3" d="M69.84,41.26a1.21,1.21,0,1,1-1.21-1.21A1.21,1.21,0,0,1,69.84,41.26Z"/><path class="cls-2" d="M68,38.05a1.63,1.63,0,0,0-3,0"/><path class="cls-2" d="M60.21,38.05a1.63,1.63,0,0,0-3,0"/><path class="cls-6" d="M51.19,34.71V37a3.12,3.12,0,0,1,3,2.4V34.21C52.38,34.47,51.19,34.71,51.19,34.71Z"/><path class="cls-6" d="M71,34.21v5.21a3.13,3.13,0,0,1,3-2.4V34.71S72.85,34.47,71,34.21Z"/><path class="cls-3" d="M65,20.83a46.05,46.05,0,0,0-4.7,0,9.55,9.55,0,0,0-8.92,8.8c-.1,1.23-.16,3.83-.16,5.08a68.31,68.31,0,0,1,11.43-1.2,68.47,68.47,0,0,1,11.43,1.2c0-1.25-.07-3.85-.16-5.08A9.55,9.55,0,0,0,65,20.83Z"/><path class="cls-2" d="M65,20.83a46.05,46.05,0,0,0-4.7,0,9.55,9.55,0,0,0-8.92,8.8c-.1,1.23-.16,3.83-.16,5.08a68.31,68.31,0,0,1,11.43-1.2,68.47,68.47,0,0,1,11.43,1.2c0-1.25-.07-3.85-.16-5.08A9.55,9.55,0,0,0,65,20.83Z"/><path class="cls-6" d="M69.84,41.26a12.63,12.63,0,0,1-7.22-1.13,12.63,12.63,0,0,1-7.22,1.13,13.12,13.12,0,0,1,.47,5.86,10.18,10.18,0,0,0,13.5,0A13.12,13.12,0,0,1,69.84,41.26Z"/><line class="cls-2" x1="54.19" y1="39.42" x2="55.4" y2="41.26"/><line class="cls-2" x1="71.04" y1="39.42" x2="69.84" y2="41.26"/><polyline class="cls-2" points="56 44.34 62.62 43.13 69.24 44.34"/><polyline class="cls-2" points="56 46.14 62.62 47.35 69.24 46.14"/><path class="cls-4" d="M21.5,61.82H41.76a1,1,0,0,1,1,1v11a0,0,0,0,1,0,0H20.5a0,0,0,0,1,0,0v-11A1,1,0,0,1,21.5,61.82Z"/><path class="cls-7" d="M22.7,58.78H40.56a1,1,0,0,1,1,1v2a0,0,0,0,1,0,0H21.7a0,0,0,0,1,0,0v-2A1,1,0,0,1,22.7,58.78Z"/><rect class="cls-5" x="28.32" y="55.77" width="6.62" height="3.01"/><rect class="cls-4" x="28.32" y="55.77" width="6.62" height="3.01"/><rect class="cls-7" x="19.3" y="38.32" width="24.67" height="17.45" rx="2" ry="2"/><path class="cls-7" d="M26.05,73.76H23.64V68.34a4.22,4.22,0,0,1,2.9-4,1,1,0,0,1,1.31,1v.43a1,1,0,0,1-.64.94,1.79,1.79,0,0,0-1.16,1.68Z"/><path class="cls-7" d="M31.93,73.82h-2.4V68.41a4.21,4.21,0,0,1,2.89-4,1,1,0,0,1,.9.14,1,1,0,0,1,.42.81v.43a1,1,0,0,1-.65.93,1.82,1.82,0,0,0-1.16,1.69Z"/><path class="cls-7" d="M39.15,65.4A1.2,1.2,0,1,1,38,64.2,1.2,1.2,0,0,1,39.15,65.4Z"/><path class="cls-7" d="M39.15,69.61a1.2,1.2,0,1,1-1.2-1.2A1.21,1.21,0,0,1,39.15,69.61Z"/><rect class="cls-3" x="22.31" y="41.33" width="18.65" height="11.43" rx="1" ry="1"/><polyline class="cls-4" points="22.3 47.95 25.31 47.95 27.12 43.74 28.32 50.35 30.13 45.54 31.33 47.95 33.74 47.95 34.94 49.75 36.14 44.94 37.35 47.95 40.96 47.95"/><rect class="cls-4" x="22.31" y="41.33" width="18.65" height="11.43" rx="1" ry="1"/><line class="cls-4" x1="30.76" y1="65.43" x2="32.46" y2="67.13"/><line class="cls-4" x1="29.53" y1="68.41" x2="31.93" y2="69.01"/><line class="cls-4" x1="29.53" y1="71.41" x2="31.93" y2="71.41"/><line class="cls-4" x1="24.74" y1="65.43" x2="26.44" y2="67.13"/><line class="cls-4" x1="23.51" y1="68.41" x2="25.92" y2="69.01"/><line class="cls-4" x1="23.51" y1="71.41" x2="25.92" y2="71.41"/><path class="cls-7" d="M89.3,58a.68.68,0,0,0-1.18.21l-3,9.09L87,69.39l1-3.09.33-.27a5.73,5.73,0,0,0,1-8.06Z"/><path class="cls-8" d="M83.63,81.56A1.58,1.58,0,0,1,82,82.66a1.51,1.51,0,0,1-1.21-2l4.41-13.43,1.94,2.24a.93.93,0,0,1,.18.92Z"/><line class="cls-4" x1="84.21" y1="70.12" x2="86.51" y2="72.78"/><path class="cls-6" d="M86.39,79.88a1.21,1.21,0,0,1-1.35.51l-2.68-.76a2.87,2.87,0,0,1-2-3.56l.39-1.39a2.88,2.88,0,0,1,3.57-2l2.67.76a1.2,1.2,0,0,1,.88,1.14A9.79,9.79,0,0,1,86.39,79.88Z"/><path class="cls-2" d="M86.39,79.88a1.21,1.21,0,0,1-1.35.51l-2.68-.76a2.87,2.87,0,0,1-2-3.56l.39-1.39a2.88,2.88,0,0,1,3.57-2l2.67.76a1.2,1.2,0,0,1,.88,1.14,9.79,9.79,0,0,1-1.5,5.29Z"/></svg>