<svg id="Layer_1" data-name="Layer 1" xmlns="http://www.w3.org/2000/svg" viewBox="0 0 100 100"><defs><style>.cls-1{fill:#f0f2ff;}.cls-2,.cls-8{fill:none;}.cls-2,.cls-3,.cls-4,.cls-7,.cls-8{stroke:#4550e5;stroke-linejoin:round;}.cls-2,.cls-3,.cls-4{stroke-linecap:round;}.cls-3,.cls-6{fill:#fff;}.cls-4,.cls-7,.cls-9{fill:#d6daff;}.cls-5{fill:#4550e5;}</style></defs><title>teacher-maths-female</title><path class="cls-1" d="M90,53.25a40,40,0,1,0-76.44,16.5H86.44A39.85,39.85,0,0,0,90,53.25Z"/><line class="cls-2" x1="11" y1="69.75" x2="89" y2="69.75"/><line class="cls-2" x1="6.5" y1="69.75" x2="9" y2="69.75"/><line class="cls-2" x1="91" y1="69.75" x2="93.5" y2="69.75"/><path class="cls-3" d="M47,32.75H82a2,2,0,0,1,2,2v19.5a0,0,0,0,1,0,0H45a0,0,0,0,1,0,0V34.75A2,2,0,0,1,47,32.75Z"/><path class="cls-4" d="M86.32,55.5a1.23,1.23,0,0,1-1.2,1.25H44.2a1.25,1.25,0,0,1,0-2.5H85.12A1.23,1.23,0,0,1,86.32,55.5Z"/><path class="cls-5" d="M55.79,40.81h-.64a.7.7,0,0,1-.74-.75.72.72,0,0,1,.74-.74h1.54a.7.7,0,0,1,.72.77v6.16a.81.81,0,1,1-1.62,0Z"/><path class="cls-5" d="M60.75,42.07a.65.65,0,0,1,1.3,0v1.57h1.57a.65.65,0,0,1,0,1.3H62.05v1.57a.65.65,0,0,1-1.3,0V44.94H59.18a.65.65,0,0,1,0-1.3h1.57Z"/><path class="cls-5" d="M66.29,40.81h-.64a.7.7,0,0,1-.73-.75.72.72,0,0,1,.73-.74h1.54a.7.7,0,0,1,.73.77v6.16a.82.82,0,1,1-1.63,0Z"/><path class="cls-5" d="M74.12,42.43a.65.65,0,1,1,0,1.3H69.68a.65.65,0,1,1,0-1.3Zm0,2.42a.65.65,0,1,1,0,1.3H69.68a.65.65,0,1,1,0-1.3Z"/><rect class="cls-3" x="52.5" y="59.25" width="27" height="3.01" rx="1" ry="1"/><rect class="cls-6" x="53.5" y="62.26" width="25" height="7.49"/><rect class="cls-2" x="53.5" y="62.26" width="25" height="7.49"/><rect class="cls-3" x="76" y="51.25" width="2.5" height="8"/><rect class="cls-3" x="73.5" y="51.25" width="2.5" height="8"/><rect class="cls-4" x="69.62" y="51.27" width="2.41" height="7.82" transform="translate(28.12 -23.8) rotate(23.68)"/><path class="cls-6" d="M49.75,60.25h0l-.72.86a2.27,2.27,0,0,1-4-1.47V55.75a9,9,0,0,0-18,0v12h3.5v-3h11V59.64a5.8,5.8,0,0,0,5.77,5.91,5.89,5.89,0,0,0,4.53-2.13l.79-.94Z"/><path class="cls-2" d="M49.75,60.25h0l-.72.86a2.27,2.27,0,0,1-4-1.47V55.75a9,9,0,0,0-18,0v12h3.5v-3h11V59.64a5.8,5.8,0,0,0,5.77,5.91,5.89,5.89,0,0,0,4.53-2.13l.79-.94Z"/><ellipse class="cls-1" cx="36" cy="85.25" rx="10" ry="1.5"/><path class="cls-7" d="M36,84.05a1.2,1.2,0,0,1-1.2,1.2H32.13A1.21,1.21,0,0,1,31,83.75l1-3.5h4Z"/><path class="cls-3" d="M30.5,69.5a1.75,1.75,0,0,1-3.5,0V67.75h3.5Z"/><path class="cls-3" d="M34,82.58c-1.14,0-2-.67-2-2.33h4C36,81.91,35.15,82.58,34,82.58Z"/><path class="cls-7" d="M36,84.05a1.2,1.2,0,0,0,1.2,1.2h2.67A1.21,1.21,0,0,0,41,83.75l-1-3.5H36Z"/><path class="cls-3" d="M38,82.58c1.14,0,2-.67,2-2.33H36C36,81.91,36.85,82.58,38,82.58Z"/><line class="cls-2" x1="36" y1="50.36" x2="36" y2="64.75"/><path class="cls-2" d="M30.5,66.75v-7c0-1.86-1.23-2.43-1.23-4.48"/><path class="cls-2" d="M41.5,64.25V59.73c0-1.86,1.23-2.43,1.23-4.48"/><path class="cls-3" d="M53.62,61.19l-1,1.3-2.84-2.24,1-1.3a1.81,1.81,0,0,1,2.54-.3h0A1.81,1.81,0,0,1,53.62,61.19Z"/><line class="cls-2" x1="52.39" y1="60.38" x2="61.99" y2="49.97"/><polygon class="cls-7" points="30.5 64.75 32 80.25 40 80.25 41.5 64.75 30.5 64.75"/><polygon class="cls-8" points="30.5 64.75 32 80.25 40 80.25 41.5 64.75 30.5 64.75"/><line class="cls-2" x1="36" y1="80.25" x2="36" y2="68.8"/><path class="cls-3" d="M43,38.75a1.23,1.23,0,0,0-1-1.2v-.8a6,6,0,0,0-12,0v.8a1.23,1.23,0,0,0-1,1.2A1.25,1.25,0,0,0,30.13,40a6,6,0,0,0,11.74,0A1.25,1.25,0,0,0,43,38.75Z"/><circle class="cls-9" cx="32.75" cy="39.5" r="0.75"/><circle class="cls-9" cx="39.25" cy="39.5" r="0.75"/><path class="cls-2" d="M38.7,37.75a.85.85,0,0,0-1.2,0"/><path class="cls-2" d="M33.3,37.75a.85.85,0,0,1,1.2,0"/><path class="cls-2" d="M37.5,41.25a2.5,2.5,0,0,1-3,0"/><path class="cls-6" d="M44.2,38.35c-1.26-3.79-3.63-9-8.2-9.16-4.57.13-6.94,5.37-8.2,9.16A6,6,0,0,0,31,45.68L33.79,47a8.33,8.33,0,0,0-3,1.48c.67,2,1.07,4.72,5.24,4.8,4.17-.08,4.57-2.8,5.24-4.8a8.33,8.33,0,0,0-3-1.48L41,45.68A6,6,0,0,0,44.2,38.35ZM36,44.82c-3.3-.08-4.76-2.64-5.56-4.21-1-1.9,2.22-7,5.56-7.21,3.34.18,6.53,5.31,5.56,7.21C40.76,42.18,39.3,44.74,36,44.82Z"/><path class="cls-2" d="M36,44.82c-3.3-.08-4.76-2.64-5.56-4.21-1-1.9,2.22-7,5.56-7.21,3.34.18,6.53,5.31,5.56,7.21C40.76,42.18,39.3,44.74,36,44.82Z"/><path class="cls-2" d="M33.69,49.64a4.75,4.75,0,0,0,4.62,0"/><path class="cls-2" d="M44.2,38.35c-1.26-3.79-3.63-9-8.2-9.16-4.57.13-6.94,5.37-8.2,9.16A6,6,0,0,0,31,45.68L33.79,47a8.33,8.33,0,0,0-3,1.48c.67,2,1.07,4.72,5.24,4.8,4.17-.08,4.57-2.8,5.24-4.8a8.33,8.33,0,0,0-3-1.48L41,45.68A6,6,0,0,0,44.2,38.35Z"/></svg>