<svg id="Layer_1" data-name="Layer 1" xmlns="http://www.w3.org/2000/svg" viewBox="0 0 100 100"><defs><style>.cls-1{fill:#f0f2ff;}.cls-2{fill:none;}.cls-2,.cls-4,.cls-5{stroke:#4550e5;stroke-linecap:round;stroke-linejoin:round;}.cls-3,.cls-5{fill:#fff;}.cls-4,.cls-6{fill:#d6daff;}</style></defs><title>user-female-add</title><path class="cls-1" d="M90.5,53.88a40,40,0,1,0-76.44,16.5H86.94A39.85,39.85,0,0,0,90.5,53.88Z"/><line class="cls-2" x1="11" y1="70.38" x2="89" y2="70.38"/><line class="cls-2" x1="6.5" y1="70.38" x2="9" y2="70.38"/><line class="cls-2" x1="91" y1="70.38" x2="93.5" y2="70.38"/><path class="cls-3" d="M44,52.37A14.76,14.76,0,0,0,29,67.12v3.26H59V67.12A14.76,14.76,0,0,0,44,52.37Z"/><path class="cls-2" d="M44,52.37A14.76,14.76,0,0,0,29,67.12v3.26H59V67.12A14.76,14.76,0,0,0,44,52.37Z"/><line class="cls-2" x1="34.5" y1="70.37" x2="34.5" y2="65.87"/><line class="cls-2" x1="53.5" y1="70.37" x2="53.5" y2="65.87"/><path class="cls-4" d="M44,58.88a6,6,0,0,0,5.84-5.42A14.91,14.91,0,0,0,44,52.37a14.91,14.91,0,0,0-5.84,1.09A6,6,0,0,0,44,58.88Z"/><path class="cls-3" d="M40.5,47.88v5.27a3.5,3.5,0,1,0,7,0V47.88Z"/><path class="cls-2" d="M40.5,47.88v5.27a3.5,3.5,0,1,0,7,0V47.88Z"/><path class="cls-5" d="M54,38.38v-2.5a10,10,0,0,0-20,0v2.5a2,2,0,0,0,0,4h.12a10,10,0,0,0,19.76,0H54a2,2,0,0,0,0-4Z"/><circle class="cls-6" cx="38.25" cy="42.14" r="1.25"/><circle class="cls-6" cx="49.75" cy="42.14" r="1.25"/><path class="cls-2" d="M41,44.68a4.38,4.38,0,0,0,6,0"/><path class="cls-2" d="M41.5,38.89a1.63,1.63,0,0,0-3,0"/><path class="cls-2" d="M49.51,38.89a1.63,1.63,0,0,0-3,0"/><path class="cls-3" d="M55.2,34.75a1.25,1.25,0,0,0-.5-.06l-.06-.07a1.78,1.78,0,0,0,1.26-1.14,1.79,1.79,0,0,0-2.27-2.3l-.09-.29A2.4,2.4,0,0,0,50.73,27l-.13-.13-.07,0a2.52,2.52,0,0,0,.07-.56,2.39,2.39,0,0,0-2.4-2.4,2.37,2.37,0,0,0-1.83.87A2.4,2.4,0,0,0,44,22.68h0a2.4,2.4,0,0,0-2.37,2.07,2.37,2.37,0,0,0-1.83-.87,2.4,2.4,0,0,0-2.4,2.4,2.52,2.52,0,0,0,.07.56l-.07,0-.13.13a2.4,2.4,0,0,0-2.81,3.88l-.09.29a1.79,1.79,0,0,0-2.27,2.3,1.78,1.78,0,0,0,1.26,1.14l-.06.07a1.25,1.25,0,0,0-.5.06A1.2,1.2,0,0,0,32.68,37c.39,1.33,2.32,1.3,2.32,2.92,0-8.43,3.93-10,6.6-8.75a6.08,6.08,0,0,0,2.4.41h0a6.08,6.08,0,0,0,2.4-.41c2.67-1.23,6.6.32,6.6,8.75,0-1.62,1.93-1.59,2.32-2.92a1.2,1.2,0,0,0-.12-2.21Z"/><path class="cls-2" d="M55.2,34.75a1.25,1.25,0,0,0-.5-.06l-.06-.07a1.78,1.78,0,0,0,1.26-1.14,1.79,1.79,0,0,0-2.27-2.3l-.09-.29A2.4,2.4,0,0,0,50.73,27l-.13-.13-.07,0a2.52,2.52,0,0,0,.07-.56,2.39,2.39,0,0,0-2.4-2.4,2.37,2.37,0,0,0-1.83.87A2.4,2.4,0,0,0,44,22.68h0a2.4,2.4,0,0,0-2.37,2.07,2.37,2.37,0,0,0-1.83-.87,2.4,2.4,0,0,0-2.4,2.4,2.52,2.52,0,0,0,.07.56l-.07,0-.13.13a2.4,2.4,0,0,0-2.81,3.88l-.09.29a1.79,1.79,0,0,0-2.27,2.3,1.78,1.78,0,0,0,1.26,1.14l-.06.07a1.25,1.25,0,0,0-.5.06A1.2,1.2,0,0,0,32.68,37c.39,1.33,2.32,1.3,2.32,2.92,0-8.43,3.93-10,6.6-8.75a6.08,6.08,0,0,0,2.4.41h0a6.08,6.08,0,0,0,2.4-.41c2.67-1.23,6.6.32,6.6,8.75,0-1.62,1.93-1.59,2.32-2.92a1.2,1.2,0,0,0-.12-2.21Z"/><ellipse class="cls-1" cx="62" cy="85.12" rx="8" ry="1"/><path class="cls-3" d="M74,67.37a1,1,0,0,0-1-1H66.5a1,1,0,0,1-1-1v-6.5a1,1,0,0,0-1-1h-5a1,1,0,0,0-1,1v6.5a1,1,0,0,1-1,1H51a1,1,0,0,0-1,1v5a1,1,0,0,0,1,1h6.5a1,1,0,0,1,1,1v6.5a1,1,0,0,0,1,1h5a1,1,0,0,0,1-1v-6.5a1,1,0,0,1,1-1H73a1,1,0,0,0,1-1Z"/><path class="cls-2" d="M74,67.37a1,1,0,0,0-1-1H66.5a1,1,0,0,1-1-1v-6.5a1,1,0,0,0-1-1h-5a1,1,0,0,0-1,1v6.5a1,1,0,0,1-1,1H51a1,1,0,0,0-1,1v5a1,1,0,0,0,1,1h6.5a1,1,0,0,1,1,1v6.5a1,1,0,0,0,1,1h5a1,1,0,0,0,1-1v-6.5a1,1,0,0,1,1-1H73a1,1,0,0,0,1-1Z"/></svg>