<svg id="Layer_1" data-name="Layer 1" xmlns="http://www.w3.org/2000/svg" xmlns:xlink="http://www.w3.org/1999/xlink" viewBox="0 0 100 100"><defs><style>.cls-1,.cls-3,.cls-9{fill:none;}.cls-2{fill:#f0f2ff;}.cls-10,.cls-11,.cls-3,.cls-4,.cls-8,.cls-9{stroke:#4550e5;stroke-linejoin:round;}.cls-3,.cls-4,.cls-8{stroke-linecap:round;}.cls-10,.cls-4,.cls-7{fill:#fff;}.cls-5{fill:#4550e5;}.cls-11,.cls-6,.cls-8{fill:#d6daff;}.cls-12{clip-path:url(#clip-path);}</style><clipPath id="clip-path"><circle class="cls-1" cx="50" cy="50" r="40"/></clipPath></defs><title>wedding-couple</title><path class="cls-2" d="M86.45,66.54a40,40,0,1,0-72.9,0Z"/><line class="cls-3" x1="11" y1="66.54" x2="89" y2="66.54"/><line class="cls-3" x1="6.5" y1="66.54" x2="9" y2="66.54"/><line class="cls-3" x1="91" y1="66.54" x2="93.5" y2="66.54"/><path class="cls-4" d="M32.5,27.5a6,6,0,0,0-6,6v.8a1.23,1.23,0,0,0-1,1.2,1.25,1.25,0,0,0,1.13,1.23A6,6,0,0,0,38.5,35.5v-2A6,6,0,0,0,32.5,27.5Z"/><path class="cls-5" d="M31.75,33.5a.75.75,0,1,0,.75.75.76.76,0,0,0-.75-.75Z"/><path class="cls-5" d="M35.75,33.5a.75.75,0,1,0,.75.75.76.76,0,0,0-.75-.75Z"/><circle class="cls-6" cx="29.75" cy="36.25" r="0.75"/><path class="cls-3" d="M32,38.05a2.72,2.72,0,0,0,3,0"/><ellipse class="cls-2" cx="32.5" cy="81" rx="8.5" ry="1.5"/><path class="cls-4" d="M33.51,80.5a1,1,0,0,1-.89-1.45,3,3,0,0,1,2.62-1.55h.5a3,3,0,0,1,2.63,1.55,1,1,0,0,1-.9,1.45Z"/><path class="cls-4" d="M27.53,80.5a1,1,0,0,1-.9-1.45,3,3,0,0,1,2.63-1.55h.5a3,3,0,0,1,2.63,1.55,1,1,0,0,1-.9,1.45Z"/><path class="cls-4" d="M23,77a1,1,0,0,0,1,1H41a1,1,0,0,0,1-1C41.76,64.76,37.5,60.5,37.5,60.5c-.92-1.41-1.67-3.9.5-7.4V50s-2-3-5.5,0c-3.5-3-5.5.5-5.5.5v2.6c2.17,3.5,1.42,6,.5,7.4C27.5,60.5,23.22,63.83,23,77Z"/><path class="cls-7" d="M39.39,29.52A4.5,4.5,0,0,0,35,26a5,5,0,0,0-2.5.69A5,5,0,0,0,30,26a4.5,4.5,0,0,0-4.4,3.52c-.45,2.05-2.11,4-.61,7.48,1.43,3.33-2.13,6.22,3.58,7.78a.49.49,0,0,0,.49-.14.51.51,0,0,0,.12-.5C27.85,40,30.41,40.22,29,36c-.85-2.55-1-4.5,1-4.5a3.07,3.07,0,0,0,2.5-.95,4.53,4.53,0,0,0,3,1.45,3.75,3.75,0,0,1,3,1.5c-2.26,3.62,1.62,6.42-1.33,10.25a.44.44,0,0,0,0,.53.43.43,0,0,0,.51.12c4.62-2,1.41-5.13,2.32-7.4C41.42,33.46,39.85,31.57,39.39,29.52Z"/><path class="cls-3" d="M39.39,29.52A4.5,4.5,0,0,0,35,26a5,5,0,0,0-2.5.69A5,5,0,0,0,30,26a4.5,4.5,0,0,0-4.4,3.52c-.45,2.05-2.11,4-.61,7.48,1.43,3.33-2.13,6.22,3.58,7.78a.49.49,0,0,0,.49-.14.51.51,0,0,0,.12-.5C27.85,40,30.41,40.22,29,36c-.85-2.55-1-4.5,1-4.5a3.07,3.07,0,0,0,2.5-.95,4.53,4.53,0,0,0,3,1.45,3.75,3.75,0,0,1,3,1.5c-2.26,3.62,1.62,6.42-1.33,10.25a.44.44,0,0,0,0,.53.43.43,0,0,0,.51.12c4.62-2,1.41-5.13,2.32-7.4C41.42,33.46,39.85,31.57,39.39,29.52Z"/><line class="cls-3" x1="40.5" y1="30.5" x2="24.5" y2="30.5"/><path class="cls-8" d="M37,32a1.26,1.26,0,0,1,2.46-.53,6.63,6.63,0,0,1-.69,2.72S37.23,32.88,37,32Z"/><path class="cls-8" d="M27.23,28.24a1.26,1.26,0,1,1-1.63,1.91,6.56,6.56,0,0,1-1.1-2.58A6.6,6.6,0,0,1,27.23,28.24Z"/><path class="cls-4" d="M31,29a1.51,1.51,0,0,0-.56.11,1.5,1.5,0,0,0-2.94.39,1.54,1.54,0,0,0,.2.74A1.48,1.48,0,0,0,27,31.5a1.5,1.5,0,0,0,3,.1,1.47,1.47,0,0,0,1,.4,1.5,1.5,0,0,0,0-3Z"/><path class="cls-7" d="M51,56.24a1.76,1.76,0,0,0,1.52-2l-.06-.42a4.09,4.09,0,0,0-2.27-3.18,4.12,4.12,0,0,0-3.9.17l-3.85,2.32a.68.68,0,0,1-.31.08.6.6,0,0,1-.6-.6V52.5a9,9,0,0,0-18,0v4.07a9.91,9.91,0,0,0,2,5.88l1.39,1.85a1.75,1.75,0,0,0,1.4.7,1.72,1.72,0,0,0,1.05-.35,1.75,1.75,0,0,0,.35-2.45l-1.39-1.85A6.38,6.38,0,0,1,27,56.57V50.5s2-3.5,5.5-.5C36,47,38,50,38,50v2.65a4.11,4.11,0,0,0,6.21,3.52l3.85-2.31a.56.56,0,0,1,.31-.09.6.6,0,0,1,.59.52l0,.43a1.76,1.76,0,0,0,1.73,1.53Z"/><path class="cls-3" d="M51,56.24a1.76,1.76,0,0,0,1.52-2l-.06-.42a4.09,4.09,0,0,0-2.27-3.18,4.12,4.12,0,0,0-3.9.17l-3.85,2.32a.68.68,0,0,1-.31.08.6.6,0,0,1-.6-.6V52.5a9,9,0,0,0-18,0v4.07a9.91,9.91,0,0,0,2,5.88l1.39,1.85a1.75,1.75,0,0,0,1.4.7,1.72,1.72,0,0,0,1.05-.35,1.75,1.75,0,0,0,.35-2.45l-1.39-1.85A6.38,6.38,0,0,1,27,56.57V50.5s2-3.5,5.5-.5C36,47,38,50,38,50v2.65a4.11,4.11,0,0,0,6.21,3.52l3.85-2.31a.56.56,0,0,1,.31-.09.6.6,0,0,1,.59.52l0,.43a1.76,1.76,0,0,0,1.73,1.53Z"/><line class="cls-3" x1="32.5" y1="47.5" x2="32.5" y2="50"/><path class="cls-4" d="M67,27.5a6,6,0,0,1,6,6v.8a1.23,1.23,0,0,1,1,1.2,1.25,1.25,0,0,1-1.12,1.23A6,6,0,0,1,61,35.5v-2A6,6,0,0,1,67,27.5Z"/><ellipse class="cls-2" cx="67" cy="81" rx="10" ry="1.5"/><path class="cls-6" d="M60.5,62V79.5a1,1,0,0,0,1,1H64a1,1,0,0,0,1-1l.36-11.41a1.66,1.66,0,0,1,1.2-1.57,1.6,1.6,0,0,1,2,1.5L69,79.53a1,1,0,0,0,1,1H72.5a1,1,0,0,0,1-1V62Z"/><path class="cls-3" d="M60.5,62V79.5a1,1,0,0,0,1,1H64a1,1,0,0,0,1-1l.36-11.41a1.66,1.66,0,0,1,1.2-1.57,1.6,1.6,0,0,1,2,1.5L69,79.53a1,1,0,0,0,1,1H72.5a1,1,0,0,0,1-1V62Z"/><path class="cls-4" d="M73.73,80.5a1,1,0,0,0,.9-1.45A3,3,0,0,0,72,77.5h-.5a3,3,0,0,0-2.63,1.55,1,1,0,0,0,.9,1.45Z"/><path class="cls-4" d="M64.23,80.5a1,1,0,0,0,.9-1.45A3,3,0,0,0,62.5,77.5H62a3,3,0,0,0-2.63,1.55,1,1,0,0,0,.9,1.45Z"/><path class="cls-4" d="M67,43.5a10.42,10.42,0,0,0-3.27.52l0,18h6.48l0-18A10.42,10.42,0,0,0,67,43.5Z"/><line class="cls-3" x1="67" y1="47" x2="67" y2="62"/><path class="cls-4" d="M67,43.5A10.61,10.61,0,0,0,64,44l3,3,3-3A10.61,10.61,0,0,0,67,43.5Z"/><path class="cls-6" d="M56.5,54c0,1,.12,2-1,2.22-.82.21-1.15-.32-1.56-1L50,57.38c3.25,5.5,8.92,3.14,10.49.86V67.5c.78,1.57,1.5,0,1.5,0a42.74,42.74,0,0,0,3-15L63.73,44A10.49,10.49,0,0,0,56.5,54Z"/><path class="cls-6" d="M77.5,54a10.51,10.51,0,0,0-7.22-10L69,52.5a39.79,39.79,0,0,0,1.31,9.78,1.39,1.39,0,0,0,.44.72l2.12,1.86a1,1,0,0,0,1.31,0A9.8,9.8,0,0,0,77.5,57.5V54Z"/><path class="cls-3" d="M77.5,54a10.51,10.51,0,0,0-7.22-10L69,52.5a39.79,39.79,0,0,0,1.31,9.78,1.39,1.39,0,0,0,.44.72l2.12,1.86a1,1,0,0,0,1.31,0A9.8,9.8,0,0,0,77.5,57.5V54Z"/><line class="cls-3" x1="60.5" y1="51.5" x2="60.5" y2="58.24"/><path class="cls-5" d="M67.75,33.5a.75.75,0,1,0,.75.75.76.76,0,0,0-.75-.75Z"/><path class="cls-9" d="M56.5,54c0,1,.12,2-1,2.22-.82.21-1.15-.32-1.56-1L50,57.38c3.25,5.5,8.92,3.14,10.49.86V67.5c.78,1.57,1.5,0,1.5,0a42.74,42.74,0,0,0,3-15L63.73,44A10.49,10.49,0,0,0,56.5,54Z"/><path class="cls-5" d="M63.75,33.5a.75.75,0,1,0,.75.75.76.76,0,0,0-.75-.75Z"/><circle class="cls-6" cx="69.75" cy="36.25" r="0.75"/><path class="cls-3" d="M67.5,38.05a2.73,2.73,0,0,1-3,0"/><path class="cls-7" d="M50.86,56.92A2.3,2.3,0,0,0,53.74,55a2.42,2.42,0,0,0-1.83-2.57l-.57-.15a1.52,1.52,0,0,0-1.87,1L49,54.8a1.53,1.53,0,0,0,1.07,1.91Z"/><path class="cls-3" d="M50.86,56.92A2.3,2.3,0,0,0,53.74,55a2.42,2.42,0,0,0-1.83-2.57l-.57-.15a1.52,1.52,0,0,0-1.87,1L49,54.8a1.53,1.53,0,0,0,1.07,1.91Z"/><path class="cls-7" d="M61,32.5c-1.2-.6-.73-3.72.37-4.23l-.79-.63A.91.91,0,0,1,61.21,26h7.38a4.79,4.79,0,0,1,4.91,4.68v3.61c-3.61,0-3.63-2.84-6.72-3.61-.08.7-1,1.36-2.41,1.8a1.76,1.76,0,0,0-1.8-1.8Z"/><path class="cls-3" d="M61,32.5c-1.2-.6-.73-3.72.37-4.23l-.79-.63A.91.91,0,0,1,61.21,26h7.38a4.79,4.79,0,0,1,4.91,4.68v3.61c-3.61,0-3.63-2.84-6.72-3.61-.08.7-1,1.36-2.41,1.8a1.76,1.76,0,0,0-1.8-1.8Z"/><path class="cls-6" d="M69,52.5a38.32,38.32,0,0,0,.69,7l2.81-8L71,48l2-.5-.4-2.38A10.28,10.28,0,0,0,70.28,44Z"/><path class="cls-9" d="M69,52.5a38.32,38.32,0,0,0,.69,7l2.81-8L71,48l2-.5-.4-2.38A10.28,10.28,0,0,0,70.28,44Z"/><path class="cls-3" d="M73.5,51.5v6.12c0,1.77-1.4,4.61-2.75,5.38"/><path class="cls-6" d="M61.4,45.12,61,47.5l2,.5-1.5,3.5,2.8,8a38.1,38.1,0,0,0,.7-7L63.73,44A10.16,10.16,0,0,0,61.4,45.12Z"/><path class="cls-3" d="M61.4,45.12,61,47.5l2,.5-1.5,3.5,2.8,8a38.1,38.1,0,0,0,.7-7L63.73,44A10.16,10.16,0,0,0,61.4,45.12Z"/><path class="cls-10" d="M67,48l.58-.5a3.59,3.59,0,0,1,1.71-.91,1,1,0,0,1,1.21,1v.86a1,1,0,0,1-1.21,1,3.59,3.59,0,0,1-1.71-.91Z"/><path class="cls-10" d="M67,48l-.58-.5a3.61,3.61,0,0,0-1.7-.91,1,1,0,0,0-1.22,1v.86a1,1,0,0,0,1.22,1,3.61,3.61,0,0,0,1.7-.91Z"/><circle class="cls-11" cx="67" cy="48" r="1"/><g class="cls-12"><line class="cls-3" x1="50" y1="8.96" x2="50" y2="23.95"/><path class="cls-4" d="M50,30c-5.68-2.52-3.52-9.53,0-6.05C53.51,20.47,55.68,27.48,50,30Z"/><line class="cls-3" x1="39" y1="8.96" x2="39" y2="19.04"/><path class="cls-4" d="M39,22.5c-3.25-1.44-2-5.45,0-3.46C41,17.05,42.25,21.06,39,22.5Z"/><line class="cls-3" x1="61" y1="8.96" x2="61" y2="19.04"/><path class="cls-4" d="M61,22.5c3.25-1.44,2-5.45,0-3.46C59,17.05,57.75,21.06,61,22.5Z"/></g></svg>